<svg width="12" height="11" viewBox="0 0 12 11" fill="none" xmlns="http://www.w3.org/2000/svg">
<path fill-rule="evenodd" clip-rule="evenodd" d="M0 1.33333C0 0.596953 0.596954 0 1.33333 0H10.6667C11.403 0 12 0.596954 12 1.33333V7.33333C12 8.06971 11.403 8.66667 10.6667 8.66667L6.26618 8.66667L4.35542 10.4819C3.71844 11.087 2.66667 10.6355 2.66667 9.7569V8.66667H1.33333C0.596953 8.66667 0 8.06971 0 7.33333V1.33333ZM10.6667 1.33333L1.33333 1.33333V7.33333H2.66667C3.40305 7.33333 4 7.93029 4 8.66667V8.98046L5.34785 7.7L5.80702 8.18333L5.34785 7.7C5.59565 7.46459 5.92439 7.33333 6.26618 7.33333H10.6667V1.33333ZM2.66667 4.33333C2.66667 3.96514 2.96514 3.66667 3.33333 3.66667H3.34C3.70819 3.66667 4.00667 3.96514 4.00667 4.33333C4.00667 4.70152 3.70819 5 3.34 5H3.33333C2.96514 5 2.66667 4.70152 2.66667 4.33333ZM5.33333 4.33333C5.33333 3.96514 5.63181 3.66667 6 3.66667H6.00667C6.37486 3.66667 6.67333 3.96514 6.67333 4.33333C6.67333 4.70152 6.37486 5 6.00667 5H6C5.63181 5 5.33333 4.70152 5.33333 4.33333ZM8 4.33333C8 3.96514 8.29848 3.66667 8.66667 3.66667H8.67333C9.04152 3.66667 9.34 3.96514 9.34 4.33333C9.34 4.70152 9.04152 5 8.67333 5H8.66667C8.29848 5 8 4.70152 8 4.33333Z" fill="#77838D"/>
</svg>
