<svg width="10" height="10" viewBox="0 0 10 10" fill="none" xmlns="http://www.w3.org/2000/svg">
<path fill-rule="evenodd" clip-rule="evenodd" d="M9.0969 0.194083C9.3579 0.45378 9.35896 0.875888 9.09926 1.13689L5.60712 4.64657L9.13925 8.19643C9.39895 8.45743 9.39789 8.87954 9.13689 9.13924C8.87589 9.39894 8.45378 9.39788 8.19408 9.13688L4.66667 5.59175L1.13925 9.13688C0.879554 9.39788 0.457445 9.39894 0.196444 9.13924C-0.0645564 8.87954 -0.0656137 8.45743 0.194083 8.19643L3.72621 4.64657L0.234069 1.13689C-0.0256273 0.875892 -0.02457 0.453783 0.236431 0.194086C0.497431 -0.0656101 0.91954 -0.0645529 1.17924 0.196448L4.66667 3.70139L8.1541 0.196444C8.41379 -0.0645564 8.8359 -0.0656137 9.0969 0.194083Z" fill="#B1B5BA"/>
</svg>
