<svg width="123" height="80" viewBox="0 0 123 80" fill="none" xmlns="http://www.w3.org/2000/svg">
<path d="M107.477 29.2194C107.701 29.185 107.62 29.1647 107.796 29.2672C108.031 29.9973 105.68 39.7027 105.436 41.3673C105.084 43.7576 104.442 46.6101 104.03 49.0337C103.61 51.5015 102.625 53.5769 102.927 56.152C103.156 56.292 103.489 56.4548 103.734 56.5832C104.923 56.4259 105.612 55.9759 106.525 55.198C106.577 54.3895 106.608 53.379 106.878 52.6186C107.341 51.3151 108.635 50.513 109.204 49.3311C110.914 45.7778 112.327 41.9126 113.452 38.1303C113.548 37.809 114.012 36.4858 114.222 36.3655C115.944 35.3805 118.866 34.9605 120.573 34.092C120.627 37.1251 120.771 40.4792 121.088 43.4956C121.677 49.0917 122.784 54.3912 117.006 57.7093C114.22 59.3097 109.125 60.523 107.191 57.15C106.286 58.4351 105.045 59.613 103.637 60.3009C102.419 60.8965 100.284 61.5298 98.9742 61.0267C97.5554 60.4818 97.4289 59.5552 96.8804 58.433C96.7531 58.4677 96.3992 59.0474 96.3156 59.1933C94.789 61.8612 91.5101 63.7929 88.3867 63.2768C86.789 63.0127 86.0343 61.7313 85.1812 60.428C85.1015 60.6444 84.9663 61.0147 84.8538 61.2069C83.7265 63.1193 82.1289 64.5164 80.0062 65.1712C78.8757 65.5198 76.924 65.5876 75.9994 65.0201C71.5501 62.289 76.8532 52.7165 75.8983 48.5807C75.848 48.3571 75.6673 48.0041 75.4427 47.9177C73.7573 47.2001 72.1241 50.0008 71.7134 51.3394C70.9115 53.953 70.5084 56.9476 69.8502 59.6275C69.4859 61.1107 69.4221 62.8128 69.0174 64.3088C68.8085 65.081 68.7095 66.2505 68.3569 66.9296C67.9718 67.2183 62.9421 68.023 62.0978 68.1627C62.1167 67.1549 62.7092 64.0509 63.1546 63.1374C60.0941 67.4612 54.9052 71.3887 49.3004 69.6857C48.2049 69.3528 47.4742 68.2551 47.0506 67.2498C46.066 68.9973 44.2435 70.724 42.4642 71.6395C41.4683 72.1519 39.513 72.6819 38.4213 72.4352L38.3714 72.4244C37.4578 72.2219 36.5108 71.8167 36.0435 70.9743C34.6877 68.5294 35.7056 64.8721 36.2103 62.3563L37.4777 56.1386C37.7985 54.6312 38.0152 53.0882 38.3282 51.5562C38.6815 49.8276 39.3651 50.3042 40.9082 50.0591C41.4812 49.9681 44.6878 49.1498 44.9386 49.2152L44.9767 49.3697C44.5328 50.7033 44.2217 53.4973 43.9233 54.977L42.6763 61.0472C42.2799 62.9105 41.4969 65.4754 41.9268 67.3226C43.5956 67.7752 44.4316 67.1357 45.5456 66.0339C47.2772 64.4651 46.4428 62.6219 46.8365 60.7069C47.9117 55.4767 50.3703 49.9384 55.3565 47.389C56.8713 46.6146 59.5518 46.003 61.147 46.5868C63.8353 47.5706 63.3196 51.3146 62.4362 53.3737C61.066 56.6127 58.368 58.8974 55.2311 60.3255C54.8763 60.5468 53.3039 60.7144 53.2467 61.1949C53.1378 62.109 52.9453 65.365 54.1832 65.5757C55.8321 65.8562 57.3221 65.548 58.708 64.7651C60.6775 63.6526 62.0534 62.1673 63.2963 60.3162C64.1842 58.7762 64.3239 55.9937 64.7272 54.2356C65.3531 51.5079 65.9714 48.7408 66.3487 45.9624C66.3662 45.8275 66.4985 45.5577 66.6322 45.5045C68.3872 44.8058 70.5725 44.929 72.3348 44.239C72.561 44.1504 72.5689 44.0779 72.7989 44.2355C72.9764 44.7041 72.5722 45.7885 72.4739 46.4453C74.0742 44.2801 77.0901 42.5171 79.8038 43.3219C84.382 44.8272 81.5023 51.7471 80.957 55.0444C80.7913 56.0471 80.364 58.0323 80.096 58.9556C80.1843 59.2794 80.3593 60.0505 80.5546 60.2862C81.1703 61.0305 82.4734 60.3989 83.0124 59.9848C85.1843 58.3143 84.739 56.4269 84.9687 54.0372C85.0648 53.0341 85.5648 51.6714 85.8687 50.6998C86.907 47.3369 88.8226 43.8717 91.6492 41.6878C93.2976 40.4139 95.6117 39.6438 97.7296 39.8652C98.582 39.9543 99.0578 40.4428 99.5296 41.0997C99.464 39.6486 100.92 32.9734 101.391 31.3764C102.581 30.7164 104.194 30.2495 105.509 29.8551C106.151 29.6625 106.88 29.5057 107.477 29.2194ZM92.739 58.4494C94.1937 58.3786 95.8351 57.0577 96.2999 55.6974C97.0914 53.3825 97.4132 50.7596 97.871 48.3576C98.1679 46.6745 98.7484 45.0152 98.7843 43.3007C98.7953 42.7836 97.9163 42.418 97.539 42.4338C96.0038 42.7754 95.1765 43.3933 94.346 44.8095C92.3187 48.2686 90.9687 53.1039 91.4476 57.1239C91.5539 58.0163 92.0218 58.1638 92.739 58.4494ZM111.182 49.8664C111.442 50.123 112.111 50.6537 112.055 51.0494C111.791 52.9237 111.241 53.8289 109.263 53.7876L109.049 53.7821C109.144 54.3944 109.164 55.0493 109.571 55.4998C110.391 56.1202 110.873 55.9941 111.833 55.7379C112.819 55.4748 113.619 55.0682 114.241 54.2284C114.615 53.7256 114.877 53.1491 115.011 52.5373C115.415 50.6866 114.957 47.2615 114.661 45.3268C114.569 44.7258 114.47 41.886 114.324 41.6944C114.166 42.5443 113.826 43.236 113.553 44.0377C112.868 46.05 111.968 47.9003 111.182 49.8664ZM53.4995 58.6888L54.2256 58.3601C57.6506 56.7106 59.7593 53.4937 59.5806 49.6101C59.5542 49.0346 59.1517 48.9834 58.6896 48.9249C56.6556 49.483 56.2278 51.273 55.365 52.9847C54.4221 54.8554 54.1663 56.7479 53.4995 58.6888Z" fill="#D8DADD"/>
<path d="M75.9489 0.399494C76.0973 0.384724 76.0271 0.369383 76.1602 0.468209C76.2527 0.860318 74.6586 8.91239 74.4458 9.80083C74.3117 10.3862 74.1334 10.9606 73.9127 11.519C75.6078 9.79176 77.0098 8.40544 79.5772 8.27528C85.9257 7.95325 83.5983 15.1429 82.7538 18.8099C82.3632 20.506 81.7304 23.1411 81.7858 24.8137C81.9475 25.0404 82.1288 25.365 82.2757 25.6102C82.8616 25.6311 83.5022 25.6052 84.0929 25.5926C85.3921 20.1929 87.6733 16.5308 92.8905 14.0843C94.5827 13.2906 96.7663 12.5786 98.5913 12.3365C101.855 11.9032 103.28 12.4546 106.414 10.9459C109.04 9.68223 108.801 8.67129 110.558 7.35424C110.519 10.502 109.266 12.1928 107.505 14.6059C104.597 18.6931 99.8436 20.6221 94.9093 20.8573C91.1389 21.037 86.9874 21.2073 85.0507 25.2472C84.6936 25.9929 84.635 26.7972 84.2038 27.6144C83.4936 28.9673 82.2741 29.9819 80.8139 30.4342C79.8179 30.7387 78.296 30.7815 77.4036 30.2941C74.0464 28.4605 76.5687 21.1358 77.1233 18.2031C77.2829 17.3574 77.4169 16.3778 77.4639 15.5213C77.4995 14.8719 77.6628 13.5402 76.9972 13.2211C76.675 13.0666 75.8947 13.0693 75.5948 13.2425C72.5569 15.0472 72.6161 19.668 71.8674 22.744C71.6521 23.6285 70.1943 32.0929 69.8301 32.1909C68.2422 32.6184 65.1309 32.8556 63.488 33.466C63.8687 31.4518 64.3443 29.9843 64.604 27.8874C63.7314 28.8141 62.4447 29.8384 61.6619 30.8061C59.6439 33.3005 58.0079 34.6585 54.6729 35.1412C52.627 35.5739 49.9815 35.2554 49.1977 32.9118C48.7693 31.3778 48.6642 29.1282 49.4253 27.6874C50.4595 25.7297 52.2536 25.0454 54.2063 26.0752C54.2812 26.7993 54.2648 27.3382 54.1487 28.0533C52.4857 30.2587 51.9043 29.0718 51.1107 29.5579C50.8365 30.079 51.6829 31.3007 52.0371 31.7169C52.3299 31.7643 52.6262 31.7871 52.9229 31.785C57.1917 31.7879 55.961 26.4564 55.7814 23.7076C55.6075 21.045 55.3074 18.463 55.2488 15.7898C54.725 16.4865 54.2653 17.3355 53.7418 18.0564C52.1138 20.2981 50.4592 21.8084 47.9712 22.9862C48.0101 23.6072 47.9956 24.1812 47.9212 24.8263C47.1675 31.36 42.8118 38.677 35.3911 38.302C34.1882 38.1989 32.6984 37.5245 31.9901 36.5378C30.3501 34.2531 30.9511 29.4286 31.6239 26.8829C32.5416 23.4114 34.5228 19.3116 37.3782 17.0841C39.7239 15.2543 44.6332 13.0839 46.9814 16.0652C47.9532 17.2718 48.1707 19.2407 47.9559 20.7239C50.4907 19.7884 52.1048 17.349 53.4407 15.1418C53.8306 14.4974 54.6424 12.5466 55.2732 12.3137C57.2351 11.5895 59.4714 10.8297 61.5136 10.3933C61.5539 11.3615 61.6932 12.3941 61.7486 13.3896L62.2211 22.2582C62.3504 24.434 62.559 25.5404 62.4839 27.7647C63.0093 27.2367 64.9754 25.3348 65.1818 24.8427C65.7941 23.0311 66.0795 20.9734 66.4189 19.0674C66.9638 16.0081 67.7364 12.8809 68.3057 9.85293L69.1858 5.19772C69.255 4.83317 69.6479 2.52385 69.8519 2.36708C70.5468 1.83297 73.6259 1.13683 74.6117 0.784193C75.169 0.584848 75.4399 0.660381 75.9489 0.399494ZM40.0685 33.6135C40.5469 33.1921 41.2077 32.6233 41.5764 32.1012C43.067 29.9905 44.0011 26.5066 44.2739 23.9953C43.8294 23.6199 43.6487 23.4714 43.2952 22.9961C43.1898 20.6747 43.435 21.0711 44.4149 19.4036C44.1944 17.5894 44.2568 17.4035 42.3962 17.524C39.1071 20.43 38.0889 25.4134 37.5604 29.5957C37.4434 30.5207 37.4589 32.8009 38.0901 33.6049C38.457 34.0722 39.5842 33.7789 40.0685 33.6135Z" fill="#D8DADD"/>
<path d="M24.6251 7.60845C26.1203 7.50545 27.9021 7.88495 29.2111 8.61729C30.776 9.49299 31.7087 10.8231 32.184 12.536C32.9455 15.2801 32.2119 18.4013 30.8252 20.8395C28.7288 24.5257 25.9607 26.8653 21.9698 28.2975C21.3807 28.5089 20.715 28.4514 20.1506 28.6637C19.9793 28.7281 19.9384 28.8367 19.8794 28.9967C19.6487 29.6221 19.5637 30.3988 19.4183 31.0571C18.8519 33.622 18.4164 36.214 17.926 38.7952C17.7753 39.5891 17.7362 40.7789 17.3252 41.4652C16.9683 42.061 11.9988 42.6209 11.0126 42.8588C11.0416 41.3842 11.7057 39.0396 12.0035 37.5091L14.7914 23.6542C15.1771 21.7389 15.4547 19.8361 15.8847 17.9032C16.1956 16.5059 16.1593 15.336 16.7291 13.8808C17.1752 13.6414 18.065 13.4467 18.5873 13.2686C20.1735 12.7279 21.5596 12.2217 23.2104 11.8637C22.9842 12.8633 22.8054 14.0564 22.6307 15.0742C22.4418 16.7507 21.792 18.7317 21.5043 20.3926C21.0814 22.8337 20.852 24.7052 20.1071 27.1059L20.6711 26.8154C21.5401 26.3628 22.2193 25.9648 23.0572 25.3394C26.6717 22.6418 31.0678 9.51792 22.9995 9.93081C18.0725 10.1829 12.7422 14.0439 11.663 19.0443C11.2239 21.079 10.886 23.6989 11.973 25.6327C9.85503 25.6743 9.56011 25.7987 7.67213 24.7492C7.36174 24.1552 7.29528 23.8121 7.21756 23.1613C6.84919 20.0766 7.8223 17.9845 9.73769 15.5912C12.3182 12.3667 16.1364 9.60596 20.0946 8.37518C21.4015 7.96877 23.2646 7.76241 24.6251 7.60845Z" fill="#D8DADD"/>
<path d="M25.6169 41.9316L25.7092 41.9718C26.0172 42.3918 25.7091 42.6777 25.6151 43.1767C25.3695 44.548 24.8374 45.7016 23.8503 46.6908C21.9681 48.5768 18.3597 48.1871 15.8262 48.1284C15.8065 49.107 14.4623 56.1388 14.0258 57.0652C14.5811 56.9864 15.137 56.8359 15.6865 56.7598C17.3096 56.5351 18.6853 56.3118 20.263 55.8737C20.2436 57.2207 20.0332 58.2304 19.632 59.5007C18.4145 59.5439 16.9218 60.0035 15.7017 60.1843C15.3213 60.3364 13.4785 60.4177 13.3898 60.8116C12.908 62.9502 12.5408 65.0848 12.1324 67.2339C11.9381 68.2563 11.6648 69.3446 11.442 70.3674C10.972 72.5252 10.7429 75.667 9.77338 77.6165C8.62189 78.0094 4.96475 78.62 3.67806 78.7184L3.63026 78.6716C3.97773 76.1473 4.73807 73.4373 5.15521 70.8753C5.44153 69.1166 5.92132 67.4455 6.19108 65.6245C6.42397 64.4112 6.72996 63.2099 6.97916 61.9998L8.33393 55.2909C8.82525 52.9231 9.15549 50.8634 9.72791 48.4442C7.73511 49.4187 6.38406 49.6666 5.43132 51.964C4.23507 54.8484 4.01928 58.6507 5.03513 61.5632C3.43036 61.5976 1.24121 61.7359 0.520578 59.9396C-0.552071 57.2659 0.567424 53.6974 1.99442 51.3623C4.62798 47.0529 9.91143 44.5859 14.7406 43.8279C18.5688 43.227 21.9676 43.6152 25.6169 41.9316Z" fill="#D8DADD"/>
<path d="M33.3448 51.5138C34.3455 51.5016 35.2575 51.4324 35.9136 52.3625C37.4203 54.4983 35.4921 58.088 32.8907 58.0624C32.6252 58.0598 32.2309 57.9833 31.9612 57.9376C31.417 57.1531 31.4294 56.0083 31.08 55.683C30.1892 55.2715 28.0688 57.0377 27.8164 57.8269C26.988 60.4168 26.6534 63.3532 26.151 66.0251C25.7652 68.0776 25.2758 69.9594 24.9324 72.0218C24.7892 72.8821 24.5505 74.1073 24.2138 74.9215C23.9925 75.2772 20.5993 75.7305 20.1655 75.8024C19.2659 75.9817 18.7435 75.9011 17.8672 76.2353C18.188 74.4051 18.5962 72.5552 18.9124 70.7136C19.1556 69.2972 19.5891 67.8443 19.8584 66.418L20.9787 60.5209C21.2055 59.2731 22.0745 54.4533 22.5467 53.4755C23.2202 53.0066 27.7281 52.4437 28.9384 52.2234C28.6846 52.8437 28.4929 54.1634 28.2023 55.0401C29.7345 53.4263 31.0037 51.7432 33.3448 51.5138Z" fill="#D8DADD"/>
<path d="M42.776 40.3208C47.7488 39.8743 47.5272 46.3671 42.8277 47.458C41.375 47.8421 39.8792 46.7578 39.5167 45.3846C38.8972 43.0378 40.653 40.9783 42.776 40.3208Z" fill="#D8DADD"/>
</svg>
