<svg width="175" height="49" viewBox="0 0 175 49" fill="none" xmlns="http://www.w3.org/2000/svg">
<path d="M85.6917 20.5835C86.3232 17.1546 88.3578 15.1131 91.9381 15.09C98.369 15.0487 97.7503 22.36 97.7461 26.7553L97.7341 33.8965L94.1008 33.8882L94.1017 26.7231C94.1017 24.4786 94.3973 21.2656 92.7601 19.489C91.5476 18.1745 88.9491 18.6009 87.8075 19.851C85.3329 22.5623 85.7037 26.9996 85.7131 30.4336L85.7071 33.8984L82.1345 33.8917L82.1296 27.1371C82.1354 25.2382 82.1868 23.6973 81.9352 21.7637C81.5142 18.5282 78.2681 17.8344 76.0964 19.9958C73.7865 22.2949 73.9732 25.9587 73.9751 29.0172L73.9647 33.8967L70.3516 33.8887C70.5138 27.7773 70.4121 21.5402 70.6116 15.4236C71.7929 15.404 73.0015 15.4118 74.1853 15.4066C74.2053 17.5658 74.1589 18.4795 73.9611 20.6082C75.0077 18.0907 76.1081 15.8171 79.0003 15.1402C80.7004 15.0357 82.21 15.1032 83.6229 16.1947C85.2159 17.4255 85.441 18.7588 85.6917 20.5835Z" fill="white"/>
<path d="M108.703 15.5683C112.24 15.2147 116.781 16.3655 118.099 20.216C118.519 21.8781 118.265 23.7877 118.346 25.4388C118.4 26.5383 118.158 29.223 118.547 30.1078C118.891 30.465 119.66 30.4334 120.159 30.4584C120.176 31.605 120.176 32.752 120.159 33.8986C116.675 33.9233 114.645 34.0544 114.955 29.7966C113.451 32.8189 110.474 33.8888 107.244 33.9137C104.962 33.9313 102.698 33.3382 101.262 31.4229C99.9856 29.4569 100.221 26.3038 102.289 24.9481C105.369 22.9124 109.184 23.9293 112.62 23.5403C113.538 23.3842 114.758 23.3199 114.759 22.1114C114.766 18.0724 109.018 17.7458 106.349 19.2147C105.145 19.8776 104.503 20.7222 104.134 22.0193C103.226 21.8402 101.906 21.6558 101.003 21.5763C102.035 17.7001 104.88 16.0496 108.703 15.5683ZM105.154 30.7319C107.784 32.3258 112.636 31.5711 114.466 28.9959C114.843 28.4649 115.082 25.7835 114.802 25.2883L114.667 25.2815C113.84 25.5584 113.45 25.6573 112.434 25.7516C109.708 26.0045 103.114 24.7365 104.206 29.5151C104.304 29.9471 104.768 30.4686 105.154 30.7319Z" fill="white"/>
<path d="M154.909 8.69336C155.992 8.74168 157.399 8.70062 158.507 8.69951L158.513 15.5995C158.514 16.8041 158.565 18.6917 158.415 19.8309C160.216 16.7762 162.593 15.2712 166.152 15.3093C167.963 15.3287 169.473 15.7273 170.789 17.0683C173.559 19.8911 173.29 24.138 173.288 27.7828L173.28 33.8932L169.642 33.8905C169.725 31.6796 169.645 28.9309 169.644 26.6775C169.646 26.0695 169.62 25.3854 169.648 24.7868C169.78 21.8931 168.582 18.7051 165.184 18.683C163.556 18.6859 161.993 19.3253 160.831 20.4647C158.244 23.0324 158.356 25.8319 158.362 29.1742L158.354 33.8935C157.174 33.9071 155.964 33.8908 154.781 33.8882C154.827 33.3564 154.785 32.1253 154.788 31.5489L154.831 26.7356L154.909 8.69336Z" fill="white"/>
<path d="M142.798 15.4833C147.349 14.8998 151.843 17.2131 153.081 21.7995C151.99 21.981 150.902 22.1768 149.815 22.3866C148.327 18.1191 143.38 17.4363 140.044 19.6954C135.709 22.632 137.154 30.2244 142.543 30.8918C144.552 31.1405 146.155 31.01 147.837 29.8188C148.8 29.0724 149.344 28.3133 149.824 27.2134C150.934 27.3486 152.1 27.4674 153.19 27.7056C152.353 31.3212 149.01 33.5881 145.43 33.9415C142.534 34.2123 139.417 33.7882 137.108 31.8953C133.349 28.8147 133.02 22.5242 136.056 18.8439C137.702 16.8476 140.269 15.7363 142.798 15.4833Z" fill="white"/>
<path d="M124.11 8.96932C125.275 8.93893 126.533 8.96061 127.705 8.9607C127.679 11.0714 127.714 13.2624 127.72 15.3789C129.178 15.4436 130.838 15.4154 132.3 15.3917C132.309 16.5198 132.311 17.6479 132.307 18.776L127.714 18.7875L127.707 25.3218C127.702 31.1248 127.331 30.5954 133.126 30.5511L133.13 33.5702L133.117 33.8056C132.949 33.9348 132.793 33.9004 132.573 33.895C130.026 33.9214 124.819 34.4418 124.384 30.7964C123.956 27.21 124.023 22.4723 124.12 18.7943C122.918 18.7633 121.638 18.7788 120.43 18.7728C120.468 17.7302 120.433 16.4656 120.446 15.392C121.431 15.4632 123.068 15.4134 124.084 15.4086C124.169 13.3951 124.112 11.0062 124.11 8.96932Z" fill="white"/>
<path d="M13.662 1.63198L21.3153 1.64132C22.3207 1.64071 24.4854 1.58636 25.3771 1.70198C26.3731 2.68357 28.4872 5.32927 29.4596 6.5158C30.9689 8.35734 32.9836 10.5788 34.3625 12.41L41.462 5.25117C42.4641 4.2364 44.0498 2.52606 45.0398 1.65464C48.2679 1.6385 52.635 1.52264 55.7973 1.67657C56.4139 2.36014 56.9346 3.27499 57.4009 4.0585C60.729 9.65106 61.6784 12.7593 59.3088 18.9028C57.5333 23.5057 55.3743 27.5103 53.2899 31.9571L49.1506 40.7458C48.5795 41.9494 47.6952 43.9634 47.0635 45.0871L35.2842 45.0769C34.7263 44.6424 32.9308 42.3751 32.3905 41.7208L26.2631 34.3098L19.519 41.2163C18.392 42.3726 16.88 44.0261 15.7142 45.0756L4.87428 45.0718C2.87636 42.477 0.43055 37.8374 0 34.6442V33.238C0.603694 28.7728 3.42999 22.9822 5.39578 18.9329L8.21092 13.0365C9.90211 9.48665 11.8612 5.06834 13.662 1.63198ZM35.5657 28.9717L40.289 34.129C41.0111 32.3638 49.8822 12.5997 49.8724 12.3922C46.3228 14.1607 42.1447 16.6081 38.6218 18.5462L33.1086 21.5817C32.2801 22.0387 30.9974 22.6987 30.2405 23.1839C32.0029 24.9491 33.8414 27.1251 35.5657 28.9717ZM10.8865 34.2247C12.9472 33.0237 15.0931 31.8507 17.129 30.6366L25.5993 25.7979C27.0022 24.9961 28.8706 23.9889 30.2099 23.1323L23.3694 15.2888C23.0025 14.8681 20.938 12.4371 20.6314 12.24C19.333 15.3644 17.8274 18.6124 16.448 21.7143L10.8865 34.2247Z" fill="#9EA2A9"/>
</svg>
