<svg width="155" height="80" viewBox="0 0 155 80" fill="none" xmlns="http://www.w3.org/2000/svg">
<g clip-path="url(#clip0_8042_134119)">
<path d="M0 0H155V80H0V0Z" fill="#65676C"/>
<path d="M67.5978 4.17222C71.4119 3.92543 74.0841 7.01869 76.534 7.0113C78.9078 7.00414 81.6617 3.90909 85.1906 4.17975C86.0289 4.24403 86.6961 4.44163 87.2594 5.10957C88.6039 6.70351 89.7719 13.047 89.5625 15.1852C89.4648 16.1768 89.0727 16.8347 88.3125 17.463C91.1828 19.1106 90.8477 22.0898 90.1516 24.847C89.468 24.0716 89.2 24.0302 88.218 23.7993C88.1781 23.617 88.1297 23.4368 88.0719 23.2595C87.7711 22.3604 86.8195 20.6916 85.975 20.2409C84.7453 19.5844 83.9375 22.1473 83.5977 22.9598C83.1352 24.138 82.868 25.4879 82.3453 26.6151C79.9789 27.9693 72.9716 27.9596 70.604 26.5685C69.698 24.6454 69.4121 21.5367 67.5674 20.0448C65.4644 20.6383 65.598 22.1666 64.6397 23.7645C64.5501 23.9139 64.3559 23.9388 64.1701 23.9377C63.6651 23.9349 63.2014 24.4465 62.8169 24.7982C62.0933 22.24 61.8622 18.9228 64.6481 17.4883C64.0252 16.902 63.5668 16.2928 63.422 15.4235C63.1055 13.5226 64.4781 6.71228 65.6166 5.18296C66.087 4.55098 66.8462 4.28263 67.5978 4.17222Z" fill="#D8DADD"/>
<path d="M66.3028 8.17578C68.4568 8.40023 71.6505 10.9861 73.8226 11.5135C73.9404 11.5422 75.0129 11.472 75.3336 11.4752C75.2612 12.9882 74.6916 13.6599 74.3444 15.002C74.0406 16.1758 74.0548 18.0527 74.0278 19.2955C73.3187 18.4905 73.3358 18.2977 72.3572 17.9071L71.4566 18.301C70.8655 18.6972 69.7087 18.9643 69.0309 18.7512C67.9887 18.4235 67.417 17.3117 66.9216 16.4235C66.4128 16.1309 65.8879 16.071 65.4647 15.7816L65.4557 15.6305C65.7908 15.2374 68.135 14.2816 68.8038 13.9511C67.0614 13.9123 66.0755 14.2468 64.7891 12.9917C64.7891 12.8467 64.7916 12.7016 64.7966 12.5566C64.8427 11.2819 65.3367 9.07578 66.3028 8.17578Z" fill="#65676C"/>
<path d="M69.7825 15.1523C70.6808 15.1254 70.733 15.3833 71.1328 16.0963C70.8922 16.5621 70.7999 16.7585 70.3744 17.0627C69.3245 17.2692 68.6507 15.9263 69.7825 15.1523Z" fill="#D8DADD"/>
<path d="M86.3726 8.21484C87.5288 8.29484 88.7617 12.5248 87.8679 13.3568C87.1093 14.0627 85.2437 13.9709 84.1992 13.997C85.3929 14.5933 86.582 15.0247 87.6968 15.7768C87.3726 15.8811 86.4156 16.1526 86.2148 16.3237C85.2906 17.1098 85.1382 18.4813 83.7085 18.8392C83.2476 18.9546 82.3156 18.6902 81.9124 18.4474C80.3156 17.5281 80.0734 18.1977 78.9046 19.3152C78.9523 18.249 78.9382 16.016 78.6663 15.0406C78.2195 13.4421 77.6922 13.2539 77.7033 11.4474C78.1538 11.4507 78.7234 11.5836 79.1288 11.5267C79.864 11.4236 80.5945 10.9494 81.2406 10.6274C82.7351 9.8825 84.7601 8.5482 86.3726 8.21484Z" fill="#65676C"/>
<path d="M82.6799 15.2065C83.176 15.0764 83.6838 15.3712 83.8166 15.8665C83.9502 16.3617 83.6581 16.8713 83.1635 17.007C82.6651 17.1438 82.1502 16.849 82.0166 16.3498C81.8823 15.8507 82.1799 15.3378 82.6799 15.2065Z" fill="#D8DADD"/>
<path d="M71.9024 19.5137C73.4884 19.5927 73.3217 20.1583 72.6987 21.297C73.7249 22.2869 75.801 23.0052 77.2347 22.714C78.009 22.5567 79.5484 22.0776 80.0852 21.4605C80.3758 21.1256 79.8016 20.4696 79.7125 20.0697C79.8703 19.8402 80.2445 19.6389 80.5063 19.5785C81.6188 19.3215 81.8477 21.6953 81.9586 22.392C81.9617 23.0713 82.025 23.6155 81.1149 23.5477C79.0531 23.3941 78.4766 25.1695 76.4188 25.7712C74.831 25.1997 74.3178 24.1883 72.8772 23.5719C72.6306 23.4663 71.6963 23.5679 71.2407 23.4665C70.7146 22.6307 71.3689 20.2891 71.9024 19.5137Z" fill="#65676C"/>
<path d="M32.3538 45.1127C33.3754 45.1128 34.397 45.1073 35.4185 45.096C35.6037 48.8693 36.8391 51.8456 37.4821 55.3758C37.6713 54.1253 38.0277 52.8569 38.3286 51.6196C38.7093 50.0539 39.0549 48.3918 39.4928 46.8537C39.3002 46.2974 39.1455 45.7227 38.986 45.1556C40.1294 45.0799 41.3141 45.1042 42.4634 45.1107C43.1722 47.7512 43.6792 50.4793 44.3477 53.1331C44.5302 53.8576 44.7553 54.5491 44.9252 55.2808C45.1187 52.6919 46.2465 49.8824 46.5301 47.2676C46.6068 46.5606 46.6605 45.8526 46.7114 45.1443C47.882 45.0677 49.3142 45.1039 50.5066 45.1065L49.364 49.3261C48.8962 51.0796 48.4188 52.8306 47.9316 54.5789C47.28 56.8691 46.5534 58.2838 46.6375 60.7053C45.4571 60.645 44.2213 60.6786 43.0351 60.6936C42.6845 57.8067 41.3902 54.0623 41.079 51.2994C40.294 54.38 39.4997 57.6656 38.6844 60.7067C37.5524 60.6341 36.1428 60.6631 35.0067 60.7028C35.0805 60.3966 35.2227 59.7349 35.1607 59.444C34.8606 58.0377 34.4099 56.5973 34.0461 55.206L31.3906 45.1599L32.3538 45.1127Z" fill="#D8DADD"/>
<path d="M64.2721 25.9297C64.4432 25.9915 65.1041 26.4272 65.3032 26.5525C66.0867 27.0455 66.7428 27.4541 67.6067 27.7993C72.586 29.7895 78.8906 29.9201 83.9985 28.2933C84.968 27.9904 85.9039 27.5902 86.793 27.0989C87.0516 26.9572 88.5828 26.0218 88.6735 26.0125L88.7477 26.1302C88.7633 28.33 87.1344 28.561 85.8875 29.9372L85.861 29.967C86.6836 30.0308 87.2 30.157 88.0852 30.1673C87.1696 31.8423 85.8571 32.8805 84.0797 33.5655C83.8555 33.3741 83.5438 33.0473 83.325 32.832C83.2906 32.787 83.2031 32.7287 83.1531 32.6916C82.9149 32.7206 82.7078 32.9684 82.5266 33.1446C82.8539 33.773 83.118 34.592 83.3586 35.2706C82.2617 36.056 81.0125 36.603 79.6914 36.8766C78.5196 35.1341 78.7375 33.4287 75.6183 33.9637C74.1953 34.2019 74.0783 35.4945 73.4565 36.4844C72.8289 37.4836 70.3021 35.6991 69.6662 35.1917C69.8428 34.3556 70.0641 33.9644 70.4125 33.1952L69.8044 32.5716C69.4269 33.0116 69.1572 33.2609 68.688 33.5903C66.8849 32.898 65.831 31.8198 64.8848 30.2075C65.4961 30.1698 66.3289 30.0406 66.9521 29.9627C65.7766 28.6458 63.9487 28.008 64.2721 25.9297Z" fill="#D8DADD"/>
<path d="M71.7109 30.6475C72.6455 30.5715 74.8554 30.8598 76.0569 30.8836C77.7784 30.9176 79.8936 30.5894 81.4631 30.6724C81.1155 31.0171 80.9186 31.1753 80.5334 31.4689C78.167 33.0391 74.1552 32.8844 71.9447 31.1073C71.7219 30.9283 71.7318 30.9137 71.7109 30.6475Z" fill="#65676C"/>
<path d="M76.1294 44.7773C77.4723 44.6982 80.6033 45.1205 81.9345 45.4259C81.9595 46.5962 81.9595 47.767 81.9353 48.9373C80.3134 48.533 78.3626 47.8697 76.6832 47.7925C76.0486 47.7633 75.8025 48.1284 75.3796 48.5667C75.3536 49.9416 75.344 51.3168 75.3511 52.6919C75.35 54.0943 75.1101 56.2012 76.4632 57.0722C78.2064 58.1944 80.454 57.5042 82.3361 57.1767C81.9962 58.3116 81.8923 59.6193 81.6001 60.8201C78.6033 61.0745 75.3858 61.3124 73.1531 58.8638C71.4021 56.9433 71.6301 54.5339 71.6396 52.1311C71.645 50.7365 71.6466 49.3629 71.7165 47.9638C72.6658 46.5252 74.5241 45.358 76.1294 44.7773Z" fill="#D8DADD"/>
<path d="M64.7978 48.6445C66.293 48.7409 68.0411 49.6159 69.2065 50.5551L69.1359 60.6399C67.9096 60.6306 66.6834 60.6418 65.4576 60.6735C65.3832 57.964 65.4495 55.0343 65.4384 52.3047C63.8641 51.3302 63.2744 51.4304 62.5077 53.2189C62.3664 55.299 62.5109 58.4548 62.4831 60.6927C61.3192 60.6448 60.068 60.6587 58.9044 60.6878L58.8988 54.7006C58.8957 53.0031 58.9109 50.9441 58.6484 49.258C59.9753 49.1362 60.8667 48.8916 62.3321 48.8429C62.3491 49.6021 62.366 50.3285 62.3461 51.0893C63.1148 50.19 63.8505 49.3607 64.7978 48.6445Z" fill="#D8DADD"/>
<path d="M95.5341 48.7305C97.6028 48.851 101.126 49.9791 103.036 50.8025C103.036 52.7261 103.024 54.6857 103.097 56.6045C103.147 57.9694 103.346 59.3196 103.365 60.6959C102.228 60.635 101.072 60.6702 99.9333 60.6877C99.8341 60.1295 99.8013 59.0981 99.8067 58.5209C98.8942 59.3516 98.988 59.8541 97.6231 60.7675C94.5059 61.8363 93.3161 58.6652 93.6364 56.1098C94.8333 54.7576 97.7145 54.5202 99.1122 53.7308C101.579 52.3382 94.3974 51.9054 93.7622 51.8666C94.2497 50.7805 95.0973 49.7509 95.5341 48.7305Z" fill="#D8DADD"/>
<path d="M99.3773 55.4668L99.507 55.488C99.8789 56.09 98.8578 58.4427 97.5102 58.1218C97.1891 57.6437 97.1141 57.0024 97.0234 56.4408C97.8031 56.1035 98.5875 55.7788 99.3773 55.4668Z" fill="#65676C"/>
<path d="M110.085 44.3156C111.143 44.2992 112.087 44.4635 113.123 44.6315L113.103 47.9063C112.02 47.4982 111.568 47.3897 110.419 47.2464C110.373 47.8328 110.39 48.7076 110.384 49.3157L112.981 49.3103L112.987 52.0931L110.385 52.108C110.41 54.7653 110.38 57.4724 110.377 60.1338C110.362 60.4314 110.409 60.4371 110.264 60.6439C109.619 60.7374 107.541 60.6521 106.652 60.6887L106.653 52.1244C106.108 52.1113 105.548 52.1128 105 52.1078C105.108 51.5348 105.198 49.9618 105.251 49.3136L106.64 49.3003C106.637 48.5108 106.64 47.7214 106.648 46.932C107.418 45.8177 108.83 44.8106 110.085 44.3156Z" fill="#D8DADD"/>
<path d="M119.233 46.6777L119.325 46.7505C119.352 47.532 119.332 48.2145 119.306 48.9922L122.018 48.9739L122.037 51.7017C121.137 51.7288 120.193 51.7255 119.29 51.7355L119.295 57.0944C119.506 57.2829 119.732 57.5095 119.939 57.7073C120.64 57.5881 121.503 57.3565 122.181 57.1458C121.998 58.3238 121.809 59.6434 121.505 60.7872L120.575 60.8237C119.128 60.8768 117.718 60.7124 116.688 59.5735C116.283 59.1308 115.989 58.5977 115.83 58.0184C115.487 56.7726 115.629 53.1486 115.703 51.7712L114.384 51.7737C114.356 50.9716 114.372 50.1084 114.371 49.3016L115.688 49.193L115.701 47.1128C116.866 46.9473 118.06 46.8288 119.233 46.6777Z" fill="#D8DADD"/>
<path d="M87.1531 48.8611L87.8477 48.8411C87.8742 49.8028 87.8961 50.7647 87.9125 51.7267C88.557 50.4301 88.9508 49.9088 89.9141 48.8393C90.6969 48.8283 91.4789 48.8828 92.2523 49.0021C92.3023 50.2947 92.2656 51.6987 92.2477 52.9983C91.7703 52.8056 90.143 52.3495 89.675 52.3705C88.3047 52.4321 87.9797 55.1656 87.9758 56.038L87.9641 60.6731C86.8148 60.6221 85.5094 60.6694 84.3469 60.689C84.218 58.5068 84.5422 50.6998 84.0234 49.3424C85.1336 49.0751 86.0148 48.9596 87.1531 48.8611Z" fill="#D8DADD"/>
<path d="M55.3309 48.8613C55.5476 48.8396 55.7056 48.8004 55.8976 48.9067C55.9737 49.2578 55.9349 51.6956 55.9348 52.228L55.93 60.6589C54.8913 60.6335 53.7618 60.6642 52.7159 60.6748C52.4834 60.6885 52.5514 60.7164 52.3712 60.6157C52.31 60.2208 52.3438 57.8078 52.3459 57.296C52.3572 54.4894 52.4031 52.1057 52.125 49.3119C53.0526 49.1258 54.3949 48.9515 55.3309 48.8613Z" fill="#D8DADD"/>
<path d="M56.25 8.07227C56.8609 8.25031 57.6139 8.83734 58.0853 9.26125C60.277 11.232 61.3614 14.9287 61.4485 17.8019C59.8131 16.6623 59.8642 16.0591 58.9224 14.4365C57.3264 15.1552 57.789 15.4167 58.339 16.8972C58.4921 17.3091 58.7999 17.7285 59.0647 18.076C59.5821 18.6307 59.8425 18.9824 60.5712 19.2358C60.5413 19.8977 60.4732 20.5733 60.4142 21.2346C57.4448 19.0871 56.5144 16.1361 56.7826 12.5633C57.1839 12.5834 58.3617 12.8045 58.581 12.6605C58.3194 11.8214 56.9115 11.0167 56.2966 10.4647C55.7404 9.96547 56.0587 8.70141 56.25 8.07227Z" fill="#D8DADD"/>
<path d="M93.3469 67.0266C94.8406 66.9817 96.086 68.1612 96.1211 69.6552C96.1571 71.1493 94.9703 72.3869 93.4758 72.4133C91.9946 72.4394 90.7703 71.2648 90.7352 69.7839C90.6992 68.3029 91.8664 67.0712 93.3469 67.0266Z" fill="#D8DADD"/>
<path d="M92.9079 68.0359C93.8298 67.754 94.8056 68.271 95.0892 69.1916C95.3736 70.1123 94.8587 71.0892 93.9392 71.3755C93.0157 71.6627 92.0345 71.1459 91.7501 70.2222C91.465 69.2984 91.9837 68.3188 92.9079 68.0359Z" fill="#65676C"/>
<path d="M96.7751 8.03906C96.9806 8.36234 96.9571 9.90172 96.9516 10.3111C95.6993 11.1686 95.0415 11.6462 94.2673 12.9287C95.0712 12.6551 95.4251 12.6272 96.2579 12.591C96.2845 13.5029 96.2509 14.4155 96.1587 15.323C95.504 15.0612 94.7485 14.779 94.1251 14.4667C93.7243 15.0504 93.536 15.4559 93.2267 16.1C92.7892 16.9359 92.404 17.1673 91.6478 17.6689C91.6024 16.4109 91.7735 15.2473 92.1517 14.0443C93.0501 11.1827 94.1485 9.46305 96.7751 8.03906Z" fill="#D8DADD"/>
<path d="M83.862 67.1367C84.1448 67.1895 86.2737 70.1476 86.7245 70.6541C86.6886 69.5321 86.7159 68.3109 86.7222 67.1811C87.0659 67.1908 87.4409 67.1827 87.7878 67.1823C87.7683 68.2598 87.7605 69.3376 87.7644 70.4152C87.7644 70.9493 87.8089 71.7662 87.7237 72.2548C87.5159 72.3711 87.2667 72.332 87.0159 72.3256C86.748 72.2687 86.662 72.194 86.4948 71.9815C85.6394 70.8993 84.8722 69.7484 84.0175 68.6658C84.1925 69.7507 84.1183 71.2224 84.0972 72.3422L83.1214 72.2495C83.1214 71.173 83.0519 68.2391 83.2472 67.323C83.48 67.1296 83.5089 67.1837 83.862 67.1367Z" fill="#D8DADD"/>
<path d="M66.2058 67.0645C66.3077 67.0676 66.412 67.0737 66.5076 67.1129C67.2205 67.4045 68.6734 71.4319 69.0622 72.4031L68.0073 72.2473C67.7905 71.3361 67.7797 71.2386 66.8205 71.2484L65.3279 71.2729C65.1102 71.9407 64.8834 72.5755 63.9902 72.3014C63.8674 71.8924 65.7103 67.5588 66.2058 67.0645Z" fill="#D8DADD"/>
<path d="M66.3423 68.5547C66.6762 68.7899 67.1687 69.919 67.0187 70.2982L66.7366 70.3224L65.6797 70.3108C66.0249 69.6156 66.1297 69.2875 66.3423 68.5547Z" fill="#65676C"/>
<path d="M73.3152 67.0429C74.3708 66.9518 74.6588 67.1232 75.5647 67.6261L75.0467 68.4165C73.8692 67.8108 73.5038 67.5963 72.6226 68.6301C73.5438 69.2828 74.3989 69.146 75.2919 69.7737C76.0322 70.2941 76.0298 70.9709 75.499 71.6446C74.9781 72.3057 74.4626 72.3354 73.6906 72.4265C72.7062 72.3144 72.337 72.1231 71.5625 71.5765L72.0981 70.7667C72.8538 71.2621 73.9684 71.9663 74.7631 71.0515C74.8687 70.93 74.8259 70.8625 74.7981 70.7205C74.4701 70.3372 73.747 70.1597 73.2652 70.0302C71.1066 69.4504 71.3623 67.805 73.3152 67.0429Z" fill="#D8DADD"/>
<path d="M94.6169 16.7109C95.8302 16.7175 96.9739 17.5914 97.3825 18.7272C98.4364 21.6554 95.7231 24.4442 92.7185 23.046C92.5825 22.9694 92.5146 22.8856 92.4036 22.774C92.263 22.4589 92.3216 22.0811 92.3427 21.7302C92.9153 22.029 93.5849 22.4291 94.2271 22.4461C94.8349 22.4656 95.4239 22.2383 95.8614 21.8159C97.0966 20.6273 96.8208 18.4757 95.1708 17.8107C94.9474 17.7209 94.556 17.7198 94.4067 17.5672C94.4239 17.2056 94.4935 17.0552 94.6169 16.7109Z" fill="#D8DADD"/>
<path d="M55.4152 44.5648C55.6511 44.5445 55.6471 44.5083 55.8427 44.6048C56.0488 45.0125 55.95 46.775 55.9444 47.3701C54.9727 47.4429 53.5898 47.7016 52.5963 47.8604L52.4712 47.8609C52.2759 47.6062 52.1244 45.486 52.0781 45.0283C53.239 44.8386 54.2452 44.6779 55.4152 44.5648Z" fill="#D8DADD"/>
<path d="M59.5076 66.9766C60.2641 66.9769 60.7303 67.302 61.3324 67.6948C61.1713 67.931 61.0035 68.2136 60.8496 68.4589C56.8587 66.0644 56.9117 73.3836 60.8821 70.996C61.4609 71.8955 61.0141 72.1792 60.0631 72.3826C59.4076 72.5262 58.722 72.3972 58.1635 72.0252C55.8753 70.5144 56.7154 67.5342 59.5076 66.9766Z" fill="#D8DADD"/>
<path d="M67.2724 22.3066C67.9116 22.8517 68.458 25.5891 68.5813 26.4096C68.3458 26.304 68.1002 26.222 67.8567 26.1356C67.2364 25.8993 66.7097 25.6119 66.125 25.3052C66.3048 24.0766 66.641 23.3638 67.2724 22.3066Z" fill="#D8DADD"/>
<path d="M85.532 22.4531C86.232 22.6892 86.6719 24.5682 86.7445 25.2779C86.3609 25.5868 85.8734 25.8276 85.4195 26.0141C84.9961 26.1656 84.6781 26.317 84.2734 26.5081C84.6773 24.9614 84.9203 23.9605 85.532 22.4531Z" fill="#D8DADD"/>
<path d="M78.917 67.1878C79.1732 67.1818 79.4943 67.1423 79.699 67.2757C79.8584 67.7124 79.7771 71.595 79.7763 72.3042C79.4615 72.3033 79.3256 72.3039 79.0177 72.2463C78.7787 71.9867 78.9107 67.8507 78.917 67.1878Z" fill="#D8DADD"/>
</g>
<defs>
<clipPath id="clip0_8042_134119">
<rect width="155" height="80" fill="white"/>
</clipPath>
</defs>
</svg>
