<svg width="174" height="31" viewBox="0 0 174 31" fill="none" xmlns="http://www.w3.org/2000/svg">
<g clip-path="url(#clip0_8042_133981)">
<path d="M86.7664 0.181484C86.8862 0.177336 87.0067 0.174292 87.1273 0.17235C92.3822 0.101048 97.6864 0.216873 102.944 0.166397C104.561 0.150869 106.356 0.0841782 107.914 0.374746C111.249 0.996501 113.745 4.30177 113.629 7.66047C113.591 11.1876 112.09 13.1326 109.746 15.5205C112.184 18.7555 111.422 23.0067 109.099 26.0198C108.295 27.062 107.516 27.6985 106.563 28.569C102.266 31.4192 100.324 30.871 95.4236 30.8692L85.3621 30.8617C85.9853 28.1331 86.6204 24.734 87.1222 21.9668C85.7942 21.9694 83.7545 22.0244 82.4844 21.9209C83.1075 19.1944 83.6463 16.1761 84.1682 13.419C84.9885 8.99757 85.8545 4.58484 86.7664 0.181484ZM89.1956 23.7736C92.0095 23.7976 94.8233 23.8065 97.638 23.8002C99.4745 23.8013 101.945 24.1839 103.295 22.8634C104.117 22.0589 104.473 20.5584 103.639 19.632C103.057 19.0139 101.889 19.0311 101.075 19.0343L99.472 19.0486C97.7857 19.0501 95.5501 19.1155 93.9072 19.0178C94.1916 18.2041 94.454 16.5863 94.6357 15.6751C94.8675 14.5109 95.2292 13.1069 95.3922 11.964C97.2194 11.9379 99.0458 11.9352 100.873 11.9558C102.327 11.9601 104.509 12.2474 105.565 11.0772C106.018 10.5745 106.491 9.7983 106.472 9.10271C106.458 8.56875 106.232 8.06232 105.844 7.69497C105.574 7.44281 105.065 7.24523 104.693 7.24317C100.669 7.22085 96.4603 7.07456 92.4459 7.22852C91.7709 11.5859 90.628 16.0291 89.88 20.3916C89.6864 21.5186 89.4656 22.663 89.1956 23.7736Z" fill="#D8DADD"/>
<path d="M117.254 0.156768C120.191 0.0170992 124.089 0.140086 127.089 0.135747C132.569 0.127822 138.14 0.0884211 143.614 0.151614C143.168 2.51274 142.694 4.81846 142.263 7.19458L130.077 7.1911C127.785 7.19097 125.244 7.13979 122.969 7.22915C122.871 7.53615 122.077 11.5679 122.047 11.936C126.917 12.0435 132.063 11.7979 136.895 11.9742C136.813 12.9054 136.511 14.102 136.32 15.0578C136.072 16.2926 135.876 17.8558 135.536 19.0407C134.018 19.0906 132.266 19.0485 130.734 19.0487L121.488 19.0495C121.202 19.0582 120.984 19.0489 120.717 19.1646C120.371 19.953 119.917 22.8049 119.761 23.7861L132.862 23.7894C134.814 23.7897 137.053 23.7407 138.977 23.8197C138.625 26.0987 138.069 28.5737 137.646 30.8839C129.001 30.6633 119.956 31.0893 111.328 30.841C111.688 28.0552 112.543 24.5048 113.081 21.6618L117.254 0.156768Z" fill="#D8DADD"/>
<path d="M40.6309 0.158694C43.4016 0.0234381 47.1512 0.135146 49.9821 0.13503L66.9553 0.146474C66.9254 0.535531 66.8607 0.897179 66.7713 1.27613C66.3112 3.22542 66.0934 5.25442 65.5889 7.18941C59.2767 7.34618 52.6953 7.06548 46.3432 7.2184C46.0179 8.45157 45.6387 10.6512 45.409 11.9474C49.1866 11.8873 52.9885 11.9824 56.7683 11.9435C57.9326 11.9316 59.1256 11.9329 60.2884 11.9742C60.0197 13.9026 59.3226 17.0977 58.9129 19.0406C54.5531 19.1753 49.3336 19.049 44.9125 19.0498L44.0233 19.1076C43.686 20.4222 43.3805 22.3893 43.1195 23.769C44.7169 23.8358 46.6757 23.7922 48.2967 23.7917L57.5416 23.7889C59.0542 23.7888 60.8757 23.7423 62.3685 23.8233C61.9807 26.142 61.4607 28.4788 61.049 30.817C58.0009 30.8998 54.5755 30.823 51.5024 30.8233L34.7031 30.8138C35.1396 27.8702 35.9438 24.344 36.5159 21.3804L40.6309 0.158694Z" fill="#D8DADD"/>
<path d="M68.386 0.166772C70.2849 0.0479348 73.5252 0.12088 75.4747 0.157003C73.9931 7.9214 72.4924 16.0721 70.8574 23.7813C75.4246 23.8723 80.3059 23.6467 84.8246 23.8197C84.4871 25.7213 83.8802 29.0526 83.4135 30.8734C82.6334 30.8992 81.7962 30.8798 81.0131 30.8716C74.8306 30.8071 68.6337 30.9338 62.4531 30.8521C62.5464 30.0975 62.759 29.313 62.9049 28.5572L63.9796 22.9985L68.386 0.166772Z" fill="#D8DADD"/>
<path d="M31.8411 0.151342C33.8249 0.104737 36.9752 0.0593964 38.9237 0.159809L35.532 17.7383C34.7052 21.9288 33.6778 26.648 32.9858 30.8266L28.355 30.8293C27.7639 30.8289 26.4756 30.8549 25.9437 30.8013C26.4934 27.7257 27.0759 24.6561 27.6909 21.5929C27.973 20.1228 28.3414 18.603 28.5255 17.1196C26.274 20.4229 23.7538 23.6965 21.4752 26.9941C20.6014 28.2588 19.6081 29.5338 18.7749 30.8184C17.347 30.8206 15.6429 30.8658 14.237 30.8113C13.8499 29.0899 12.5653 25.5276 11.9822 23.73L10.7019 19.7853C10.4277 18.9429 10.1337 17.9007 9.73788 17.1302C9.48001 18.9162 9.09411 20.6019 8.75176 22.361L7.16019 30.8175C5.92139 30.8223 0.937923 31.0049 0 30.7691V30.6764C0.291627 30.0949 1.0928 25.339 1.28764 24.3481L4.44781 8.28402L5.43942 3.17685C5.61503 2.23449 5.7877 1.05921 6.00021 0.145018C8.1141 0.13414 11.0095 0.0578966 13.1012 0.150779C14.7839 5.89753 16.6181 11.6174 18.3444 17.3525C18.4873 17.8272 18.6711 18.3769 18.8548 18.8384C21.9354 14.6196 25.1241 9.82668 28.1181 5.50168L30.5513 1.98426C30.891 1.49315 31.4861 0.577465 31.8411 0.151342Z" fill="#D8DADD"/>
<path d="M145.324 0.151332C146.948 0.0880053 148.898 0.137652 150.557 0.137611L160.444 0.138349L168.877 0.135985C170.486 0.135182 172.309 0.0892615 173.889 0.174573V0.282025C173.573 0.828016 172.692 6.12128 172.503 7.17273C169.068 7.34183 165.219 7.08019 161.703 7.23326C161.389 9.58673 160.492 13.6961 159.99 16.1254C159.001 20.9191 158.192 26.1521 157.107 30.8791C154.775 30.8311 152.424 30.9133 150.087 30.8372C150.88 26.2239 151.922 21.4743 152.799 16.859L153.923 11.0316C154.157 9.78683 154.352 8.41182 154.702 7.20602C151.212 7.12003 147.374 7.32588 143.938 7.16591C144.325 4.98423 144.825 2.27172 145.324 0.151332Z" fill="#D8DADD"/>
</g>
<defs>
<clipPath id="clip0_8042_133981">
<rect width="173.891" height="31" fill="white"/>
</clipPath>
</defs>
</svg>
