<svg width="178" height="55" viewBox="0 0 178 55" fill="none" xmlns="http://www.w3.org/2000/svg">
<g clip-path="url(#clip0_8042_134154)">
<path d="M90.2693 0H130.102C130.653 0.176448 131.94 0.174594 132.574 0.23189C136.801 0.613921 141.071 1.24257 145.123 2.51707C144.895 3.79397 144.839 6.31178 145.212 7.56405C145.607 8.93224 146.534 10.085 147.785 10.7647C148.381 11.0813 149.026 11.2939 149.693 11.3931C151.059 11.6069 155.492 11.5613 156.851 11.1612C157.715 13.1995 157.774 14.4798 157.828 16.6487C158.298 35.3598 128.217 34.0685 115.898 34.0668L98.5914 34.0706L92.9767 26.2459C92.1628 25.1093 91.2247 23.8876 90.529 22.6877C90.2345 22.1792 90.2667 20.4931 90.2667 19.8739C90.2667 17.9662 90.2667 16.0532 90.2667 14.1435L90.2693 0ZM110.665 24.156L116.942 24.1553C121.7 24.1623 128.59 24.2251 132.708 21.5604C134.044 20.6022 134.994 19.5425 135.258 17.859C136.086 12.5732 130.863 10.9147 126.73 10.2556C121.735 9.45896 116.635 9.91017 111.594 9.80364C111.291 9.79721 110.96 9.82085 110.662 9.7953L110.665 24.156Z" fill="#D8DADD"/>
<path d="M41.3125 0H71.4927C72.3156 1.25569 73.4818 2.80046 74.3705 4.04199L79.8732 11.727L95.8902 34.0855C93.6649 33.9473 90.0931 34.0636 87.7887 34.0639L71.8267 34.067C70.8833 32.7641 69.6936 30.7592 68.803 29.359C65.3454 29.3029 61.7784 29.3458 58.3141 29.3453L43.2894 29.3625C42.2921 30.9243 41.3049 32.4925 40.328 34.0671L18.375 34.0741L41.3125 0ZM49.2582 19.8709C51.4705 19.8441 53.6829 19.8396 55.8952 19.8576C58.0294 19.8572 60.5389 19.7971 62.647 19.8608L57.9187 12.5509C57.667 12.1604 56.0799 9.65515 55.868 9.43445C53.7426 12.7184 51.2371 16.5234 49.2582 19.8709Z" fill="#D8DADD"/>
<path d="M104.982 39.625L111.751 39.628C111.684 40.6193 111.449 41.8413 111.289 42.8392L110.508 47.7759C110.329 48.8927 109.554 54.3176 109.239 55H102.833C102.396 54.7263 100.436 52.3076 100.006 51.7947L95.5233 46.4796C95.4538 47.7919 95.0577 49.5163 94.8849 50.8486C94.7798 51.6582 94.4289 54.4834 94.0432 55H87.5816C87.4783 54.3594 89.6854 40.6648 89.9547 39.6255L94.6816 39.6241C95.4034 39.6249 96.6664 39.5962 97.3561 39.6683C99.3434 41.7345 101.889 45.1353 103.859 47.4169C104.095 44.8982 104.764 42.1336 104.982 39.625Z" fill="#9EA2A9"/>
<path d="M52.256 54.9998C49.9542 54.3726 47.7761 53.758 46.4898 51.5048C45.4658 49.7111 45.5333 47.4942 46.0283 45.5528C47.1488 41.0908 51.5832 39.6189 55.6746 39.4245C58.4943 39.2906 61.495 39.2701 64.2278 40.0638C67.3411 40.9682 68.6005 42.1854 68.8842 45.3655C66.739 45.3615 64.0924 45.4309 61.9978 45.3424C61.4153 44.4525 60.8667 44.0702 59.8144 43.866C56.7948 43.2803 52.6455 43.9218 52.7126 47.8397C52.7806 51.8102 59.3996 51.5782 61.358 49.3435C59.9719 49.3175 58.0942 49.2439 56.7221 49.3121C56.8644 48.5031 57.0951 47.1071 57.1518 46.3046C60.8184 46.3011 65.2029 46.4211 68.8029 46.2904C68.6245 47.3848 67.5708 54.5606 67.3044 54.9998H63.3607C63.2322 54.7716 62.8765 53.5125 62.6928 53.0614C61.4519 54.1947 60.1295 54.5394 58.5789 54.9998H52.256Z" fill="#9EA2A9"/>
<path d="M118.682 55.0008C116.328 54.4333 113.866 53.8573 112.501 51.6266C111.429 49.9097 111.469 47.4914 111.901 45.5641C112.871 41.2411 117.293 39.6839 121.345 39.4444C125.072 39.2239 131.486 39.1113 133.939 42.7682C134.583 43.7297 134.596 44.8731 134.523 45.9904L127.661 45.9928C127.375 45.2132 126.984 44.6568 126.181 44.3197C124.618 43.6834 122.573 43.7623 120.995 44.2515C119.089 44.8428 118.179 47.023 118.819 48.8245C119.575 50.9572 123.551 50.8735 125.241 50.2139C126.28 49.8086 126.753 49.2226 127.3 48.3297L134.144 48.3205C133.361 52.3316 131.385 53.8196 127.524 54.7347C127.212 54.8088 126.74 54.9058 126.442 55.0008H118.682Z" fill="#9EA2A9"/>
<path d="M31.9049 39.6247C34.905 39.6264 38.2009 39.5567 41.1746 39.6347L44.5801 49.3265C45.1743 51.0232 46.0539 53.3218 46.5346 54.9992H39.1964C38.9295 54.3907 38.6446 53.3854 38.4636 52.7461L30.583 52.7479C30.2821 53.2787 29.5601 54.6509 29.1345 54.9992H22.4766C23.34 53.3624 24.8486 51.0607 25.8529 49.4285L31.9049 39.6247ZM34.6146 48.5463L37.1886 48.549C36.9848 47.9034 35.9513 44.2753 35.7435 43.9598C34.9081 45.2743 33.7997 47.1506 33.0485 48.5342L34.6146 48.5463Z" fill="#9EA2A9"/>
<path d="M71.3072 39.6192L82.3003 39.6285C84.2817 39.628 86.548 39.68 88.4978 39.6191C88.3354 40.7532 87.9393 42.7359 87.8568 43.7448C84.5644 43.6046 80.6821 43.7341 77.3322 43.7142L77.062 45.2264C80.2533 45.2129 84.3885 45.3404 87.5024 45.1992C87.3165 46.2448 86.9674 48.1118 86.8996 49.1402C83.4348 49.0388 79.8396 49.2164 76.4259 49.1128C76.3488 49.6453 76.2719 50.2809 76.1781 50.8025L83.1257 50.8153C84.072 50.8151 86.0123 50.8663 86.8593 50.7675C86.7332 51.5342 86.3796 54.5189 86.0848 55H68.9219C69.0583 53.2403 69.5272 50.712 69.8113 48.9385L71.3072 39.6192Z" fill="#9EA2A9"/>
<path d="M148.752 39.6309C150.891 39.6318 154.14 39.7269 156.192 39.5996C153.961 41.8781 151.713 44.139 149.448 46.3822C148.665 47.166 147.071 48.6674 146.41 49.4567C146.252 50.48 145.785 54.3496 145.399 55H138.904C138.809 53.9976 139.49 50.6051 139.655 49.3803C138.985 48.2809 138.013 46.9658 137.261 45.8921L132.875 39.612C135.35 39.6549 138.008 39.5563 140.438 39.649C141.622 41.227 142.652 42.9627 143.81 44.5552C144.433 43.8097 148.049 40.1477 148.752 39.6309Z" fill="#9EA2A9"/>
<path d="M149.076 0H156.755C159.57 1.64228 159.708 3.66347 159.297 6.69687C159.159 7.71974 158.303 8.81799 157.432 9.35461C156.934 9.65654 156.386 9.86446 155.813 9.96795C154.416 10.2307 151.211 10.1696 149.795 9.91243C146.542 9.32176 146.014 5.66784 146.597 2.97414C146.917 1.5011 147.898 0.718811 149.076 0Z" fill="#9EA2A9"/>
</g>
<defs>
<clipPath id="clip0_8042_134154">
<rect width="177.891" height="55" fill="white"/>
</clipPath>
</defs>
</svg>
