<svg width="1440" height="648" viewBox="0 0 1440 648" fill="none" xmlns="http://www.w3.org/2000/svg">
<g clip-path="url(#clip0_5987_135103)">
<g clip-path="url(#clip1_5987_135103)">
<rect y="-40.9248" width="1440" height="988.654" fill="url(#paint0_linear_5987_135103)"/>
<path d="M329 -91.542L-36 120.62V-48.4196L329 -91.542Z" fill="url(#paint1_linear_5987_135103)" fill-opacity="0.07"/>
<path d="M-11 211.624L1451.5 -64.0791L1439.5 971.962L-11 962.269V211.624Z" fill="url(#paint2_linear_5987_135103)" fill-opacity="0.05"/>
<path d="M703 955.807L1509 372.091L1479.5 997.808L703 955.807Z" fill="url(#paint3_linear_5987_135103)" fill-opacity="0.05"/>
<path d="M1125 964.422L1473 513.173L1473 964.422L1125 964.422Z" fill="url(#paint4_linear_5987_135103)" fill-opacity="0.05"/>
</g>
</g>
<defs>
<linearGradient id="paint0_linear_5987_135103" x1="1.48031e-05" y1="-58.2207" x2="1524.51" y2="797.09" gradientUnits="userSpaceOnUse">
<stop stop-color="#393D45"/>
<stop offset="1" stop-color="#15161A"/>
</linearGradient>
<linearGradient id="paint1_linear_5987_135103" x1="92" y1="-74.3105" x2="37.9328" y2="140.923" gradientUnits="userSpaceOnUse">
<stop stop-color="#85A1B9"/>
<stop offset="1" stop-color="#495E70"/>
</linearGradient>
<linearGradient id="paint2_linear_5987_135103" x1="720" y1="57.0795" x2="820.74" y2="970.985" gradientUnits="userSpaceOnUse">
<stop stop-color="#85A1B9"/>
<stop offset="1" stop-color="#0C161D"/>
</linearGradient>
<linearGradient id="paint3_linear_5987_135103" x1="1149" y1="409.785" x2="1445.9" y2="990.975" gradientUnits="userSpaceOnUse">
<stop stop-color="#85A1B9"/>
<stop offset="1" stop-color="#495E70"/>
</linearGradient>
<linearGradient id="paint4_linear_5987_135103" x1="1187.5" y1="741.49" x2="1494.51" y2="952.851" gradientUnits="userSpaceOnUse">
<stop stop-color="#85A1B9"/>
<stop offset="1" stop-color="#1E3040"/>
</linearGradient>
<clipPath id="clip0_5987_135103">
<rect width="1440" height="906.805" fill="white"/>
</clipPath>
<clipPath id="clip1_5987_135103">
<rect width="1440" height="988.654" fill="white" transform="translate(0 -40.9248)"/>
</clipPath>
</defs>
</svg>
