<svg width="171" height="30" viewBox="0 0 171 30" fill="none" xmlns="http://www.w3.org/2000/svg">
<g clip-path="url(#clip0_8042_134037)">
<path d="M61.5155 4.13921C63.8342 3.97691 66.4578 4.02079 68.7568 4.63615C74.6729 6.21965 76.771 11.8925 75.3261 17.438C74.6477 20.0417 72.8467 21.908 70.4871 23.1917C66.425 25.2448 62.3381 24.3719 57.9392 24.5395C57.8495 17.8249 57.9354 10.9065 57.9382 4.17831C59.1307 4.18165 60.3233 4.16862 61.5155 4.13921ZM62.6178 20.1257C64.8563 20.1718 66.9678 20.2706 68.8135 18.7396C71.125 16.9685 71.4167 12.9923 69.6664 10.7343C67.9844 8.56431 65.5442 8.486 63.0499 8.5547C63.0012 8.56422 62.6817 8.61704 62.6808 8.6401C62.5424 12.26 62.6203 16.5416 62.6178 20.1257Z" fill="#9EA2A9"/>
<path d="M46.0766 4.13499C48.6001 3.92562 51.9427 4.44422 53.6879 6.4226C55.9723 9.01235 55.743 13.5193 53.1165 15.8188C50.7885 17.8571 48.3689 17.7768 45.5091 17.6293L45.5087 19.931L45.5002 24.5589C44.1674 24.4727 42.1492 24.4865 40.8047 24.5432L40.8099 4.17869C42.5656 4.18302 44.3212 4.16846 46.0766 4.13499ZM45.5084 8.61466L45.5101 13.1558C46.8164 13.2867 47.6979 13.4607 48.9492 13.0115C50.8117 11.9901 50.8106 9.31318 48.6426 8.68118C48.0994 8.52274 47.2946 8.51563 46.7245 8.56243L45.5084 8.61466Z" fill="#9EA2A9"/>
<path d="M84.6735 4.13083C89.0924 3.71902 93.487 6.02165 92.8859 11.0677C92.2164 16.6815 87.1413 17.1265 82.5994 16.7066L82.594 18.5367L82.6064 24.4931L80.0661 24.4908L80.0625 4.18427C81.531 4.18118 83.2261 4.21078 84.6735 4.13083ZM82.6122 14.3529C84.9357 14.4597 87.2899 14.8464 89.1166 13.2365C90.555 11.764 90.7036 9.1517 89.231 7.62849C87.982 6.33786 85.5985 6.47544 83.9205 6.50676L82.592 6.53642C82.5931 9.00763 82.5285 11.9107 82.6122 14.3529Z" fill="url(#paint0_linear_8042_134037)" fill-opacity="0.5"/>
<path d="M145.018 11.1491C145.394 11.1326 145.771 11.1402 146.146 11.1719C148.866 11.4219 150.939 13.1595 151.487 15.8757C151.686 16.8649 151.601 17.6936 151.509 18.6813C148.301 18.8207 144.67 18.6281 141.373 18.7239C142.079 21.7014 143.872 22.9141 147.049 22.5067C147.862 22.4023 148.513 22.0792 149.227 21.6837C149.389 21.5535 149.79 21.3196 149.982 21.2008C150.238 21.8155 150.478 22.4737 150.716 23.0983C148.2 25.2582 143.646 25.3923 141.051 23.2648C138.23 20.9528 138.063 16.0758 140.315 13.3236C141.486 11.8928 143.22 11.2949 145.018 11.1491ZM141.255 16.8039L145.891 16.8117L149.18 16.8036C148.723 14.2224 147.432 13.1642 144.773 13.3979C142.707 13.6954 141.773 14.8542 141.255 16.8039Z" fill="#D8DADD"/>
<path d="M98.4256 11.1505L98.6819 11.147C104.26 11.096 103.954 14.842 103.944 19.1607C103.935 20.9437 103.938 22.7267 103.951 24.5097C103.239 24.4731 102.405 24.4947 101.681 24.4983L101.682 22.8987C100.122 24.4549 98.0549 25.1942 95.8843 24.4372C95.0253 24.1411 94.3198 23.5149 93.9233 22.697C92.7286 20.3488 93.9333 17.3139 96.5672 16.7369C98.3037 16.3563 100.147 16.3951 101.714 17.2957C101.637 16.5071 101.578 15.4495 101.27 14.7422C100.152 12.1764 96.9045 13.4639 95.0996 14.2185L94.4918 12.3265C95.7917 11.5484 96.9196 11.2639 98.4256 11.1505ZM98.9942 22.5589C99.9183 22.3194 100.883 21.8952 101.407 21.042C101.769 20.4518 101.688 19.9702 101.672 19.2919C100.486 18.5681 100.142 18.4985 98.7854 18.424C97.8838 18.4879 97.1266 18.5665 96.4871 19.3052C96.144 19.6963 95.9712 20.2087 96.0079 20.7278C96.0463 21.237 96.2884 21.7093 96.6791 22.038C97.3854 22.6341 98.1343 22.6163 98.9942 22.5589Z" fill="#9EA2A9"/>
<path d="M130.883 11.2306C131.017 11.2108 131.151 11.1994 131.287 11.1966C137.018 11.1098 136.833 15.3215 136.821 19.6062C136.809 21.2424 136.812 22.8787 136.829 24.5148C136.105 24.4705 135.152 24.495 134.411 24.4951C134.381 21.8388 134.632 18.3782 134.216 15.7619C133.893 13.7293 131.449 13.0433 129.546 13.5991C128.36 13.9949 127.996 14.2416 127.11 15.0757C126.998 17.9925 127.078 21.549 127.098 24.504C126.482 24.4813 125.328 24.4551 124.752 24.5428L124.742 11.4405C125.524 11.4542 126.338 11.4396 127.122 11.4358L127.083 13.0082C128.208 11.8077 129.273 11.4299 130.883 11.2306Z" fill="#D8DADD"/>
<path d="M115.245 7.80648C115.936 7.86747 116.97 7.88584 117.654 7.78711L117.656 11.4421C119.264 11.4486 120.872 11.4469 122.48 11.4371C122.463 12.1586 122.475 12.9245 122.476 13.6496C120.945 13.5959 119.198 13.6365 117.651 13.6393C117.719 15.9306 117.475 18.3776 117.781 20.6343C118.003 22.2755 119.328 22.7127 120.785 22.403C121.255 22.2356 121.616 21.9941 122.036 21.7345C122.21 22.3753 122.523 22.9555 122.718 23.7052C121.678 24.4454 120.6 24.6855 119.36 24.7167C117.11 24.8042 115.678 23.4685 115.38 21.2539C115.14 19.472 115.253 17.5591 115.254 15.747C115.254 13.1067 115.203 10.4453 115.245 7.80648Z" fill="#9EA2A9"/>
<path d="M158.848 11.2249C159.705 11.0882 160.613 11.3277 161.403 11.6369C161.141 12.3865 160.823 13.1799 160.535 13.9235C159.859 13.5356 159.17 13.3368 158.387 13.4318C157.38 13.5498 156.526 14.2238 156.174 15.1756C155.752 16.3173 156.266 24.1359 155.969 24.5167L155.777 24.4987C155.085 24.4873 154.368 24.5014 153.673 24.5065L153.656 11.4376C154.446 11.4528 155.258 11.4369 156.051 11.4298L156.036 12.8906C157.004 11.746 157.301 11.4308 158.848 11.2249Z" fill="#D8DADD"/>
<path d="M111.925 11.2261C112.741 11.0854 113.662 11.332 114.412 11.6382C114.194 12.3361 113.855 13.2319 113.591 13.9196C111.577 12.8992 110.28 13.3412 109.12 15.234C109.088 16.1618 109.194 24.2723 109.03 24.4999L108.717 24.4898L106.77 24.4885L106.766 11.4416C107.546 11.4517 108.348 11.4405 109.131 11.4392L109.112 12.8951C109.194 12.7759 109.279 12.659 109.368 12.5445C110.099 11.6002 110.779 11.371 111.925 11.2261Z" fill="#9EA2A9"/>
<path d="M0 0H5.99917H20.0956C23.2921 0.651174 25.7148 1.84304 27.5741 4.64933C29.1204 6.96863 29.6878 9.80582 29.1528 12.5423C28.6364 15.0705 26.8864 18.0565 24.551 19.2801C23.5054 20.1356 21.6372 20.6545 20.3209 20.9016C19.8937 23.7491 18.3384 26.3044 16.0062 27.9903C14.4509 29.1167 12.9177 29.6207 11.0678 29.8983C10.911 29.9219 10.7411 29.9534 10.59 30H9.21261C7.68054 29.5625 7.29769 29.8549 5.35537 28.9335C2.8488 27.7674 0.918031 25.6386 0 23.029L0 0ZM5.26349 5.79933C5.16397 7.07957 5.17197 8.4854 5.19208 9.78017C5.24649 13.2849 5.04267 16.8445 5.29626 20.335C5.34175 20.9611 5.90859 22.0006 6.31623 22.4795C7.12763 23.44 8.28876 24.0363 9.54146 24.1357C12.1543 24.3334 14.4019 22.2236 14.5111 19.5786C14.5475 18.6968 14.3654 15.7717 14.6856 15.2628C15.0188 15.135 15.7433 15.1509 16.1234 15.1421C18.0233 15.0985 19.2606 15.3313 21.074 14.5826C21.3027 14.3577 21.7315 14.0692 22.0232 13.8142C23.8921 12.1803 24.0051 9.05916 22.1946 7.24634C21.5442 6.60368 20.7322 6.14904 19.8448 5.93055C18.8848 5.69565 17.0002 5.77426 15.9511 5.77704L10.9448 5.78304C9.18907 5.78194 6.9829 5.71778 5.26349 5.79933Z" fill="url(#paint1_linear_8042_134037)" fill-opacity="0.5"/>
<path d="M6 0H20.0964C23.2929 0.651174 25.7156 1.84304 27.5749 4.64933C29.1212 6.96863 29.6886 9.80582 29.1536 12.5423C28.6372 15.0705 26.8872 18.0565 24.5518 19.2801C24.4088 19.1347 24.3415 18.3364 24.0763 18.075C23.0894 17.1018 21.9721 15.7513 20.8475 14.9799L21.0749 14.5826C21.3035 14.3577 21.7323 14.0692 22.024 13.8142C23.8929 12.1803 24.0059 9.05916 22.1955 7.24634C21.5451 6.60368 20.7331 6.14904 19.8456 5.93055C18.8856 5.69565 17.0011 5.77426 15.9519 5.77704L10.9457 5.78304L10.9564 5.47854C10.7772 5.15337 10.2652 4.27031 10.0339 4.03257C9.18565 3.16043 6.78786 0.541916 6 0Z" fill="url(#paint2_linear_8042_134037)" fill-opacity="0.5"/>
<path d="M163.061 21.0609C163.13 21.129 163.202 21.1936 163.277 21.2546C164.375 22.155 165.636 22.7808 167.088 22.6743C167.886 22.6159 169.325 21.9606 169.163 21.0063C168.868 19.2697 166.284 19.0767 164.955 18.4847C164.318 18.2619 163.848 17.9558 163.303 17.5647C161.832 16.6319 161.67 13.7641 162.815 12.5358C164.815 10.3894 168.942 10.9229 170.973 12.5958V12.7755C170.631 13.4425 170.391 13.8508 169.959 14.4705C168.636 13.6036 166.26 12.2742 164.874 14.018C164.247 14.8059 164.741 15.7068 165.523 16.1146C167.289 17.1204 169.605 17.1307 170.973 18.7971V22.9771C168.866 25.6887 163.885 25.1582 161.695 22.7619C162.178 22.1844 162.498 21.6168 163.061 21.0609Z" fill="#D8DADD"/>
<path d="M25.3366 30.0001C19.8364 28.1115 22.9316 21.7607 27.0688 23.2169C27.9208 23.5229 28.6168 24.1547 29.0042 24.9737C29.4121 25.8319 29.4638 26.8168 29.148 27.7131C28.8402 28.5581 28.2099 29.2462 27.3955 29.6264C27.0818 29.773 26.7462 29.8904 26.4178 30.0001H25.3366Z" fill="#D8DADD"/>
</g>
<defs>
<linearGradient id="paint0_linear_8042_134037" x1="86.5019" y1="4.08398" x2="86.5019" y2="24.4931" gradientUnits="userSpaceOnUse">
<stop stop-color="#E7F9FA" stop-opacity="0.7"/>
<stop offset="1" stop-color="#EDF5F4" stop-opacity="0.5"/>
</linearGradient>
<linearGradient id="paint1_linear_8042_134037" x1="14.6747" y1="0" x2="14.6747" y2="30.0001" gradientUnits="userSpaceOnUse">
<stop stop-color="#E7F9FA" stop-opacity="0.7"/>
<stop offset="1" stop-color="#EDF5F4" stop-opacity="0.5"/>
</linearGradient>
<linearGradient id="paint2_linear_8042_134037" x1="17.6751" y1="0" x2="17.6751" y2="19.2801" gradientUnits="userSpaceOnUse">
<stop stop-color="#E7F9FA" stop-opacity="0.7"/>
<stop offset="1" stop-color="#EDF5F4" stop-opacity="0.5"/>
</linearGradient>
<clipPath id="clip0_8042_134037">
<rect width="170.977" height="30" fill="white"/>
</clipPath>
</defs>
</svg>
