<svg width="165" height="69" viewBox="0 0 165 69" fill="none" xmlns="http://www.w3.org/2000/svg">
<g clip-path="url(#clip0_8042_134061)">
<path d="M90.011 14.0428C94.5915 13.5473 103.06 14.4041 107.148 16.5545C113.21 19.7427 107.984 24.1611 104.088 26.0815C96.6865 29.7291 89.0654 31.1405 80.912 31.6446C75.7754 31.7135 66.1146 31.6199 62.1313 28.0436C61.3902 27.3783 60.8979 26.5562 60.8479 25.5457C60.7903 24.3822 61.3403 23.3462 62.1032 22.5038C66.1314 18.0564 77.2155 15.4777 82.9868 14.6448C85.3113 14.3094 87.6664 14.1552 90.011 14.0428ZM73.3159 28.0386C78.718 27.8313 83.9976 27.0849 89.357 26.3849C93.7281 25.8253 98.2055 25.4007 102.404 23.9882C103.838 23.5058 105.411 22.5605 106.478 21.4921C107.274 20.6953 107.516 19.6483 106.558 18.8597C104.346 17.0397 100.68 17.0332 97.9542 17.1045C94.0019 17.3389 90.1761 17.942 86.2665 18.5203C81.4718 19.2294 67.4512 21.1062 64.3019 24.6275C64.0715 24.8852 63.9027 25.1884 63.9329 25.5436C63.9686 25.9651 64.2738 26.3178 64.5919 26.5703C66.6581 28.2102 70.7621 28.0426 73.3159 28.0386Z" fill="#9EA2A9"/>
<path d="M54.8737 33.8288C55.4294 33.8268 55.985 33.8291 56.5405 33.8356C57.7391 33.8524 60.0473 33.7374 61.0745 34.4244C61.3199 34.5885 61.179 35.4022 61.1278 35.6876C60.9525 36.6665 60.8591 37.6368 60.7923 38.6317C62.1517 38.8401 63.7005 38.8166 65.0916 38.8278C65.181 38.196 65.2182 34.7703 65.6895 34.6952C67.2099 34.453 70.5331 34.439 71.9514 34.8427C71.9637 34.9111 71.9732 34.98 71.9799 35.0493C72.1221 36.5497 71.7238 38.1692 71.5921 39.6864C71.4452 41.3774 71.3024 43.0679 71.313 44.7933C71.3176 45.5429 71.3435 47.7175 70.996 48.3575C70.8201 48.6815 69.0736 48.702 68.6036 48.7208C67.5273 48.7676 66.3756 48.8387 65.3071 48.7418C64.5662 46.1573 64.9155 45.263 64.64 42.7364C62.9561 42.5685 62.1018 42.5556 60.4035 42.6249C60.3396 45.0039 60.5982 46.266 60.0918 48.6886C59.1398 48.7627 57.9743 48.5485 56.9956 48.5281C55.7136 48.5013 54.4279 48.4991 53.1457 48.4827C52.8355 44.7018 53.447 41.042 54.0889 37.3308C54.2258 36.539 54.2716 34.2738 54.8737 33.8288Z" fill="#D8DADD"/>
<path d="M99.3726 52.5216C100.487 52.4523 101.812 52.5038 102.946 52.5189C103.774 52.5784 104.957 52.4782 105.617 53.0551C105.871 53.3145 105.734 53.9866 105.673 54.302C105.481 55.2865 105.384 56.2059 105.343 57.2033C106.307 57.3661 108.609 57.3875 109.665 57.4225C109.71 56.5813 109.793 54.0099 110.094 53.3645C110.424 53.048 115.788 53.1239 116.273 53.4584C116.834 53.8455 116.234 57.766 116.076 58.4868C115.74 60.0181 116.095 65.8518 115.489 66.8434C114.989 67.1757 113.677 67.1208 113.031 67.1372C112.18 67.1825 110.633 67.569 109.921 67.1234C109.238 66.2791 109.296 62.5619 109.165 61.2443C107.58 61.0969 106.543 61.1316 104.958 61.1813C104.92 63.4677 105.115 64.8719 104.648 67.145C103.753 67.1837 102.287 67.0042 101.322 66.9856C100.154 66.9633 98.8136 67.0265 97.682 66.8908C97.2213 62.4585 98.5398 57.4509 99.0504 53.0219C99.0778 52.7782 99.2035 52.6713 99.3726 52.5216Z" fill="#D8DADD"/>
<path d="M70.4504 52.692L71.4895 52.6632C72.5817 52.6378 77.0898 52.494 78.2836 53.0714C78.5977 53.7365 78.5143 54.7482 78.694 55.4425C79.2864 57.7312 79.4796 60.0159 79.8375 62.3351C80.0847 63.9373 80.3228 65.1164 80.3434 66.7689C78.6376 67.224 75.494 67.6244 73.7829 67.213C73.4034 66.2363 72.9431 64.4863 72.7476 63.4662C72.5468 62.8978 70.8541 63.0876 70.2778 63.0963C70.0314 63.9043 69.6182 66.5699 69.3886 66.9029C68.7356 67.167 63.7242 66.6485 62.8203 66.5317C62.8652 63.0963 64.9698 56.2642 66.0533 53.0035C67.0947 52.8309 69.2893 52.7623 70.4504 52.692ZM70.6744 59.7861C71.1824 59.7586 71.4771 59.7489 71.9831 59.7862H72.2773C72.602 59.3397 72.2094 57.4334 71.7541 57.0307C71.5517 56.9694 71.4277 56.9277 71.2165 56.8998C71.065 57.7657 70.8884 58.96 70.6744 59.7861Z" fill="#D8DADD"/>
<path d="M80.5034 33.7798C80.6522 33.771 80.8012 33.764 80.9502 33.7587C83.7104 33.667 86.2314 35.7775 86.9974 38.3131C88.7524 44.1222 86.3965 48.7904 80.0949 48.9824C78.3087 48.9302 76.4519 48.6419 75.105 47.3772C71.9537 44.4182 72.839 38.8239 75.6436 35.9275C77.2422 34.2767 78.2268 33.8742 80.5034 33.7798ZM79.9619 39.7546C79.7989 40.617 79.6176 42.0226 80.1311 42.8139C80.4014 43.2305 80.7867 43.2329 81.2401 43.2506C82.1913 42.2082 82.0721 39.5077 80.4926 39.092L79.9619 39.7546Z" fill="#D8DADD"/>
<path d="M89.1519 52.4462C89.3911 52.4248 89.6303 52.4132 89.8704 52.4112C92.0611 52.376 95.659 53.2603 95.7017 56.0984C95.7081 56.5204 95.75 57.1599 95.4367 57.4761C94.7577 57.8511 90.5397 57.6209 89.6239 57.4056C89.6086 57.0334 89.6239 56.6718 89.3637 56.3921C89.1898 56.2033 88.9457 56.0958 88.6888 56.0959C88.4294 56.0978 88.1822 56.205 88.0034 56.393C87.8511 56.5551 87.7706 56.7718 87.7803 56.994C87.8326 58.4185 92.0088 58.9157 93.1775 59.4162C95.6405 60.3036 97.1322 62.3947 95.0413 64.6664C93.3482 66.5054 90.5284 67.2574 88.1314 67.3559C84.7985 67.4957 80.7295 66.4928 81.6525 62.2533C82.0447 62.1819 82.4434 62.1414 82.8421 62.1322C84.0132 62.0985 85.2536 62.1401 86.4239 62.176C86.7324 62.1855 87.3461 62.2826 87.5563 62.4654C87.856 62.7265 87.7013 63.4426 88.0605 63.7392C88.6872 64.2765 90.0991 63.6572 89.4064 62.7816C88.5986 61.7609 87.0634 61.7453 85.9132 61.3312C84.6906 60.891 83.4051 60.4994 82.3693 59.684C80.9252 58.5437 81.3956 56.3574 82.4434 55.1229C83.4583 53.927 84.9226 53.2232 86.4183 52.8372C87.3147 52.6057 88.2345 52.5364 89.1519 52.4462Z" fill="#D8DADD"/>
<path d="M54.9938 52.6034C57.0008 52.4291 59.7513 52.9311 61.3051 54.3946C61.7503 54.8139 61.9892 57.0922 61.1962 57.4136C59.9876 57.9032 58.0587 57.7234 56.7454 57.6231C56.4815 57.6027 56.3926 56.6569 55.8028 56.7376C54.9399 56.4978 54.3543 58.006 54.376 58.6966C54.4098 59.7708 54.1958 62.5897 55.6939 62.7145C56.3551 62.4624 55.9347 61.8524 56.2957 61.3808C57.1668 61.1623 60.5783 61.5411 61.5031 61.7481C61.7189 63.1283 61.6376 64.0458 60.9101 65.2537C58.6486 68.0408 52.395 67.8653 49.7109 65.9559C48.1752 64.8743 47.1316 63.2278 46.809 61.3779C46.4728 59.3663 47.1073 57.9916 48.1857 56.3451C49.8007 53.8789 52.1281 53.073 54.9938 52.6034Z" fill="#D8DADD"/>
<path d="M99.3706 34.3323C100.167 34.279 101.349 34.3943 102.193 34.4148C103.686 34.4511 104.863 34.1906 106.302 34.6069C106.74 35.1145 107.362 36.5715 107.944 37.3964C108.505 36.416 108.871 35.3088 109.597 34.4975C110.922 34.3241 112.274 34.4759 113.608 34.499C114.179 34.5089 116.405 34.0965 116.497 34.7388C116.107 35.4838 115.193 36.3633 114.659 37.0548C113.667 38.3404 112.478 39.6257 111.484 40.8739C111.355 41.0685 110.712 42.0198 110.693 42.2005C110.536 43.715 110.722 45.4978 110.708 47.0257C110.705 47.3871 110.663 48.2509 110.474 48.2686C109.485 48.3614 105.841 48.3736 105.013 48.3413C104.878 46.1148 105.094 43.8636 104.943 41.7085C104.224 40.6624 99.2337 35.0162 99.1797 34.5572L99.3706 34.3323Z" fill="#D8DADD"/>
<path d="M89.5528 33.9004C90.6997 34.0181 94.677 34.1665 95.4115 34.3521C95.5412 34.5886 95.6088 35.381 95.5806 35.657C95.2947 38.4774 94.9347 41.2563 95.2657 44.104C96.912 44.4279 99.4661 44.5022 101.199 44.5889C101.229 45.7151 101.456 46.8595 101.392 47.9861C101.373 48.3224 101.32 48.4224 101.068 48.6373C100.246 48.7708 98.8282 48.654 97.9631 48.6827C96.3007 48.7379 90.798 48.9245 89.4505 48.3592C88.8239 47.6326 89.3208 40.323 89.1807 39.0319C89.0985 38.2655 89.1678 34.4414 89.5528 33.9004Z" fill="#D8DADD"/>
<path d="M89.8279 0.905552C90.9153 0.807189 91.3687 1.02837 91.6555 2.21128C92.1927 4.43392 92.502 7.49921 91.525 9.64726C91.1819 10.4017 90.5585 10.7195 89.8271 10.9259C89.1514 10.9488 88.6085 10.7304 88.0415 10.4013C87.1885 8.85758 87.7757 7.0906 88.1373 5.46508C88.3556 4.4819 89.0144 1.38006 89.8279 0.905552Z" fill="#9EA2A9"/>
<path d="M68.3516 6.21039C70.4442 6.14589 71.6562 8.32243 72.6138 9.85573C73.4052 11.1228 74.0691 12.6122 72.4513 13.5554C70.6439 14.0291 69.4569 13.0058 68.7168 11.4673C68.0569 10.0956 66.3265 7.18586 68.3516 6.21039Z" fill="#9EA2A9"/>
<path d="M49.8409 14.1176C51.9102 13.9312 53.6352 14.8704 55.4141 15.8022C57.0543 16.6613 57.3808 18.3302 55.4817 19.1516C53.1879 19.7187 45.194 15.804 49.8409 14.1176Z" fill="#9EA2A9"/>
<path d="M121.619 17.3388C122.625 17.1913 124.19 17.2833 125.038 17.901C125.658 18.3529 125.582 19.1143 125.109 19.6357C124.02 20.8347 122.062 20.9493 120.575 21.0671C119.583 21.1332 116.668 21.1276 116.472 19.7623C116.431 19.4696 116.505 19.1723 116.68 18.9339C117.511 17.8208 120.335 17.5338 121.619 17.3388Z" fill="#9EA2A9"/>
<path d="M110.155 6.19469C110.366 6.1751 110.771 6.12437 110.898 6.35097C111.885 8.12593 110.093 10.4454 108.804 11.5622C108.158 12.1222 107.507 12.3642 106.665 12.2818C106.621 12.2667 106.578 12.251 106.533 12.2351C105.838 11.9808 105.778 11.9026 105.477 11.2536C105.529 11.0791 105.586 10.9064 105.65 10.7357C106.309 8.95442 108.398 7.00837 110.155 6.19469Z" fill="#9EA2A9"/>
<path d="M0 43.5331C1.25324 43.9975 2.44018 44.4095 3.77142 44.6012C11.5733 45.725 22.4828 42.1573 30.2561 40.6023C33.1457 40.0243 36.1933 39.3903 39.1519 39.7607C41.9247 40.1078 44.6168 41.43 46.7538 43.2016C48.2215 44.4181 49.98 46.272 50.7867 48.0236C50.9887 48.4623 51.1233 48.9655 50.9547 49.438C50.7634 49.9745 50.2527 50.3038 49.7553 50.5259C48.7052 50.9946 46.9201 51.4991 45.7887 51.0663C45.3299 50.8908 45.1072 50.5808 44.9218 50.1423C44.6933 49.6018 44.5519 49.0242 44.3394 48.4765C43.4677 46.2312 42.1748 44.1921 39.8634 43.2398C35.5911 41.4798 25.7306 44.3962 21.112 45.3867C17.9377 46.0675 14.746 46.7051 11.5114 47.0269C9.02313 47.2702 6.51389 47.1915 4.04581 46.7929C7.1048 49.6288 9.25421 51.873 13.8801 52.1424C14.5707 52.1826 16.0234 52.2064 16.2544 52.9436C16.1839 53.2291 15.9963 53.4031 15.7402 53.5396C14.6189 54.1373 12.8368 54.2484 12.3196 55.6246C11.9326 56.6543 13.4935 56.8915 14.1736 56.9532C16.0057 57.1194 17.8978 57.0352 19.7204 56.8009C20.6838 56.678 21.6702 56.4336 22.6343 56.4529C23.2791 56.4658 24.1618 56.8022 24.0596 57.6053C23.947 58.4894 22.3626 59.4698 22.8486 60.4141C23.0612 60.7469 23.7602 60.8962 24.1505 60.9562C26.6203 61.3363 29.1713 60.4055 31.1753 59.0019C31.8856 58.5045 32.2675 57.5769 33.2083 57.7321C33.611 57.7985 33.813 57.9679 34.0586 58.2711C34.5642 58.8953 34.7943 60.2667 35.6817 60.4014C36.4239 60.5141 37.1721 60.0127 37.7349 59.5918C38.4409 59.0614 39.0698 58.4354 39.6034 57.7319C39.91 57.3301 40.8413 55.8288 41.2031 55.6421C42.4764 54.985 44.1019 55.7935 43.2643 57.4396C41.3509 61.1998 35.7339 65.1322 31.823 61.7471C30.3886 62.5958 29.4779 63.0951 27.8464 63.5704C25.1208 64.3645 19.5203 63.6256 19.4749 59.9035C16.2569 59.9961 12.2789 59.4895 9.6533 57.4669C8.55694 56.6223 8.74171 54.9675 9.58935 53.9947C5.66881 52.5494 3.60535 50.7505 1.29923 47.2518C0.939315 46.7058 0.233415 45.2658 0 44.934V43.5331Z" fill="#D8DADD"/>
<path d="M161.144 46.0876C158.076 46.6049 154.909 46.5042 151.834 46.0894C148.868 45.6892 145.923 45.0697 143.002 44.4246C138.374 43.4026 129.543 40.7912 125.185 42.6036C120.988 44.3487 120.897 49.6675 119.462 50.3208C118.516 50.7521 116.66 50.3037 115.731 49.9386C115.202 49.7312 114.452 49.4134 114.223 48.8574C114.035 48.4032 114.171 47.8855 114.357 47.4533C115.078 45.7754 116.536 44.2548 117.84 43.0073C120.157 40.79 123.38 39.2757 126.586 38.9917C129.777 38.7089 133.245 39.5141 136.348 40.1996C143.281 41.7317 152.839 44.5452 159.824 44.0663C161.601 43.9446 163.292 43.5707 164.95 42.9152V44.7325C164.854 44.8691 164.716 45.1321 164.632 45.2867C162.743 48.7526 159.603 52.1307 155.688 53.212C158.275 57.7503 151.132 58.7796 148.211 59.2022C147.49 59.3068 146.504 59.1235 145.81 59.2916C145.736 59.562 145.472 60.5765 145.34 60.7519C143.269 63.5127 139.154 63.5556 136.178 62.474C135.132 62.0939 134.262 61.5936 133.325 61.0173C129.736 64.3284 124.161 60.6769 122.181 57.2384C121.796 56.5681 121.324 55.3499 122.243 54.9031C123.904 54.0942 124.683 55.7816 125.443 56.8431C125.787 57.3233 126.176 57.7697 126.604 58.1761C127.612 59.1308 128.344 59.4626 129.638 59.8625C130.369 59.1204 130.546 58.4938 131.084 57.6365C131.31 57.2751 131.545 57.1063 131.974 57.0115C132.78 56.8338 133.507 57.9562 134.2 58.4332C136.151 59.7774 138.697 60.5991 141.075 60.2189C141.464 60.1567 142.184 60.0343 142.368 59.6946C142.804 58.6819 141.179 57.7277 141.057 56.7853C140.952 55.9822 142.197 55.7587 142.793 55.7621C143.632 55.7668 144.534 55.975 145.379 56.0772C147.265 56.3051 149.178 56.4354 151.073 56.2316C151.772 56.1568 153.089 56.0088 152.895 55.0144C152.575 53.377 150.084 53.4113 149.129 52.7116C148.986 52.4924 148.986 52.4556 148.987 52.1947C149.252 51.4332 150.784 51.4166 151.466 51.3923C155.633 51.2436 158.247 48.8494 161.144 46.0876Z" fill="#D8DADD"/>
</g>
<defs>
<clipPath id="clip0_8042_134061">
<rect width="164.953" height="69" fill="white"/>
</clipPath>
</defs>
</svg>
