<svg width="12" height="12" viewBox="0 0 12 12" fill="none" xmlns="http://www.w3.org/2000/svg">
<path fill-rule="evenodd" clip-rule="evenodd" d="M0.666667 0C1.03486 0 1.33333 0.298477 1.33333 0.666667V10.6667H11.3333C11.7015 10.6667 12 10.9651 12 11.3333C12 11.7015 11.7015 12 11.3333 12H1.33333C0.596954 12 0 11.403 0 10.6667V0.666667C0 0.298477 0.298477 0 0.666667 0ZM9.42518 2.0061C9.62898 1.97834 9.83417 2.0462 9.98123 2.19L11.7994 3.96777C12.0627 4.22518 12.0674 4.64727 11.81 4.91052C11.5526 5.17378 11.1305 5.17852 10.8673 4.92112L9.66166 3.74231L7.57658 7.33466C7.47268 7.51368 7.29151 7.63428 7.08626 7.66106C6.88101 7.68784 6.67496 7.61777 6.5286 7.4714L5.20883 6.15164L3.94024 8.94254C3.78789 9.27772 3.39265 9.42594 3.05746 9.27358C2.72228 9.12122 2.57406 8.72599 2.72642 8.3908L4.39309 4.72413C4.48357 4.52508 4.66591 4.38304 4.88105 4.34403C5.09619 4.30502 5.31679 4.37398 5.4714 4.5286L6.85852 5.91571L8.93857 2.33201C9.04182 2.15412 9.22139 2.03386 9.42518 2.0061Z" fill="#77838D"/>
</svg>
