<?xml version="1.0" encoding="utf-8"?><svg xmlns="http://www.w3.org/2000/svg" xmlns:xlink="http://www.w3.org/1999/xlink"><symbol viewBox="0 0 12 7" id="arr-d" xmlns="http://www.w3.org/2000/svg"><path fill-rule="evenodd" clip-rule="evenodd" d="M5.47 6.53a.75.75 0 001.06 0l5.25-5.25A.75.75 0 0010.72.22L6 4.94 1.28.22A.75.75 0 10.22 1.28l5.25 5.25z"/></symbol><symbol viewBox="0 0 14 9" id="arr-l3" xmlns="http://www.w3.org/2000/svg"><path class="bst0" d="M4.23 8.8c-.17 0-.34-.07-.47-.2L.18 4.85s-.09-.11-.11-.17a.639.639 0 01-.06-.28H0v-.02c0-.1.02-.19.07-.28.02-.05.06-.1.09-.14s.01-.02.02-.02L3.76.2c.25-.26.66-.27.92-.02s.27.66.02.92L2.17 3.75h10.98c.36 0 .65.29.65.65s-.29.65-.65.65H2.17L4.7 7.7a.649.649 0 01-.47 1.1z"/></symbol><symbol viewBox="0 0 22 14" id="arr-l4" xmlns="http://www.w3.org/2000/svg"><path class="cst0" d="M6.73 14a.97.97 0 01-.72-.31l-5.73-6a1.043 1.043 0 01-.26-.67c0-.17.04-.31.1-.45.04-.08.09-.15.14-.22l.03-.03L6.01.31A.987.987 0 017.42.28c.4.38.41 1.01.03 1.41L3.34 6H21c.55 0 1 .45 1 1s-.45 1-1 1H3.34l4.11 4.31c.38.4.37 1.03-.03 1.41-.19.18-.44.28-.69.28z"/></symbol><symbol viewBox="0 0 11 7" id="arr-r2" xmlns="http://www.w3.org/2000/svg"><path fill-rule="evenodd" clip-rule="evenodd" d="M6.862.195c.26-.26.682-.26.943 0l2.666 2.667a.667.667 0 010 .943L7.805 6.47a.667.667 0 01-.943-.942L8.39 4H.667a.667.667 0 010-1.333H8.39L6.86 1.138a.667.667 0 010-.943z"/></symbol><symbol viewBox="0 0 14 9" id="arr-r3" xmlns="http://www.w3.org/2000/svg"><path class="est0" d="M9.57 8.8a.649.649 0 01-.47-1.1l2.53-2.65H.65C.29 5.05 0 4.76 0 4.4s.29-.65.65-.65h10.98L9.1 1.1a.649.649 0 01.02-.92c.26-.25.67-.24.92.02l3.58 3.75a.626.626 0 01.18.44v.02a.681.681 0 01-.18.44L10.04 8.6c-.13.13-.3.2-.47.2z"/></symbol><symbol viewBox="0 0 22 14" id="arr-r4" xmlns="http://www.w3.org/2000/svg"><path class="fst0" d="M15.27 14c-.25 0-.5-.09-.69-.28a.996.996 0 01-.03-1.41L18.67 8H1c-.55 0-1-.45-1-1s.45-1 1-1h17.66l-4.11-4.31A.996.996 0 1115.99.31l5.73 6s.02.02.03.04c.06.07.1.14.14.21a1.018 1.018 0 010 .88c-.04.08-.09.16-.16.23s-5.73 6-5.73 6c-.2.21-.46.31-.72.31z"/></symbol><symbol viewBox="0 0 12 9" id="burger" xmlns="http://www.w3.org/2000/svg"><path fill-rule="evenodd" clip-rule="evenodd" d="M0 .75A.75.75 0 01.75 0h10.5a.75.75 0 010 1.5H.75A.75.75 0 010 .75zM0 4.5a.75.75 0 01.75-.75h10.5a.75.75 0 010 1.5H.75A.75.75 0 010 4.5zm0 3.75a.75.75 0 01.75-.75h10.5a.75.75 0 010 1.5H.75A.75.75 0 010 8.25z"/></symbol><symbol viewBox="0 0 10 10" id="cross" xmlns="http://www.w3.org/2000/svg"><path fill-rule="evenodd" clip-rule="evenodd" d="M9.097.194c.26.26.262.682.002.943l-3.492 3.51 3.532 3.55a.667.667 0 11-.945.94L4.667 5.592 1.139 9.137a.667.667 0 11-.945-.94l3.532-3.55-3.492-3.51a.667.667 0 11.945-.94L4.667 3.7 8.154.196a.667.667 0 01.943-.002z"/></symbol><symbol viewBox="0 0 14 14" id="filter-icon" xmlns="http://www.w3.org/2000/svg"><path fill-rule="evenodd" clip-rule="evenodd" d="M.374 2.488C-.475 1.518.214 0 1.503 0h10.194c1.289 0 1.978 1.518 1.13 2.488L8.85 7.032v5.343a1.125 1.125 0 01-1.8.9L4.8 11.587a1.125 1.125 0 01-.45-.9V7.033L.374 2.488zM11.697 1.5H1.503l3.976 4.544a1.5 1.5 0 01.371.988V10.5l1.5 1.125V7.032a1.5 1.5 0 01.371-.988L11.697 1.5z"/></symbol><symbol viewBox="0 0 25 24" id="heart" xmlns="http://www.w3.org/2000/svg"><path fill-rule="evenodd" clip-rule="evenodd" d="M21.363 13.863l-8.292 9.316a1.333 1.333 0 01-1.992 0l-8.29-9.315C-.815 10.081-.668 5.327 1.753 2.437 2.96.999 4.716.054 6.747.002c1.736-.044 3.563.565 5.327 1.894 1.758-1.33 3.58-1.938 5.313-1.894 2.029.052 3.784.998 4.988 2.435 2.419 2.887 2.577 7.64-1.012 11.426zM17.319 2.668c-1.205-.03-2.714.459-4.346 1.945a1.333 1.333 0 01-1.794.002C9.54 3.128 8.024 2.637 6.815 2.668c-1.21.031-2.267.586-3.017 1.481-1.485 1.773-1.82 5.008.935 7.89l.032.035 7.31 8.213 7.31-8.213.03-.033c2.741-2.88 2.403-6.117.916-7.892-.751-.896-1.806-1.45-3.012-1.48z"/></symbol><symbol viewBox="0 0 12 12" id="link" xmlns="http://www.w3.org/2000/svg"><path fill-rule="evenodd" clip-rule="evenodd" d="M6.821.667c0-.369.299-.667.667-.667h3.845c.368 0 .667.298.667.667v3.845a.667.667 0 01-1.333 0V2.276L6.545 6.397a.667.667 0 11-.942-.942l4.12-4.122H7.489a.667.667 0 01-.667-.666zm-5.377 2a.11.11 0 00-.11.11v7.778a.238.238 0 00.013.092c.006.004.034.02.098.02h7.777a.137.137 0 00.09-.028.043.043 0 00.01-.016.169.169 0 00.011-.068V7.333a.667.667 0 011.334 0v3.222c0 .934-.748 1.445-1.445 1.445H1.445c-.33 0-.695-.099-.985-.357-.303-.27-.46-.655-.46-1.088V2.778a1.445 1.445 0 011.445-1.445h3.078a.667.667 0 010 1.334H1.444z"/></symbol><symbol viewBox="0 0 20 20" id="list-view" xmlns="http://www.w3.org/2000/svg"><path d="M17 3H3v6h14V3zm0 8H3v6h14v-6z"/></symbol><symbol viewBox="0 0 15 15" id="moon" xmlns="http://www.w3.org/2000/svg"><path fill-rule="evenodd" clip-rule="evenodd" d="M7.256.012a.75.75 0 01.619.738v.01a.747.747 0 01-.072.322C7.59 1.686 7.5 2.286 7.5 3a6 6 0 006 6c.087 0 .154.003.19.005h.023a.587.587 0 00.096-.003.75.75 0 01.765.998A7.5 7.5 0 116.954.02a.748.748 0 01.302-.008zm-1.149 1.65a6 6 0 106.613 8.798A7.501 7.501 0 016 3c0-.466.033-.906.107-1.338z"/></symbol><symbol viewBox="0 0 40 40" id="play-icon" xmlns="http://www.w3.org/2000/svg"><g filter="url(#na)"><path d="M28.212 21.733a2.556 2.556 0 000-4.044 47.68 47.68 0 00-13.222-7.221l-.87-.31c-1.664-.59-3.422.536-3.648 2.254-.63 4.8-.63 9.797 0 14.598.226 1.718 1.984 2.844 3.648 2.253l.87-.31a47.686 47.686 0 0013.222-7.22z"/></g><defs><filter id="na" x="0" y="0" width="39.203" height="39.422" filterUnits="userSpaceOnUse" color-interpolation-filters="sRGB"><feFlood flood-opacity="0" result="BackgroundImageFix"/><feColorMatrix in="SourceAlpha" values="0 0 0 0 0 0 0 0 0 0 0 0 0 0 0 0 0 0 127 0" result="hardAlpha"/><feOffset/><feGaussianBlur stdDeviation="5"/><feComposite in2="hardAlpha" operator="out"/><feColorMatrix values="0 0 0 0 0 0 0 0 0 0 0 0 0 0 0 0 0 0 0.25 0"/><feBlend in2="BackgroundImageFix" result="effect1_dropShadow_6121_122106"/><feBlend in="SourceGraphic" in2="effect1_dropShadow_6121_122106" result="shape"/></filter></defs></symbol><symbol viewBox="0 0 15 15" id="search" xmlns="http://www.w3.org/2000/svg"><path fill-rule="evenodd" clip-rule="evenodd" d="M6 1.5a4.5 4.5 0 100 9 4.5 4.5 0 000-9zM0 6a6 6 0 1112 0A6 6 0 010 6zm11.095 5.095a.75.75 0 011.06 0l2.625 2.625a.75.75 0 11-1.06 1.06l-2.625-2.625a.75.75 0 010-1.06z"/></symbol><symbol viewBox="0 0 15 15" id="success" xmlns="http://www.w3.org/2000/svg"><path fill-rule="evenodd" clip-rule="evenodd" d="M7.5 1.5a6 6 0 100 12 6 6 0 000-12zM0 7.5a7.5 7.5 0 1115 0 7.5 7.5 0 01-15 0zm10.28-2.03a.75.75 0 010 1.06l-3 3a.75.75 0 01-1.06 0L4.345 7.655a.75.75 0 011.06-1.06L6.75 7.939l2.47-2.47a.75.75 0 011.06 0z"/></symbol><symbol viewBox="0 0 15 15" id="sun" xmlns="http://www.w3.org/2000/svg"><path fill-rule="evenodd" clip-rule="evenodd" d="M7.5 0a.75.75 0 01.75.75v1.5a.75.75 0 01-1.5 0V.75A.75.75 0 017.5 0zM2.197 2.197a.75.75 0 011.06 0l1.06 1.06a.75.75 0 01-1.06 1.06l-1.06-1.06a.75.75 0 010-1.06zm10.606 0a.75.75 0 010 1.06l-1.06 1.06a.75.75 0 11-1.06-1.06l1.06-1.06a.75.75 0 011.06 0zM7.5 5.25a2.25 2.25 0 100 4.5 2.25 2.25 0 000-4.5zM3.75 7.5a3.75 3.75 0 117.5 0 3.75 3.75 0 01-7.5 0zM0 7.5a.75.75 0 01.75-.75h1.5a.75.75 0 010 1.5H.75A.75.75 0 010 7.5zm12 0a.75.75 0 01.75-.75h1.5a.75.75 0 010 1.5h-1.5A.75.75 0 0112 7.5zm-7.682 3.182a.75.75 0 010 1.06l-1.06 1.061a.75.75 0 01-1.061-1.06l1.06-1.06a.75.75 0 011.06 0zm6.364 0a.75.75 0 011.06 0l1.061 1.06a.75.75 0 11-1.06 1.061l-1.06-1.06a.75.75 0 010-1.06zM7.5 12a.75.75 0 01.75.75v1.5a.75.75 0 01-1.5 0v-1.5A.75.75 0 017.5 12z"/></symbol><symbol viewBox="0 0 20 20" id="tile-view" xmlns="http://www.w3.org/2000/svg"><path d="M9 3H3v6h6V3zm8 0h-6v6h6V3zm0 8h-6v6h6v-6zm-8 0H3v6h6v-6z"/></symbol><symbol viewBox="0 0 12 14" id="verification" xmlns="http://www.w3.org/2000/svg"><path fill-rule="evenodd" clip-rule="evenodd" d="M5.733.05a.75.75 0 01.534 0l5.25 2a.75.75 0 01.483.71 13.27 13.27 0 01-1.517 5.986 13.053 13.053 0 01-4.052 4.618.75.75 0 01-.862 0 13.054 13.054 0 01-4.052-4.618A13.271 13.271 0 010 2.76a.75.75 0 01.483-.71l5.25-2zM1.519 3.26a11.766 11.766 0 001.326 4.788A11.567 11.567 0 006 11.818a11.567 11.567 0 003.155-3.77 11.766 11.766 0 001.327-4.788L6 1.553 1.519 3.26z"/></symbol></svg>