<svg width="15" height="13" viewBox="0 0 15 13" fill="none" xmlns="http://www.w3.org/2000/svg">
<path d="M14.2186 0.197189C14.1067 0.100657 13.9705 0.0364914 13.8248 0.0116017C13.6791 -0.0132881 13.5294 0.00204146 13.3917 0.0559394L0.725484 5.01281C0.495589 5.10235 0.30099 5.26413 0.17097 5.4738C0.0409493 5.68348 -0.0174585 5.92971 0.00453488 6.17544C0.0265283 6.42118 0.127733 6.65312 0.292921 6.83637C0.458108 7.01963 0.678343 7.14428 0.920484 7.19157L4.00048 7.79594V11.2497C4.00048 11.4989 4.07495 11.7424 4.21434 11.9489C4.35373 12.1555 4.55167 12.3157 4.78276 12.4089C5.01385 12.5022 5.26753 12.5242 5.51124 12.4722C5.75495 12.4202 5.97755 12.2966 6.15048 12.1172L7.56736 10.6478L9.89736 12.6872C10.0599 12.8301 10.2568 12.9284 10.4687 12.9724C10.6806 13.0164 10.9003 13.0047 11.1063 12.9383C11.3123 12.8719 11.4976 12.7531 11.6439 12.5936C11.7902 12.4341 11.8926 12.2394 11.9411 12.0284L14.4799 0.994064C14.5129 0.850038 14.506 0.69973 14.46 0.559317C14.414 0.418904 14.3305 0.293704 14.2186 0.197189ZM8.46361 3.59469L4.57673 6.38031L2.42486 5.95844L8.46361 3.59469ZM5.50048 10.6284V8.83406L6.43798 9.65594L5.50048 10.6284ZM10.573 11.2859L5.95548 7.23781L12.5999 2.47656L10.573 11.2859Z" fill="#77838D"/>
</svg>
