<svg width="21" height="13" viewBox="0 0 21 13" fill="none" xmlns="http://www.w3.org/2000/svg">
<path d="M20.5617 2.03073C20.4422 1.6375 20.2078 1.27889 19.882 0.990807C19.5563 0.702719 19.1505 0.495253 18.7055 0.389172C17.0672 7.89667e-08 10.5 0 10.5 0C10.5 0 3.93281 -7.89667e-08 2.29453 0.387102C1.84927 0.492839 1.44334 0.70019 1.11751 0.988331C0.791688 1.27647 0.557436 1.63526 0.438281 2.02866C-8.9407e-08 3.47771 0 6.5 0 6.5C0 6.5 -8.9407e-08 9.52229 0.438281 10.9693C0.679687 11.7683 1.39219 12.3976 2.29453 12.6108C3.93281 13 10.5 13 10.5 13C10.5 13 17.0672 13 18.7055 12.6108C19.6102 12.3976 20.3203 11.7683 20.5617 10.9693C21 9.52229 21 6.5 21 6.5C21 6.5 21 3.47771 20.5617 2.03073ZM8.41406 9.27389V3.72611L13.8516 6.4793L8.41406 9.27389Z" fill="white"/>
</svg>
