<?xml version="1.0" encoding="UTF-8"?>
<svg id="Layer_1" xmlns="http://www.w3.org/2000/svg" version="1.1" viewBox="0 0 22 14">
  <path class="st0" d="M6.73,14c-.26,0-.53-.1-.72-.31L.28,7.69h0s0,0,0,0,0,0,0,0h0s0,0,0,0c0,0,0,0,0,0-.07-.07-.12-.15-.16-.24h0c-.06-.13-.1-.28-.1-.43h0c0-.17.04-.31.1-.45,0,0,0,0,0,0,.04-.08.09-.15.14-.22,0,0,0,0,0,0,0,0,0,0,0,0l.03-.03L6.01.31c.38-.4,1.01-.42,1.41-.03.4.38.41,1.01.03,1.41L3.34,6h17.66c.55,0,1,.45,1,1s-.45,1-1,1H3.34l4.11,4.31c.38.4.37,1.03-.03,1.41-.19.18-.44.28-.69.28Z"/>
</svg>
