<?xml version="1.0" encoding="UTF-8"?>
<svg id="Layer_1" xmlns="http://www.w3.org/2000/svg" version="1.1" viewBox="0 0 22 14">
  <path class="st0" d="M15.27,14c-.25,0-.5-.09-.69-.28-.4-.38-.41-1.01-.03-1.41l4.12-4.31H1c-.55,0-1-.45-1-1s.45-1,1-1h17.66L14.55,1.69c-.38-.4-.37-1.03.03-1.41.4-.38,1.03-.37,1.41.03l5.73,6s.02.02.03.04h0s0,0,0,0c.06.07.1.14.14.21.06.13.1.28.1.44h0c0,.17-.04.31-.1.44-.04.08-.09.16-.16.23h0s0,0,0,0c0,0,0,0,0,0h0s0,0,0,0h0s0,0,0,0h0s0,0,0,0c0,0,0,0,0,0h0s0,0,0,0c0,0,0,0,0,0h0s-5.73,6-5.73,6c-.2.21-.46.31-.72.31Z"/>
</svg>
