<svg width="14" height="14" viewBox="0 0 14 14" fill="none" xmlns="http://www.w3.org/2000/svg">
<path fill-rule="evenodd" clip-rule="evenodd" d="M0.374054 2.48776C-0.474588 1.51788 0.214185 0 1.50292 0H11.6973C12.986 0 13.6748 1.51788 12.8261 2.48776L8.85009 7.0318V12.375C8.85009 13.3021 7.79173 13.8312 7.05009 13.275L4.80009 11.5875C4.51681 11.375 4.35009 11.0416 4.35009 10.6875V7.0318L0.374054 2.48776ZM11.6973 1.5H1.50292L5.47896 6.04404C5.71822 6.31748 5.85009 6.66847 5.85009 7.0318V10.5L7.35009 11.625V7.0318C7.35009 6.66847 7.48197 6.31748 7.72123 6.04404L11.6973 1.5Z" fill="#004346"/>
</svg>
