<svg width="25" height="24" viewBox="0 0 25 24" fill="none" xmlns="http://www.w3.org/2000/svg">
<path fill-rule="evenodd" clip-rule="evenodd" d="M21.3629 13.8629L13.0711 23.1793C12.8181 23.4636 12.4557 23.6262 12.0751 23.6262C11.6945 23.6262 11.3321 23.4636 11.0791 23.1793L2.78828 13.864C-0.814129 10.0808 -0.667142 5.32662 1.75412 2.43682C2.95883 0.998988 4.71556 0.0542203 6.74695 0.00226282C8.48333 -0.0421488 10.3097 0.566592 12.0736 1.89585C13.8315 0.566834 15.6535 -0.0421773 17.3873 0.00226425C19.416 0.0542678 21.1707 0.999778 22.3747 2.43681C24.794 5.32427 24.952 10.0777 21.3629 13.8629ZM17.3189 2.66806C16.1143 2.63718 14.6047 3.12678 12.9731 4.61331C12.4649 5.07627 11.6881 5.07702 11.179 4.61505C9.54016 3.12771 8.02449 2.63713 6.81514 2.66806C5.60423 2.69903 4.54838 3.25402 3.79815 4.14943C2.31332 5.92159 1.97768 9.1574 4.73264 12.0388C4.74361 12.0503 4.75436 12.062 4.76491 12.0738L12.0751 20.2873L19.3853 12.0738C19.3952 12.0627 19.4052 12.0518 19.4155 12.041C22.1563 9.16143 21.8177 5.92422 20.3307 4.14943C19.5798 3.25323 18.5254 2.69898 17.3189 2.66806Z" fill="#16676B"/>
</svg>
