<svg width="12" height="12" viewBox="0 0 12 12" fill="none" xmlns="http://www.w3.org/2000/svg">
<path fill-rule="evenodd" clip-rule="evenodd" d="M6.82133 0.666667C6.82133 0.298477 7.11981 0 7.488 0H11.3333C11.7015 0 12 0.298477 12 0.666667V4.512C12 4.88019 11.7015 5.17867 11.3333 5.17867C10.9651 5.17867 10.6667 4.88019 10.6667 4.512V2.27614L6.5454 6.3974C6.28506 6.65775 5.86295 6.65775 5.6026 6.3974C5.34225 6.13706 5.34225 5.71494 5.6026 5.4546L9.72386 1.33333H7.488C7.11981 1.33333 6.82133 1.03486 6.82133 0.666667ZM1.44409 2.66667C1.42955 2.66665 1.41514 2.66951 1.40169 2.67507C1.38825 2.68063 1.37603 2.68879 1.36575 2.69908C1.35546 2.70937 1.3473 2.72158 1.34174 2.73503C1.33618 2.74847 1.33332 2.76288 1.33333 2.77743L1.33333 10.5553C1.33333 10.6113 1.34284 10.6376 1.34569 10.6444C1.3462 10.6456 1.34662 10.6465 1.34694 10.6471C1.35288 10.6509 1.38102 10.6667 1.44467 10.6667H9.222C9.26925 10.6667 9.29983 10.6496 9.31139 10.6391C9.31605 10.6349 9.31961 10.6304 9.32285 10.6229C9.32602 10.6157 9.33333 10.5955 9.33333 10.5553V7.33333C9.33333 6.96514 9.63181 6.66667 10 6.66667C10.3682 6.66667 10.6667 6.96514 10.6667 7.33333V10.5553C10.6667 11.4894 9.91942 12 9.222 12H1.44467C1.11412 12 0.750188 11.9011 0.459762 11.6428C0.156549 11.373 1.54133e-07 10.9881 1.54133e-07 10.5553V2.77825C1.54133e-07 2.77817 1.54133e-07 2.77834 1.54133e-07 2.77825C-8.74647e-05 2.58861 0.0371818 2.40055 0.109681 2.22531C0.182253 2.04989 0.288702 1.89051 0.422938 1.75627C0.557173 1.62204 0.71656 1.51559 0.891977 1.44301C1.06722 1.37051 1.25502 1.33325 1.44467 1.33333C1.44458 1.33333 1.44475 1.33333 1.44467 1.33333H4.52333C4.89152 1.33333 5.19 1.63181 5.19 2C5.19 2.36819 4.89152 2.66667 4.52333 2.66667L1.44409 2.66667Z" fill="white"/>
</svg>
