<svg width="14" height="18" viewBox="0 0 14 18" fill="none" xmlns="http://www.w3.org/2000/svg">
<path fill-rule="evenodd" clip-rule="evenodd" d="M7 2C5.89543 2 5 2.89543 5 4V7H9V4C9 2.89543 8.10457 2 7 2ZM11 7V4C11 1.79086 9.20914 0 7 0C4.79086 0 3 1.79086 3 4V7H2C0.89543 7 0 7.89543 0 9V16C0 17.1046 0.895431 18 2 18H12C13.1046 18 14 17.1046 14 16V9C14 7.89543 13.1046 7 12 7H11ZM2 9V16H12V9H2ZM7 10C7.55228 10 8 10.4477 8 11V14C8 14.5523 7.55228 15 7 15C6.44772 15 6 14.5523 6 14V11C6 10.4477 6.44772 10 7 10Z" fill="#16676B"/>
</svg>
