<svg width="15" height="15" viewBox="0 0 15 15" fill="none" xmlns="http://www.w3.org/2000/svg">
<path fill-rule="evenodd" clip-rule="evenodd" d="M7.25615 0.0116275C7.61417 0.0752125 7.875 0.386452 7.875 0.750072V0.760325C7.875 0.875112 7.84914 0.984129 7.80281 1.08169C7.59075 1.68617 7.5 2.286 7.5 3.00008C7.5 6.31379 10.1863 9.00008 13.5 9.00008C13.5874 9.00008 13.654 9.00313 13.6908 9.00481C13.6993 9.0052 13.7062 9.00552 13.7115 9.00571L13.7124 9.00574C13.7291 9.00635 13.7477 9.00703 13.8076 9.00235C14.0606 8.98263 14.3065 9.0922 14.461 9.29356C14.6154 9.49491 14.6576 9.76074 14.573 10C13.5438 12.912 10.7667 15.0001 7.5 15.0001C3.35786 15.0001 0 11.6422 0 7.50008C0 3.54142 3.06661 0.299507 6.95434 0.0196624C7.05096 -0.00295597 7.15331 -0.00663748 7.25615 0.0116275ZM6.10724 1.66247C3.46538 2.29035 1.5 4.6659 1.5 7.50008C1.5 10.8138 4.18629 13.5001 7.5 13.5001C9.73648 13.5001 11.6885 12.2761 12.7205 10.4601C8.94465 10.0701 6 6.87899 6 3.00008C6 2.53431 6.03287 2.09391 6.10724 1.66247Z" fill="#484A4E"/>
</svg>
