<svg width="15" height="15" viewBox="0 0 15 15" fill="none" xmlns="http://www.w3.org/2000/svg">
<path fill-rule="evenodd" clip-rule="evenodd" d="M7.5 1.5C4.18629 1.5 1.5 4.18629 1.5 7.5C1.5 10.8137 4.18629 13.5 7.5 13.5C10.8137 13.5 13.5 10.8137 13.5 7.5C13.5 4.18629 10.8137 1.5 7.5 1.5ZM0 7.5C0 3.35786 3.35786 0 7.5 0C11.6421 0 15 3.35786 15 7.5C15 11.6421 11.6421 15 7.5 15C3.35786 15 0 11.6421 0 7.5ZM10.2803 5.46967C10.5732 5.76256 10.5732 6.23744 10.2803 6.53033L7.28033 9.53033C6.98744 9.82322 6.51256 9.82322 6.21967 9.53033L4.34467 7.65533C4.05178 7.36244 4.05178 6.88756 4.34467 6.59467C4.63756 6.30178 5.11244 6.30178 5.40533 6.59467L6.75 7.93934L9.21967 5.46967C9.51256 5.17678 9.98744 5.17678 10.2803 5.46967Z" fill="#09924E"/>
</svg>
