<svg width="15" height="15" viewBox="0 0 15 15" fill="none" xmlns="http://www.w3.org/2000/svg">
<path fill-rule="evenodd" clip-rule="evenodd" d="M7.5 0C7.91421 0 8.25 0.335786 8.25 0.75V2.25C8.25 2.66421 7.91421 3 7.5 3C7.08579 3 6.75 2.66421 6.75 2.25V0.75C6.75 0.335786 7.08579 0 7.5 0ZM2.19667 2.19667C2.48956 1.90378 2.96444 1.90378 3.25733 2.19667L4.31783 3.25717C4.61072 3.55006 4.61072 4.02494 4.31783 4.31783C4.02494 4.61072 3.55006 4.61072 3.25717 4.31783L2.19667 3.25733C1.90378 2.96444 1.90378 2.48956 2.19667 2.19667ZM12.8033 2.19667C13.0962 2.48956 13.0962 2.96444 12.8033 3.25733L11.7428 4.31783C11.4499 4.61072 10.9751 4.61072 10.6822 4.31783C10.3893 4.02494 10.3893 3.55006 10.6822 3.25717L11.7427 2.19667C12.0356 1.90378 12.5104 1.90378 12.8033 2.19667ZM7.5 5.25C6.25736 5.25 5.25 6.25736 5.25 7.5C5.25 8.74264 6.25736 9.75 7.5 9.75C8.74264 9.75 9.75 8.74264 9.75 7.5C9.75 6.25736 8.74264 5.25 7.5 5.25ZM3.75 7.5C3.75 5.42893 5.42893 3.75 7.5 3.75C9.57107 3.75 11.25 5.42893 11.25 7.5C11.25 9.57107 9.57107 11.25 7.5 11.25C5.42893 11.25 3.75 9.57107 3.75 7.5ZM0 7.5C0 7.08579 0.335786 6.75 0.75 6.75H2.25C2.66421 6.75 3 7.08579 3 7.5C3 7.91421 2.66421 8.25 2.25 8.25H0.75C0.335786 8.25 0 7.91421 0 7.5ZM12 7.5C12 7.08579 12.3358 6.75 12.75 6.75H14.25C14.6642 6.75 15 7.08579 15 7.5C15 7.91421 14.6642 8.25 14.25 8.25H12.75C12.3358 8.25 12 7.91421 12 7.5ZM4.31783 10.6822C4.61072 10.9751 4.61072 11.4499 4.31783 11.7428L3.25733 12.8033C2.96444 13.0962 2.48956 13.0962 2.19667 12.8033C1.90378 12.5104 1.90378 12.0356 2.19667 11.7427L3.25717 10.6822C3.55006 10.3893 4.02494 10.3893 4.31783 10.6822ZM10.6822 10.6822C10.9751 10.3893 11.4499 10.3893 11.7428 10.6822L12.8033 11.7427C13.0962 12.0356 13.0962 12.5104 12.8033 12.8033C12.5104 13.0962 12.0356 13.0962 11.7427 12.8033L10.6822 11.7428C10.3893 11.4499 10.3893 10.9751 10.6822 10.6822ZM7.5 12C7.91421 12 8.25 12.3358 8.25 12.75V14.25C8.25 14.6642 7.91421 15 7.5 15C7.08579 15 6.75 14.6642 6.75 14.25V12.75C6.75 12.3358 7.08579 12 7.5 12Z" fill="#C0C6CE"/>
</svg>
