<svg width="12" height="14" viewBox="0 0 12 14" fill="none" xmlns="http://www.w3.org/2000/svg">
<path fill-rule="evenodd" clip-rule="evenodd" d="M5.733 0.0491342C5.90497 -0.0163781 6.09503 -0.0163781 6.267 0.0491342L11.517 2.04913C11.8113 2.16126 12.0043 2.44535 11.9999 2.76029C11.9713 4.84911 11.4514 6.90122 10.4831 8.74558C9.51482 10.59 8.12581 12.1737 6.43101 13.3638C6.17237 13.5454 5.82763 13.5454 5.569 13.3638C3.87419 12.1737 2.48518 10.59 1.51686 8.74558C0.548571 6.90122 0.0287296 4.84911 7.11229e-05 2.76029C-0.00424987 2.44535 0.188668 2.16126 0.483004 2.04913L5.733 0.0491342ZM1.51853 3.25981C1.61531 4.93294 2.06716 6.5668 2.84496 8.04833C3.61936 9.52339 4.69639 10.8084 6 11.8182C7.30361 10.8084 8.38064 9.52339 9.15504 8.04833C9.93285 6.5668 10.3847 4.93294 10.4815 3.25981L6 1.55258L1.51853 3.25981Z" fill="#09924E"/>
</svg>
