<svg width="12" height="12" viewBox="0 0 12 12" fill="none" xmlns="http://www.w3.org/2000/svg">
<path fill-rule="evenodd" clip-rule="evenodd" d="M0 1.33333C0 0.596954 0.596953 0 1.33333 0H8C8.73638 0 9.33333 0.596954 9.33333 1.33333V10.6667H10.6667V3.33333C10.2985 3.33333 10 3.03486 10 2.66667C10 2.29848 10.2985 2 10.6667 2H11.3333C11.7015 2 12 2.29848 12 2.66667V10.6667C12 11.403 11.403 12 10.6667 12H9.33333C9.26689 12 9.20157 11.9951 9.13773 11.9858C9.09329 11.9951 9.04722 12 9 12H1.33333C0.596954 12 0 11.403 0 10.6667V1.33333ZM8 10.6667V1.33333H1.33333V10.6667H8ZM2 2.66667C2 2.29848 2.29848 2 2.66667 2H4.66667C5.03486 2 5.33333 2.29848 5.33333 2.66667V4.66667C5.33333 5.03486 5.03486 5.33333 4.66667 5.33333H2.66667C2.29848 5.33333 2 5.03486 2 4.66667V2.66667ZM3.33333 3.33333V4H4V3.33333H3.33333ZM6 2.66667C6 2.29848 6.29848 2 6.66667 2H7C7.36819 2 7.66667 2.29848 7.66667 2.66667C7.66667 3.03486 7.36819 3.33333 7 3.33333H6.66667C6.29848 3.33333 6 3.03486 6 2.66667ZM6 4.66667C6 4.29848 6.29848 4 6.66667 4H7C7.36819 4 7.66667 4.29848 7.66667 4.66667C7.66667 5.03486 7.36819 5.33333 7 5.33333H6.66667C6.29848 5.33333 6 5.03486 6 4.66667ZM2 7.33333C2 6.96514 2.29848 6.66667 2.66667 6.66667H6.66667C7.03486 6.66667 7.33333 6.96514 7.33333 7.33333C7.33333 7.70152 7.03486 8 6.66667 8H2.66667C2.29848 8 2 7.70152 2 7.33333ZM2 9.33333C2 8.96514 2.29848 8.66667 2.66667 8.66667H6.66667C7.03486 8.66667 7.33333 8.96514 7.33333 9.33333C7.33333 9.70152 7.03486 10 6.66667 10H2.66667C2.29848 10 2 9.70152 2 9.33333Z" fill="#77838D"/>
</svg>
