<svg width="726" height="237" viewBox="0 0 726 237" fill="none" xmlns="http://www.w3.org/2000/svg">
<path d="M661.517 6.21841C677.132 6.68532 693.02 6.09942 708.664 6.33646C712.718 6.39788 717.262 6.43549 721.276 6.17188C721.555 19.0961 721.359 32.6932 721.356 45.6633L721.338 116.053L721.359 136.568L669.176 136.616C668.846 123.762 668.73 104.034 669.335 91.2526C666.578 96.0906 663.593 102.774 661.093 107.918L647.09 136.569L563.012 136.603L548.477 107.088C546.114 102.256 543.444 96.1614 540.868 91.5635C541.183 106.305 540.959 121.786 540.959 136.583L488.547 136.586C488.638 121.995 487.898 8.73176 488.888 6.51763L489.797 6.22119C509.354 6.35967 528.915 6.37641 548.473 6.27138C555.15 18.2624 562.03 32.9025 568.24 45.3104L605.113 118.695C606.638 114.534 611.025 106.354 613.13 102.197L627.54 73.6141L649.434 29.9233C652.894 23.0179 657.691 12.6825 661.517 6.21841Z" fill="white" fill-opacity="0.05"/>
<path d="M103.598 0.416529C105.311 0.178191 109.896 0.197209 111.711 0.190882C126.451 0.0144066 141.088 2.66559 154.825 8.00005C178.213 17.1941 201.934 36.1602 212.12 59.5127C196.63 67.608 180.402 75.773 165.147 84.1448C162.849 79.5729 159.965 75.3185 156.568 71.4886C146.69 60.5699 131.258 53.2152 116.555 52.5448C97.5011 51.676 84.4003 56.2562 70.392 68.8807C66.1929 72.8625 62.6234 77.4575 59.8065 82.5088C50.3484 99.465 50.8611 118.514 56.0399 136.606C38.3705 136.353 19.7545 136.498 2.0784 136.625C1.58885 134.757 1.31074 132.575 1.0765 130.658C-3.5863 92.4921 6.6858 54.9716 36.0502 28.9009C56.4924 10.7519 76.5259 2.70561 103.598 0.416529Z" fill="white" fill-opacity="0.05"/>
<path d="M346.453 0.412852C358.909 -1.10615 379.47 1.76424 391.379 5.78952C419.657 15.3455 441.475 32.8713 454.964 59.5013C451.033 61.163 443 65.6922 438.921 67.8236C428.548 73.2054 418.2 78.6424 407.882 84.1345C405.273 79.0419 402.284 74.6053 398.288 70.4658C387.296 59.1249 372.22 52.6364 356.412 52.443C339.309 52.1248 325.074 57.3283 312.75 69.195C293.882 88.548 291.758 111.7 298.724 136.625C280.899 136.338 262.499 136.543 244.631 136.597C238.376 93.0971 248.486 52.6918 284.118 24.3244C303.494 8.89865 321.864 2.55955 346.453 0.412852Z" fill="white" fill-opacity="0.05"/>
<path d="M340.038 93.2041C354.141 93.5483 369.46 93.2771 383.67 93.2779L465.483 93.2728C467.834 102.764 467.153 125.782 465.66 135.77L465.595 136.167C464.566 136.9 402.763 136.507 396.09 136.558C378.699 136.69 357.638 136.413 339.968 136.641C339.917 122.162 339.94 107.683 340.038 93.2041Z" fill="white" fill-opacity="0.05"/>
<path d="M97.4424 93.2888L222.872 93.2422C224.992 103.162 224.388 126.705 222.831 136.562L97.3511 136.589C97.2866 122.155 97.3174 107.722 97.4424 93.2888Z" fill="white" fill-opacity="0.05"/>
<path d="M553.589 163.174C561.581 163.258 584.207 162.66 590.617 164.151C596.464 165.532 601.859 168.379 606.294 172.423C621.67 186.661 620.797 210.434 606.779 225.359C595.638 235.546 586.508 235.038 572.672 234.991L553.614 234.987C553.143 211.408 553.527 186.799 553.589 163.174ZM568.896 220.132C578.885 220.145 588.501 221.628 596.026 214.186C596.138 214.073 596.251 213.957 596.359 213.84C604.258 204.579 604.167 191.165 594.881 182.941C587.827 176.694 577.675 177.984 568.875 178.062L568.896 220.132Z" fill="white" fill-opacity="0.05"/>
<path d="M465.45 163.122C471.345 163.203 477.24 163.19 483.131 163.083V234.947L467.707 234.966L467.733 209.734C467.7 202.536 467.715 195.338 467.78 188.141C462.005 199.774 455.708 212.741 449.512 224.118C446.458 224.19 443.085 224.116 440.005 224.11C433.647 212.703 427.516 199.545 421.455 187.827C421.977 193.337 421.785 200.615 421.777 206.28L421.741 234.989L406.234 234.993C405.973 211.195 406.18 186.943 406.166 163.114C412.104 163.211 418.067 163.029 423.995 163.28C426.285 167.071 429.15 173.064 431.237 177.129C435.697 185.903 440.215 194.649 444.788 203.366C450.954 190.461 458.74 175.814 465.45 163.122Z" fill="white" fill-opacity="0.05"/>
<path d="M144.019 161.283C160.199 160.52 173.363 166.646 181.034 181.33C176.55 183.416 171.678 186.078 167.254 188.379C160.871 178.391 150.907 173.418 139.276 178.073C134.037 180.195 129.869 184.326 127.707 189.541C125.303 195.277 125.324 202.854 127.737 208.593C129.931 213.768 134.079 217.874 139.282 220.023C147.901 223.52 159.569 221.084 164.965 213.225C166.459 211.049 167.178 209.339 168.175 206.903C160.298 206.598 151.376 206.938 143.281 206.803L143.253 194.042L143.642 193.193C146.103 192.43 179.621 193.042 184.654 193.049C185.228 204.599 184.874 212.745 177.681 222.513C165.709 238.773 140.751 241.396 124.926 229.469C117.237 223.617 112.207 214.944 110.953 205.376C107.823 182.364 120.838 164.393 144.019 161.283Z" fill="white" fill-opacity="0.05"/>
<path d="M35.063 161.268C51.5843 160.511 64.0484 166.547 72.287 181.156C67.9788 183.531 62.7376 186.241 58.2758 188.274C52.819 177.748 40.4618 173.615 29.6929 178.456C24.5996 180.705 20.6278 184.906 18.6727 190.111C16.4535 196.072 16.5291 203.459 19.2518 209.257C21.6782 214.436 26.0744 218.434 31.4657 220.365C43.2621 224.562 55.1922 218.754 59.325 206.957C53.0962 206.471 41.0339 206.872 34.534 206.896L34.5253 195.415C34.4706 194.417 34.5319 194.136 34.7007 193.169C37.3803 192.416 70.4084 193.019 75.8115 193.019C76.5408 204.396 76.0322 212.652 69.0534 222.3C57.2704 238.589 32.4084 241.449 16.5107 229.734C8.7756 223.989 3.6478 215.409 2.25791 205.887C-1.24094 182.698 11.7448 164.743 35.063 161.268Z" fill="white" fill-opacity="0.05"/>
<path d="M677.665 163.022C684.216 163.296 690.98 163.182 697.552 163.157C700.784 169.754 705.414 182.916 708.276 190.357C713.925 205.044 720.149 220.246 725.501 234.965L707.9 234.948C705.936 230.023 704.092 224.488 702.306 219.46L696.491 219.546C689.034 219.628 680.364 219.731 672.966 219.432C671.18 224.467 669.31 230.103 667.216 234.968L649.713 234.956C655.419 219.231 662.06 203.244 667.948 187.52C669.615 183.06 675.861 166.129 677.665 163.022ZM678.321 205.281L688.578 205.311L697.233 205.336C694.146 196.888 691.056 187.326 687.784 179.076C685.737 184.081 679.556 200.439 678.321 205.281Z" fill="white" fill-opacity="0.05"/>
<path d="M215.185 163.099C221.667 163.295 228.569 163.22 235.088 163.281C236.568 166.44 238.312 171.319 239.625 174.699L247.812 195.805C252.346 207.492 259.043 223.33 262.817 234.961L245.272 234.95C243.373 229.835 241.517 224.705 239.703 219.558L235.314 219.548C227.904 219.641 217.759 219.779 210.515 219.388C208.46 224.34 206.822 229.816 204.705 234.948L187.164 234.958C189.503 227.948 213.669 164.823 215.185 163.099ZM215.625 205.328L225.908 205.305L234.567 205.316C233.624 202.611 225.575 179.48 225.209 179.124C222.191 186.303 218.153 197.82 215.625 205.328Z" fill="white" fill-opacity="0.05"/>
<path d="M319.041 163.013C323.861 163.511 335.615 163.31 340.831 163.262C349.959 163.179 361.419 163.614 370.289 163.034C370.365 168.058 370.296 173.234 370.296 178.271L334.449 178.178L334.496 191.483L367.955 191.43L367.876 206.611C358.716 206.536 349.557 206.521 340.398 206.566L334.452 206.534L334.523 219.965C345.827 219.552 358.85 219.818 370.289 219.794C370.343 224.852 370.339 229.91 370.278 234.967L319.063 234.979L319.041 163.013Z" fill="white" fill-opacity="0.05"/>
<path d="M493.188 163.09C508.828 163.764 528.375 163.244 544.291 163.219L544.317 178.271C532.375 178.186 520.433 178.166 508.491 178.214C508.618 182.632 508.633 187.053 508.535 191.472L542.063 191.437L542.001 206.638L513.477 206.565L508.481 206.597C508.629 210.964 508.575 215.534 508.578 219.919C519.458 219.481 533.31 219.731 544.306 219.851V234.96L493.188 234.969V163.09Z" fill="white" fill-opacity="0.05"/>
<path d="M253.434 163.124C265.451 163.482 277.652 163.123 289.684 163.252C296.755 163.328 304 163.284 311.063 163.086C311.247 167.979 311.149 173.354 311.155 178.282C304.056 178.201 296.957 178.192 289.859 178.256L289.896 214.133L289.911 234.988L274.64 234.991C274.403 217.308 274.091 195.796 274.644 178.254C268.136 177.982 259.899 178.229 253.264 178.247C253.273 174.19 253.048 166.868 253.434 163.124Z" fill="white" fill-opacity="0.05"/>
<path d="M626.344 163.084C631.383 163.215 636.427 163.221 641.467 163.103L641.445 234.951L626.148 235.003L626.13 183.943C626.13 181.112 625.942 165.081 626.344 163.084Z" fill="white" fill-opacity="0.05"/>
</svg>
