<svg width="98" height="32" viewBox="0 0 98 32" fill="none" xmlns="http://www.w3.org/2000/svg">
<g clip-path="url(#clip0_7002_59504)">
<path d="M89.3266 0.904709C91.4348 0.967636 93.5797 0.888672 95.6919 0.920618C96.2392 0.928897 96.8526 0.933965 97.3946 0.898438C97.4323 2.64028 97.4059 4.47279 97.4054 6.2208L97.4029 15.7074L97.4059 18.4723L90.3607 18.4788C90.3161 16.7464 90.3005 14.0875 90.3822 12.365C90.0099 13.017 89.6069 13.9178 89.2694 14.6111L87.3788 18.4724L76.0276 18.477L74.0651 14.4991C73.7462 13.848 73.3857 13.0266 73.0379 12.4069C73.0805 14.3937 73.0502 16.4801 73.0502 18.4744L65.9741 18.4747C65.9863 16.5082 65.8866 1.24344 66.0201 0.945036L66.1429 0.905084C68.7833 0.923747 71.4242 0.926003 74.0646 0.911847C74.9662 2.52791 75.895 4.501 76.7334 6.17324L81.7115 16.0635C81.9174 15.5026 82.5098 14.4003 82.794 13.84L84.7394 9.98781L87.6953 4.09948C88.1624 3.16883 88.8101 1.77589 89.3266 0.904709Z" fill="#004346"/>
<path d="M14.0023 0.122345C14.2336 0.0902238 14.8525 0.0927869 15.0976 0.0919342C17.0877 0.0681501 19.0638 0.425457 20.9184 1.1444C24.076 2.3835 27.2785 4.93962 28.6537 8.08691C26.5624 9.17792 24.3715 10.2783 22.312 11.4066C22.0017 10.7905 21.6124 10.2171 21.1537 9.70092C19.8201 8.22939 17.7366 7.23816 15.7516 7.14782C13.1791 7.03073 11.4104 7.64801 9.51918 9.34945C8.95226 9.88609 8.47035 10.5054 8.09003 11.1861C6.81311 13.4714 6.88232 16.0387 7.58151 18.477C5.19598 18.4429 2.68265 18.4624 0.296227 18.4795C0.230133 18.2277 0.192586 17.9337 0.160963 17.6753C-0.468558 12.5316 0.918268 7.47488 4.88273 3.96126C7.64261 1.51527 10.3473 0.430851 14.0023 0.122345Z" fill="#004346"/>
<path d="M46.79 0.122048C48.4716 -0.0826731 51.2475 0.304178 52.8554 0.846676C56.6732 2.13457 59.6188 4.49656 61.44 8.08556C60.9092 8.30952 59.8248 8.91993 59.274 9.20718C57.8736 9.9325 56.4766 10.6653 55.0835 11.4054C54.7313 10.7191 54.3277 10.1212 53.7882 9.56328C52.3041 8.03484 50.2688 7.16037 48.1346 7.1343C45.8255 7.09142 43.9036 7.79271 42.2398 9.39201C39.6924 12.0003 39.4057 15.1205 40.3462 18.4798C37.9396 18.441 35.4555 18.4687 33.0432 18.476C32.1987 12.6134 33.5636 7.16782 38.3743 3.34468C40.9902 1.2657 43.4703 0.411365 46.79 0.122048Z" fill="#004346"/>
<path d="M45.9236 12.6279C47.8277 12.6743 49.8959 12.6378 51.8144 12.6379L62.8598 12.6372C63.1773 13.9163 63.0853 17.0186 62.8838 18.3647L62.875 18.4182C62.7361 18.5169 54.3922 18.4639 53.4912 18.4708C51.1433 18.4887 48.2998 18.4513 45.9142 18.482C45.9073 16.5306 45.9104 14.5792 45.9236 12.6279Z" fill="#004346"/>
<path d="M13.1715 12.6391L30.1057 12.6328C30.3918 13.9698 30.3104 17.1426 30.1001 18.4712L13.1592 18.4748C13.1505 16.5295 13.1547 14.5843 13.1715 12.6391Z" fill="#004346"/>
<path d="M74.7549 22.0576C75.8339 22.0688 78.8887 21.9882 79.754 22.1891C80.5434 22.3753 81.2718 22.7591 81.8705 23.3041C83.9465 25.223 83.8286 28.4269 81.9361 30.4384C80.4319 31.8113 79.1993 31.7428 77.3312 31.7364L74.7583 31.736C74.6947 28.5582 74.7465 25.2415 74.7549 22.0576ZM76.8215 29.7339C78.1701 29.7357 79.4683 29.9356 80.4843 28.9325C80.4994 28.9173 80.5146 28.9017 80.5293 28.8859C81.5956 27.6378 81.5834 25.8299 80.3297 24.7216C79.3773 23.8796 78.0067 24.0535 76.8186 24.064L76.8215 29.7339Z" fill="#004346"/>
<path d="M62.8554 22.0501C63.6512 22.0611 64.447 22.0594 65.2424 22.0449V31.7302L63.1601 31.7329L63.1635 28.3322C63.1591 27.3621 63.1611 26.392 63.1699 25.422C62.3902 26.9899 61.54 28.7374 60.7036 30.2708C60.2912 30.2805 59.8358 30.2705 59.4201 30.2697C58.5616 28.7323 57.734 26.959 56.9156 25.3798C56.9861 26.1223 56.9601 27.1032 56.9592 27.8667L56.9543 31.7358L54.8607 31.7365C54.8255 28.529 54.8534 25.2606 54.8514 22.0491C55.6531 22.0621 56.4583 22.0376 57.2585 22.0714C57.5677 22.5823 57.9546 23.3901 58.2363 23.938C58.8385 25.1204 59.4484 26.2992 60.0657 27.474C60.8983 25.7347 61.9495 23.7607 62.8554 22.0501Z" fill="#004346"/>
<path d="M19.4591 21.8024C21.6435 21.6997 23.4207 22.5253 24.4564 24.5043C23.851 24.7854 23.1932 25.1441 22.5959 25.4543C21.7342 24.1081 20.389 23.438 18.8187 24.0653C18.1113 24.3513 17.5487 24.908 17.2568 25.6108C16.9322 26.3839 16.9351 27.4051 17.2608 28.1786C17.5571 28.8761 18.117 29.4294 18.8195 29.7191C19.9832 30.1903 21.5585 29.862 22.287 28.8028C22.4886 28.5096 22.5857 28.2792 22.7204 27.9508C21.6569 27.9097 20.4523 27.9555 19.3593 27.9374L19.3557 26.2175L19.4082 26.1031C19.7403 26.0003 24.2656 26.0827 24.9451 26.0837C25.0226 27.6403 24.9748 28.7381 24.0038 30.0546C22.3874 32.246 19.0178 32.5996 16.8814 30.9921C15.8433 30.2034 15.1642 29.0345 14.9948 27.745C14.5723 24.6436 16.3294 22.2216 19.4591 21.8024Z" fill="#004346"/>
<path d="M4.74934 21.8005C6.97986 21.6985 8.66264 22.5119 9.77491 24.4808C9.19327 24.8009 8.48566 25.1661 7.88328 25.4402C7.14657 24.0215 5.47822 23.4645 4.02433 24.1169C3.33669 24.4201 2.80046 24.9863 2.53651 25.6877C2.23689 26.4911 2.2471 27.4866 2.61469 28.2681C2.94227 28.966 3.5358 29.5048 4.26367 29.7651C5.85629 30.3308 7.46696 29.548 8.02493 27.9581C7.18399 27.8926 5.55546 27.9466 4.67793 27.9499L4.67675 26.4026C4.66937 26.2681 4.67763 26.2302 4.70043 26.0999C5.0622 25.9984 9.52129 26.0796 10.2508 26.0797C10.3492 27.6129 10.2805 28.7257 9.33835 30.026C7.74754 32.2213 4.39094 32.6067 2.24462 31.0278C1.20031 30.2535 0.508008 29.0972 0.320361 27.8139C-0.152016 24.6887 1.60117 22.2688 4.74934 21.8005Z" fill="#004346"/>
<path d="M91.5062 22.0371C92.3906 22.074 93.3038 22.0586 94.1912 22.0552C94.6275 22.9443 95.2526 24.7183 95.639 25.721C96.4016 27.7005 97.242 29.7492 97.9644 31.733L95.5882 31.7307C95.323 31.067 95.0741 30.321 94.8329 29.6433L94.0478 29.6549C93.0412 29.6661 91.8706 29.6798 90.8718 29.6395C90.6306 30.3182 90.3782 31.0778 90.0955 31.7334L87.7324 31.7318C88.5028 29.6125 89.3994 27.4579 90.1943 25.3387C90.4193 24.7377 91.2626 22.4557 91.5062 22.0371ZM91.5947 27.7325L92.9795 27.7364L94.1481 27.7398C93.7314 26.6013 93.3141 25.3126 92.8724 24.2007C92.596 24.8752 91.7615 27.0798 91.5947 27.7325Z" fill="#004346"/>
<path d="M29.0672 22.0469C29.9424 22.0733 30.8743 22.0632 31.7543 22.0715C31.9541 22.4973 32.1896 23.1548 32.3669 23.6103L33.4721 26.4548C34.0844 28.0299 34.9885 30.1645 35.4981 31.7319L33.1293 31.7305C32.8729 31.0412 32.6223 30.3497 32.3774 29.6561L31.7848 29.6547C30.7844 29.6672 29.4148 29.6859 28.4367 29.6331C28.1593 30.3006 27.9382 31.0385 27.6524 31.7302L25.2842 31.7316C25.5999 30.7868 28.8626 22.2793 29.0672 22.0469ZM29.1267 27.7382L30.515 27.7351L31.684 27.7366C31.5567 27.3721 30.47 24.2546 30.4206 24.2066C30.0132 25.1742 29.468 26.7263 29.1267 27.7382Z" fill="#004346"/>
<path d="M43.0889 22.0352C43.7396 22.1023 45.3265 22.0752 46.0307 22.0688C47.2631 22.0576 48.8103 22.1162 50.0077 22.0381C50.018 22.7152 50.0087 23.4127 50.0087 24.0915L45.169 24.079L45.1754 25.8721L49.6927 25.865L49.682 27.911C48.4454 27.9009 47.2088 27.8988 45.9723 27.9049L45.1695 27.9006L45.1791 29.7107C46.7051 29.6552 48.4635 29.691 50.0077 29.6878C50.0151 30.3694 50.0146 31.051 50.0063 31.7326L43.0919 31.7342L43.0889 22.0352Z" fill="#004346"/>
<path d="M66.6001 22.0459C68.7118 22.1368 71.3507 22.0667 73.4996 22.0632L73.503 24.0919C71.8907 24.0804 70.2785 24.0778 68.6663 24.0842C68.6834 24.6797 68.6853 25.2755 68.6721 25.871L73.1987 25.8663L73.1904 27.915L69.3393 27.9051L68.6648 27.9095C68.6849 28.498 68.6775 29.1139 68.678 29.7049C70.1469 29.6458 72.0169 29.6796 73.5015 29.6958V31.732L66.6001 31.7332V22.0459Z" fill="#004346"/>
<path d="M34.2313 22.05C35.8537 22.0983 37.501 22.0499 39.1254 22.0673C40.08 22.0776 41.0581 22.0716 42.0117 22.0449C42.0365 22.7043 42.0233 23.4288 42.0241 24.093C41.0658 24.082 40.1073 24.0808 39.149 24.0894L39.154 28.9246L39.156 31.7353L37.0943 31.7357C37.0623 29.3526 37.0202 26.4533 37.0948 24.0892C36.2162 24.0526 35.1042 24.0857 34.2083 24.0882C34.2096 23.5415 34.1792 22.5546 34.2313 22.05Z" fill="#004346"/>
<path d="M84.5773 22.0449C85.2577 22.0625 85.9386 22.0634 86.619 22.0475L86.6161 31.7307L84.5509 31.7377L84.5484 24.8562C84.5484 24.4745 84.523 22.314 84.5773 22.0449Z" fill="#004346"/>
</g>
<defs>
<clipPath id="clip0_7002_59504">
<rect width="98" height="32" fill="white"/>
</clipPath>
</defs>
</svg>
