<svg width="176" height="30" viewBox="0 0 176 30" fill="none" xmlns="http://www.w3.org/2000/svg">
<g clip-path="url(#clip0_8042_134015)">
<path d="M149.115 2.48828L154.78 2.4929C154.675 9.68746 154.766 17.1108 154.774 24.328L149.428 24.3305C149.398 23.8868 149.393 23.3869 149.38 22.9379C147.553 24.8274 145.041 24.7775 142.652 24.3648C135.093 22.1472 134.977 10.6622 142.455 8.39448C144.84 7.67149 147.235 8.02196 149.2 9.63691C149.016 8.03122 149.113 4.26035 149.115 2.48828ZM146.481 20.0329C150.699 18.8773 149.899 12.2681 145.478 12.6563C144.41 12.9563 143.802 13.225 143.22 14.2594C142.668 15.2601 142.533 16.4387 142.846 17.5381C143.341 19.304 144.671 20.1863 146.481 20.0329Z" fill="#D8DADD"/>
<path d="M67.7501 8.3418L73.339 8.34759L73.3293 13.8138C73.3256 15.883 72.8254 19.7848 75.8446 19.7269C79.1834 19.6629 78.8105 16.0582 78.8049 13.72C78.7922 11.9295 78.7926 10.139 78.8062 8.34838L84.4432 8.34865L84.4542 14.7418L84.4485 24.3148C82.6781 24.2623 80.851 24.2894 79.0751 24.2966L79.0453 22.7292C78.9554 22.8284 78.8627 22.925 78.7673 23.0188C77.2847 24.4729 75.1664 24.7109 73.1999 24.5003C70.4639 24.2071 68.4819 22.4032 67.9489 19.6999C67.622 18.042 67.7271 16.3486 67.7268 14.6665C67.718 12.5582 67.7258 10.45 67.7501 8.3418Z" fill="#D8DADD"/>
<path d="M93.6372 8.11605C96.146 7.88489 98.6058 8.48596 100.919 9.40058C100.451 10.6453 99.7619 12.1025 99.2096 13.3323C97.8122 12.6282 96.3976 12.2066 94.8362 12.1541C91.9478 12.0572 90.8201 13.875 94.3861 14.3018C96.2722 14.5987 98.7295 14.798 100.191 16.1781C101.863 17.7548 101.8 20.8455 100.191 22.4516C98.4744 24.1647 96.1082 24.5194 93.8124 24.5669C91.4204 24.5802 88.5879 24.1952 86.4922 22.965C86.9148 21.845 87.6877 20.1431 88.2005 19.0412C89.171 19.5152 90.0986 19.9059 91.1464 20.1851C92.1582 20.4547 95.7784 21.0275 96.1228 19.6002C95.8419 18.334 92.8513 18.3182 91.7305 18.1013C89.4536 17.6606 87.0462 16.8277 86.8564 14.0601C86.5678 9.86794 90.0548 8.41822 93.6372 8.11605Z" fill="#D8DADD"/>
<path d="M104.248 4.83008L109.872 4.83058L109.883 8.94109L113.525 8.94685L113.528 13.2291C112.312 13.2021 111.095 13.2 109.878 13.2228C109.954 15.9485 108.704 21.8176 113.189 19.629C113.568 20.5407 113.958 21.8242 114.311 22.7986C114.41 23.0604 114.581 23.4093 114.522 23.6704C113.646 24.4457 111.818 24.5413 110.685 24.5704C108.301 24.6314 105.843 23.8725 104.826 21.5242C104.112 19.8783 104.224 18.2743 104.227 16.5321L104.218 13.2082L101.922 13.2129C101.901 11.7918 101.901 10.3705 101.921 8.94943L104.224 8.94823C104.218 7.57544 104.225 6.20266 104.248 4.83008Z" fill="#D8DADD"/>
<path d="M42.6965 4.82645L48.2947 4.82422C48.2634 6.15177 48.291 7.59999 48.2906 8.9369C49.4667 8.95521 50.6802 8.94318 51.8594 8.94507C51.8685 10.3721 51.8676 11.7992 51.8565 13.2263C50.6701 13.199 49.4833 13.1989 48.297 13.226C48.2884 14.794 48.2016 17.6553 48.3766 19.1431C48.8373 19.9025 49.1082 20.0211 49.9206 20.2374C50.6428 20.0813 50.9584 19.9792 51.6235 19.6559C52.0192 20.7267 52.4262 21.8 52.7738 22.887C52.8624 23.1138 53.105 23.6273 52.8409 23.7716C50.4647 25.0699 46.1023 24.8463 44.2365 22.973C43.6432 22.3657 43.2111 21.6194 42.9798 20.8022C42.5321 19.2382 42.6679 15.0961 42.6698 13.2287C41.9507 13.198 41.1112 13.2131 40.3828 13.2091L40.403 8.9504L42.6718 8.94154C42.6607 7.5698 42.669 6.19797 42.6965 4.82645Z" fill="#D8DADD"/>
<path d="M134.849 8.11197C135.048 8.08021 135.642 8.063 135.871 8.05078L135.873 13.1766C130.821 12.7104 130.795 15.3111 130.797 19.3834L130.801 24.3269C130.027 24.3214 125.559 24.4237 125.196 24.228L125.174 24.004L125.164 8.3487L130.548 8.34028L130.567 10.1348C131.697 8.75932 133.133 8.31146 134.849 8.11197Z" fill="#D8DADD"/>
<path d="M64.8266 8.1139C65.0654 8.08849 65.3579 8.04982 65.5342 8.17744C65.6588 9.20185 65.5713 12.0482 65.5562 13.1961C60.5296 12.5999 60.5735 15.6439 60.5876 19.5251C60.6002 21.1216 60.5995 22.7182 60.5855 24.3146C58.7688 24.2219 56.848 24.3627 55.0348 24.2835C54.8819 24.0871 54.9314 23.9617 54.9262 23.6749C54.998 18.6469 54.9543 13.3896 54.9219 8.3537C56.6413 8.30404 58.5695 8.34688 60.3054 8.3464C60.2976 8.94087 60.3207 9.56279 60.3339 10.1592C60.393 10.0819 60.4535 10.0057 60.5154 9.93053C61.5328 8.69898 63.3062 8.25743 64.8266 8.1139Z" fill="#D8DADD"/>
<path d="M4.11536 0H25.1263C29.7909 1.54569 29.5758 4.1816 29.5772 8.36258L29.5782 14.0097L29.5773 21.0948C29.5768 25.7275 30.1202 27.9714 25.2535 30H4.04157C1.755 28.839 1.34925 29.0827 0 26.4335V3.55419C1.21707 1.05634 1.82789 0.998648 4.11536 0Z" fill="url(#paint0_linear_8042_134015)" fill-opacity="0.6"/>
<path d="M10.4675 4.81023C12.3626 4.78224 14.3185 4.80698 16.2184 4.80668L16.2149 8.93239L19.905 8.93876C19.9393 10.3463 19.9146 11.8615 19.9167 13.2772C18.7104 13.3105 17.4305 13.2906 16.2187 13.2916C16.2153 15.2 16.1554 17.4671 16.2467 19.3473C17.17 20.9527 18.2539 20.6313 19.6788 19.973C19.8795 20.8528 20.4772 22.383 20.794 23.3059L21.0643 24.0711C18.3648 25.26 14.3145 25.4977 12.0274 23.2573C10.3285 21.593 10.4582 19.0281 10.4648 16.8254L10.48 13.3133C9.6874 13.2952 8.86571 13.3001 8.07031 13.2939L8.07365 8.93953L10.473 8.92345L10.4675 4.81023Z" fill="white"/>
<path d="M163.554 9.94411C164.206 9.0833 165.074 8.58014 166.116 8.31291C169.888 7.34498 174.073 9.14502 175.415 12.9272C175.608 13.4711 175.753 13.9981 175.902 14.5559V18.0861C175.321 20.4088 174.524 22.2759 172.358 23.5136C169.584 25.0996 166.302 25.0723 163.831 23.0504C163.891 25.337 163.861 27.7078 163.86 30.001H158.211L158.213 8.34349L163.536 8.34777L163.554 9.94411ZM167.576 20.0282C171.943 18.7666 170.817 12.2491 166.63 12.6484C166.327 12.7263 165.888 12.8262 165.617 12.9678C163.256 14.1972 163.153 18.2667 165.435 19.6237C166.114 20.0278 166.812 20.0896 167.576 20.0282Z" fill="#D8DADD"/>
</g>
<defs>
<linearGradient id="paint0_linear_8042_134015" x1="14.7976" y1="0" x2="14.7976" y2="30.0001" gradientUnits="userSpaceOnUse">
<stop stop-color="#CCF5F5" stop-opacity="0.6"/>
<stop offset="1" stop-color="#85A1B9"/>
</linearGradient>
<clipPath id="clip0_8042_134015">
<rect width="175.898" height="30" fill="white"/>
</clipPath>
</defs>
</svg>
