<svg width="186" height="45" viewBox="0 0 186 45" fill="none" xmlns="http://www.w3.org/2000/svg">
<g clip-path="url(#clip0_8042_133962)">
<path d="M0 0H185.977V45H0V0Z" fill="#65676C"/>
<path d="M55.3773 11.7128L182.162 11.7109C181.289 14.8222 180.493 18.3789 179.698 21.548C178.775 25.2228 177.736 29.0993 176.919 32.7723L173.218 32.7716L53.5477 32.7745C51.3176 28.6576 48.6956 24.2061 46.3242 20.1503C49.1681 17.3493 52.4432 14.4967 55.3773 11.7128Z" fill="#D8DADD"/>
<path d="M149.093 15.5143L160.036 15.5117C159.939 16.5519 159.698 17.7254 159.51 18.7636L152.605 18.7479C152.562 19.3971 152.447 19.968 152.33 20.6069L158.172 20.6139C158.105 21.4919 157.835 22.8338 157.688 23.7431C155.88 23.732 154.037 23.7094 152.225 23.7378C151.901 23.7429 151.849 23.7449 151.681 23.997C151.633 24.6569 151.569 25.1049 151.456 25.7577L158.463 25.7631C158.247 26.7266 158.077 28.0205 157.926 29.0183L146.828 29.0146C147.506 24.5242 148.419 20.0041 149.093 15.5143Z" fill="#65676C"/>
<path d="M166.413 15.2702C167.066 15.1699 168.061 15.2218 168.712 15.3358C171.22 15.7756 172.605 17.034 172.151 19.6864L168.368 19.6879C168.367 19.5642 168.363 19.4404 168.357 19.3169C168.28 17.8551 166.055 17.9152 165.287 18.748C165.02 19.0376 165.074 19.5782 165.426 19.7599C167.565 20.8619 171.312 20.3873 171.734 23.5203C171.872 24.6609 171.262 26.3614 170.507 27.2409C169.19 28.7741 167.38 29.1065 165.483 29.2802C163.901 29.2908 161.516 29.0534 160.42 27.7417C159.62 26.7831 159.731 25.5588 159.847 24.4029L163.641 24.3981V24.5271C163.644 25.1584 163.593 25.2589 164.006 25.7558C164.741 26.6373 167.468 26.2718 167.41 24.9664C166.898 23.6817 161.045 24.0948 160.869 20.9512C160.651 17.0591 163.041 15.7727 166.413 15.2702Z" fill="#65676C"/>
<path d="M64.3298 15.5098H69.0693C69.919 19.9571 70.5373 24.6439 71.4431 29.0124L67.1358 29.0197C67.0245 28.4224 66.9621 27.7473 66.8938 27.1377L64.7918 27.1448L62.4394 27.1381C62.1626 27.6989 61.8662 28.4333 61.6114 29.0176C60.2187 29.0249 58.8261 29.0192 57.4336 29.0004L64.3298 15.5098Z" fill="#65676C"/>
<path d="M65.9551 19.2949C66.2345 19.6218 66.4662 23.2732 66.5742 24.0646L64.4523 24.0687C64.156 24.0646 64.1315 24.1139 63.9258 23.9564C64.0113 23.4248 65.6304 20.0256 65.9551 19.2949Z" fill="#D8DADD"/>
<path d="M127.143 15.5059L131.838 15.5109C131.997 16.1741 132.14 16.9582 132.237 17.6323C132.782 21.4106 133.645 25.2444 134.152 29.0152L129.852 29.0205C129.808 28.3925 129.744 27.7658 129.662 27.1414L127.202 27.1464L125.256 27.1387C124.95 27.6649 124.609 28.4475 124.343 29.0156L120.211 29.0132C121.915 25.4792 123.834 22.0096 125.574 18.4892C126.065 17.4938 126.584 16.461 127.143 15.5059Z" fill="#65676C"/>
<path d="M128.725 19.2891C128.97 19.4969 129.269 23.3879 129.347 24.066L127.111 24.0702C126.878 24.0644 126.774 24.1058 126.625 23.9779C127.341 22.5107 128.053 20.7957 128.725 19.2891Z" fill="#D8DADD"/>
<path d="M86.6106 15.5105L96.8755 15.5098C96.6593 16.5478 96.4895 17.7057 96.3179 18.7584L90.1028 18.7524C90.005 19.5488 89.8895 20.2691 89.7533 21.0592L95.0747 21.0626C94.8895 21.976 94.6824 22.9141 94.5744 23.8377L94.509 24.0571C94.1712 24.2516 89.8688 24.1533 89.1731 24.1488C88.9712 25.7204 88.6496 27.43 88.4072 29.0174L84.3281 29.0152C84.3996 28.0921 84.8354 25.9212 84.9999 24.9438L86.6106 15.5105Z" fill="#65676C"/>
<path d="M74.7481 15.5145L85.001 15.5117C84.8275 16.7027 84.6868 17.5813 84.4463 18.7605L78.3197 18.7481C78.1501 19.5806 78.0265 20.2079 77.9398 21.0606L83.1968 21.0646C83.0444 22.0046 82.922 22.8906 82.7548 23.8401L82.6798 24.0609C82.3126 24.2551 78.1233 24.1514 77.4179 24.1455C77.0723 25.7597 76.8713 27.3694 76.5047 29.0185L72.4648 29.0143C73.1142 25.9032 73.5033 22.6566 74.0975 19.528C74.3476 18.2109 74.5729 16.843 74.7481 15.5145Z" fill="#65676C"/>
<path d="M135.338 15.5122L147.695 15.5098C147.488 16.5707 147.317 17.8411 147.13 18.9303L142.963 18.9165C142.649 21.0844 142.213 23.2629 141.874 25.4329C141.706 26.6723 141.447 27.7119 141.334 29.0168L137.209 29.0157C137.618 25.8361 138.381 22.1738 138.888 18.9264L134.789 18.9304C134.942 17.688 135.103 16.7426 135.338 15.5122Z" fill="#65676C"/>
<path d="M105.123 15.5118L109.195 15.5098C108.847 17.6729 108.48 19.8329 108.096 21.9899C107.914 23.0552 107.624 24.5312 107.557 25.5764L114.019 25.5793C113.865 26.3108 113.557 28.534 113.394 29.0179L102.867 29.0168C102.925 27.9847 103.485 25.179 103.676 24.0747L105.123 15.5118Z" fill="#65676C"/>
<path d="M98.6272 15.5131L102.652 15.5117C102.279 18.7352 101.507 22.0131 101.035 25.2316C100.851 26.4851 100.631 27.7729 100.403 29.0197L96.3516 29.0185C96.5641 27.3977 96.9118 25.5797 97.1834 23.9461C97.641 21.1313 98.1223 18.3201 98.6272 15.5131Z" fill="#65676C"/>
<path d="M117.141 15.5111L121.179 15.5098C120.631 19.7967 119.643 24.6992 118.921 29.017L114.875 29.0123C115.607 24.508 116.362 20.0076 117.141 15.5111Z" fill="#65676C"/>
<path d="M14.6097 7.79664C15.2839 7.72441 16.4755 7.75802 17.1974 7.75834L21.8016 7.76423C21.1721 9.75596 20.5344 12.8064 20.0139 14.9039L16.6982 28.3841C16.1498 30.6168 15.6177 33.0089 15.0088 35.2125C17.9122 32.282 21.7235 28.9209 24.8135 26.0756C31.443 20.047 38.0075 13.9473 44.5058 7.77772C45.879 7.72076 47.5469 7.76339 48.9377 7.76302L57.2002 7.77642C56.637 8.30869 56.0112 8.86131 55.4215 9.36956C51.4338 12.8063 47.6009 16.5637 43.5783 19.9447C44.1803 20.8796 44.8227 22.0272 45.3975 22.9962C48.1126 27.5223 50.6928 32.1592 53.3927 36.6964C49.6969 36.8806 45.1364 36.8167 41.4995 36.286C37.4938 35.7014 36.3552 31.7753 34.3858 28.6913C31.5522 31.0034 28.1878 34.2147 25.3871 36.6979C23.1059 36.8311 20.4851 36.7148 18.1796 36.721C14.0842 36.732 9.96262 36.7571 5.86888 36.7031C6.51747 33.8062 7.30276 30.9035 7.99578 28.014C8.75851 24.8338 9.37264 22.1123 10.489 19.0331C8.90841 20.5609 7.12099 22.283 5.64222 23.8998C5.63787 21.3305 5.53654 18.6893 5.55248 16.1564C8.43065 13.3835 11.6496 10.5219 14.6097 7.79664Z" fill="#D8DADD"/>
<path d="M22.1797 7.77137L28.6604 7.75691C32.9062 7.75099 35.5559 7.5167 38.4027 11.1338C37.0871 12.4248 35.4418 13.8661 34.0677 15.126C32.4774 16.672 30.7497 18.1591 29.1346 19.7128C27.6077 16.9907 25.9145 14.2915 24.3625 11.5781C23.6818 10.3879 22.7722 8.98023 22.1797 7.77137Z" fill="#D8DADD"/>
</g>
<defs>
<clipPath id="clip0_8042_133962">
<rect width="185.977" height="45" fill="white"/>
</clipPath>
</defs>
</svg>
