<svg width="100" height="76" viewBox="0 0 100 76" fill="none" xmlns="http://www.w3.org/2000/svg">
<g clip-path="url(#clip0_8042_134080)">
<path d="M0 19.4714C1.80524 16.7251 3.70295 17.3123 6.42021 17.5573C8.03938 17.7033 13.1592 17.9914 14.5717 17.3241C14.9632 16.5851 15.1406 15.6413 15.3987 14.8374C20.3613 -0.620973 41.5957 -3.01203 54.2089 3.76846C57.9509 5.78002 61.3473 8.91812 62.6459 13.0839C65.1194 20.7328 59.4399 27.7766 54.0874 32.5023C54.9076 32.4691 55.7441 32.5483 56.5635 32.6106C59.1909 32.8106 61.7961 32.9775 64.4291 33.0892C70.2993 33.3025 76.1766 33.1537 82.0288 32.6436C84.4127 32.4442 87.1996 32.0928 89.4188 31.1831C90.4348 30.7667 91.4605 29.9515 92.4766 29.5497C93.0109 29.3387 93.8311 31.1127 94.0945 31.5413C96.0457 34.7077 97.6904 38.0536 98.7903 41.612C99.0182 42.3499 99.1815 43.3388 99.3589 44.0988C99.4724 44.5885 99.5748 45.6303 99.75 46.043V51.6295C99.491 52.2151 99.1065 54.2326 98.7325 55.2648C97.378 59.0006 94.8612 62.2121 91.7752 64.6925C83.4731 71.2999 72.5288 73.7945 62.183 74.8705C59.3287 75.1674 56.6948 75.3723 53.8291 75.2602C52.5995 75.2127 51.213 75.3344 50.0067 75.229C38.2312 74.2045 24.3263 72.1723 16.0091 62.873C13.6696 60.2526 12.3434 56.2554 12.6623 52.7706C13.3318 45.4547 19.3897 38.3928 24.8582 33.9612C20.7012 32.666 18.281 31.9947 13.9056 31.3284C12.7126 31.1461 11.5144 30.9995 10.3128 30.8886C9.15125 30.7713 7.86132 30.7525 6.76946 30.3559C4.36407 29.482 2.98539 27.6287 3.90891 25.0566C2.5671 23.7575 1.02169 23.0223 0 21.3459V19.4714Z" fill="#D8DADD"/>
<path d="M37.3529 2.70376C44.4424 2.07695 54.4514 4.93525 58.4187 11.1805C63.1059 18.5593 56.7136 26.6968 51.0719 31.3135C50.0432 32.1553 48.9834 33.0621 47.8544 33.774C48.3458 33.9236 48.8892 34.0656 49.3943 34.1547C53.727 34.9194 58.2789 35.289 62.6733 35.442C69.9643 35.6959 77.3535 35.6767 84.5965 34.7603C86.4386 34.5272 89.8727 33.9925 91.3905 32.993C91.9219 33.9522 92.4667 34.8122 92.9847 35.8026C94.7229 39.1228 96.0633 42.725 96.5094 46.4621C97.0385 51.1767 95.6618 55.9073 92.6856 59.6019C87.0539 66.7268 76.569 70.1151 67.9727 71.6129C65.6594 72.016 63.3491 72.2347 61.0234 72.5044C54.9788 72.9974 48.8982 72.8208 42.8925 71.9778C34.7696 70.8695 23.5497 67.9012 18.2894 61.1098C10.5699 51.1434 22.3331 39.159 29.9471 33.4098C23.3956 29.994 15.85 28.9981 8.63584 28.2667C8.02836 28.2051 7.29401 27.852 6.97755 27.3083C6.35747 26.2428 7.3087 25.4361 8.13613 24.9164C6.59269 23.8649 4.96083 22.2194 3.49566 21.0201C2.69968 20.318 3.24624 19.6876 4.11819 19.802C6.51211 20.1159 17.0831 21.135 17.7394 17.9297C19.7438 8.13822 27.8784 3.25863 37.3529 2.70376Z" fill="#00060D"/>
<path d="M37.5263 3.07537C40.1072 2.95573 42.5726 3.11334 45.0794 3.59518C52.4664 5.02586 61.349 10.3174 59.4198 19.1011C58.386 23.8079 54.7158 27.7545 51.1785 30.8365C49.9328 31.9219 48.4667 33.0984 47.0865 33.9991C55.8879 36.1459 66.3845 36.0247 75.4465 35.8591C80.0859 35.7742 87.1018 35.3097 91.3248 33.553C93.7756 37.3484 95.6948 42.155 96.1565 46.652C97.5414 60.1364 84.7721 67.2103 73.5966 70.077C69.2382 71.1951 65.2895 71.7662 60.73 72.1986C54.631 72.6767 48.4981 72.4857 42.4407 71.629C34.5438 70.501 23.6552 67.5172 18.5802 60.8686C11.0456 50.9978 23.1385 38.9993 30.6501 33.4355C29.5352 32.904 28.5676 32.3756 27.3975 31.9159C23.4695 30.3727 18.9856 29.2892 14.8103 28.6953C13.6284 28.5274 12.4429 28.3861 11.2547 28.2715C10.5251 28.1969 8.55506 28.096 7.98521 27.7773C6.21793 26.7889 7.8557 25.5015 8.82321 25.059C8.23184 24.6628 3.76076 20.8517 3.60938 20.4966L3.70782 20.329C3.95229 20.1801 4.35006 20.2319 4.6248 20.2622C7.56469 20.5866 10.5611 20.8108 13.511 20.4856C14.7145 20.3471 16.8253 19.9292 17.7045 18.9987C18.376 18.288 18.7628 15.9259 19.1708 14.8791C19.9127 12.934 21.0027 11.1404 22.3875 9.58607C26.2617 5.2546 31.8701 3.39004 37.5263 3.07537Z" fill="#D8DADD"/>
<path d="M43.8164 49.2827C46.1805 49.275 48.8118 49.1492 51.1336 49.4488C53.358 49.7359 53.7941 51.8433 51.4049 52.694C52.2368 52.9855 52.5069 53.1247 52.9872 53.8995C52.9884 54.481 53.1332 55.3618 52.9699 55.777C52.7396 55.9465 52.6272 55.886 52.2875 55.8869L50.7116 55.8788C50.701 55.4588 50.7144 54.2241 50.4278 54.0279C49.5818 53.4492 47.1494 53.6607 46.1545 53.6679L46.15 55.8794L43.7969 55.8831L43.8164 49.2827Z" fill="#00060D"/>
<path d="M46.1484 50.7659C47.3241 50.7837 48.8835 50.6213 50.0453 50.8505C50.5807 50.9562 50.5453 51.4363 50.3927 51.8736C49.6672 52.2787 47.122 52.1187 46.1492 52.107L46.1484 50.7659Z" fill="#D8DADD"/>
<path d="M40.1002 49.2777L42.3846 49.2637C42.3918 51.2627 42.4709 53.8592 42.3727 55.8245C41.6145 55.8334 40.8564 55.8337 40.0983 55.8254L40.1026 53.2091L35.468 53.2057V55.8225C34.7095 55.8367 33.9249 55.8269 33.1641 55.8276L33.1737 49.2742L35.4697 49.2718L35.4734 51.7391L40.0965 51.7401L40.1002 49.2777Z" fill="#00060D"/>
<path d="M68.2301 49.3016C68.9617 49.2266 70.3903 49.263 71.1438 49.278C71.901 49.9547 72.6543 50.6359 73.4037 51.3214C74.0247 50.684 74.9344 49.8932 75.612 49.2882C76.4566 49.2499 77.4667 49.2692 78.3232 49.2673C77.1847 50.2336 75.8859 51.6005 74.7615 52.4684C75.2595 52.9576 78.1993 55.5196 78.2624 55.8839L75.6714 55.8823C74.9388 55.17 74.0198 54.3784 73.2549 53.6818C72.4679 54.3966 71.6768 55.1068 70.8817 55.8124C70.0374 55.8538 68.9704 55.8253 68.1094 55.8216C69.3663 54.7254 70.6056 53.6091 71.8268 52.473C71.3061 52.1001 68.7491 49.8177 68.2301 49.3016Z" fill="#00060D"/>
<path d="M65.0035 50.793C68.4046 50.9681 67.7264 53.2657 67.6912 55.881L65.5488 55.8802C65.5408 55.5589 65.5576 55.2508 65.5538 54.9331C65.5422 53.9478 65.8696 52.4601 64.5632 52.1746C63.8722 52.0235 63.4457 52.1592 62.867 52.5319C62.2741 53.1591 62.4871 54.8587 62.4975 55.8154C61.7814 55.8319 61.0432 55.8219 60.3252 55.8211C60.3172 54.1868 60.319 52.5525 60.3308 50.9182C60.8146 50.9117 62.1351 50.7871 62.4627 51.1137L62.4476 51.4598C62.4793 51.4863 62.5111 51.5129 62.5428 51.5395C62.8252 51.4077 63.7767 50.9814 64.0058 50.9267C64.4244 50.8267 64.676 50.8175 65.0035 50.793Z" fill="#00060D"/>
<path d="M56.7189 49.2744L59.0306 49.2637C59.0897 51.402 59.0186 53.6527 59.0462 55.8072C58.2866 55.8549 57.4828 55.8314 56.7188 55.823L56.7189 49.2744Z" fill="#00060D"/>
</g>
<defs>
<clipPath id="clip0_8042_134080">
<rect width="99.75" height="76" fill="white"/>
</clipPath>
</defs>
</svg>
