<svg width="164" height="49" viewBox="0 0 164 49" fill="none" xmlns="http://www.w3.org/2000/svg">
<g clip-path="url(#clip0_8042_134092)">
<path d="M107.047 9.32211C107.241 9.28416 108.308 9.25534 108.533 9.26294C112.013 9.39369 116.109 9.5479 118.762 12.1156C121.643 14.9043 120.998 19.1179 120.996 22.8004L120.992 36.0246C118.668 35.9 115.507 35.9824 113.14 36.0005L113.128 33.3229C112.532 33.6777 112.033 34.2582 111.472 34.6686C108.114 37.1252 103.62 37.4944 100.196 35.0643C100.102 34.9915 100.011 34.916 99.9211 34.838C98.229 33.3595 97.3882 31.265 97.2569 29.0441C96.7075 19.7342 106.338 19.3338 113.239 18.9432C113.094 15.9785 111.491 15.3059 108.761 15.0225C105.541 14.6882 102.407 15.8641 99.3813 16.8253C99.4454 14.7551 99.3109 12.5467 99.4254 10.4803C102.07 9.85238 104.345 9.52772 107.047 9.32211ZM106.557 30.5721C108.927 31.7494 111.291 30.8624 113.117 29.1798C113.126 28.4579 113.192 24.4667 113.1 23.9021C112.875 23.8198 112.655 23.8653 112.416 23.8922C109.799 24.13 105.261 24.2611 105.215 27.737C105.199 28.9234 105.47 29.9445 106.557 30.5721Z" fill="#D8DADD"/>
<path d="M50.174 9.32159C50.2885 9.30677 50.4035 9.29605 50.5188 9.2894C53.8442 9.11846 59.0407 9.54537 61.6156 11.8698C62.7462 12.9097 63.5412 14.2627 63.8995 15.7562C64.2241 17.1304 64.0954 20.2034 64.0946 21.7416L64.0915 30.8438C64.0912 32.4569 64.0413 34.4238 64.1222 36.0133C61.7271 35.9311 58.6208 35.9451 56.2193 36.0126L56.242 33.3003C55.7432 33.6278 55.2281 34.1475 54.75 34.5288C51.5225 37.1025 46.7237 37.5324 43.3409 35.092C43.2751 35.0383 43.2103 34.9834 43.1464 34.9274C41.349 33.3518 40.5854 31.5573 40.4105 29.1816C39.7173 19.7654 49.3178 19.3481 56.36 18.9418C56.2586 17.4951 55.9573 16.2683 54.473 15.6488C50.744 14.0921 46.1041 15.5395 42.5034 16.855C42.4899 14.7388 42.4953 12.6225 42.5194 10.5065C44.7913 9.86539 47.8195 9.50229 50.174 9.32159ZM49.677 30.57C52.0427 31.7351 54.4309 30.8773 56.2354 29.1693C56.2378 27.4814 56.1933 25.4957 56.2624 23.8342L55.5517 23.893C53.6597 24.0619 50.3279 24.2352 49.0175 25.7779C47.9435 27.0423 48.0367 29.6828 49.677 30.57Z" fill="#D8DADD"/>
<path d="M19.2434 26.584C19.8439 27.2529 20.9951 28.9907 21.5495 29.7802L25.9501 36.0293L22.0611 36.0299L18.1982 36.0319C17.4485 36.0324 16.3759 36.0029 15.658 36.1021C15.65 34.6561 15.5626 31.9552 15.7099 30.5756C16.4221 29.6303 18.3938 27.4401 19.2434 26.584Z" fill="#9EA2A9"/>
<path d="M148.124 13.7633C149.454 12.2668 152.31 10.1535 154.292 9.58839C156.274 9.02329 158.579 9.12361 160.397 10.1471C162.575 11.3729 163.361 13.3133 164.002 15.5557V35.9791C161.79 35.9409 158.463 35.8718 156.311 36.0011L156.314 25.4612C156.314 23.3791 156.368 21.2613 156.192 19.183C156.074 17.7922 155.522 16.4401 154.007 16.141C151.975 15.7396 150.695 16.4869 149.064 17.5332C149.005 19.5934 149.049 21.8637 149.049 23.9369L149.053 36.004C146.905 35.8523 143.326 35.9646 141.097 35.9731V25.6861C141.097 23.8631 141.134 21.9497 141.032 20.1385C140.925 19.4177 140.83 17.8517 140.383 17.2778C138.551 14.9291 135.68 16.3308 133.838 17.5831C133.818 18.3017 133.823 19.071 133.832 19.7921C133.9 25.1844 133.732 30.6207 133.843 36.0088C133.067 35.9266 131.732 35.9619 130.925 35.9616C129.224 35.9571 127.522 35.9629 125.82 35.979L125.829 10.0191L133.838 10.0161L133.818 12.783C135.512 11.4577 137.16 10.0159 139.315 9.52193C142.966 8.68533 146.713 10.097 148.124 13.7633Z" fill="#D8DADD"/>
<path d="M85.1753 0H93.1495C93.2792 11.9586 93.091 24.0361 93.1391 36.0164C90.768 35.8921 87.5737 35.9871 85.1473 35.9982L85.1313 33.3773C83.6258 34.3995 82.6921 35.5108 80.8968 36.1429C75.6516 37.8609 71.3913 35.6331 69.4359 30.5203C65.8985 21.2711 69.7389 6.85035 82.1388 9.74724C83.0164 9.9522 84.3017 10.6339 85.1697 11.0241L85.1753 0ZM80.566 30.4151C81.8513 30.415 82.9908 30.1587 84.1471 29.5883C84.9519 29.1912 85.1137 28.9212 85.1417 28.0212C85.1841 26.6591 85.1185 25.2906 85.1385 23.9274C85.0648 22.4358 85.3059 17.2289 84.9976 16.1046C84.3633 15.4904 82.596 15.4174 81.7208 15.4335C81.4469 15.4404 81.1722 15.4533 80.8984 15.4721C76.1464 16.3649 75.8915 22.5733 76.5346 26.3591C76.9329 28.7044 78.1973 30.1095 80.566 30.4151Z" fill="#D8DADD"/>
<path d="M17.0764 0H34.1673C34.9229 0.453266 35.4788 0.892377 35.5549 1.829C35.7047 3.67002 35.5484 5.53938 35.587 7.38537C35.612 8.58397 35.6092 9.76974 35.6063 10.9686L35.6133 28.4495C35.6266 30.8179 35.5306 33.8801 35.6595 36.1774C32.6983 32.0738 29.913 27.7888 26.9541 23.6768C26.196 22.6231 25.3668 21.468 24.6951 20.3678C25.9366 18.7962 27.4789 17.1876 28.8182 15.664C31.0483 13.1272 33.2763 10.5634 35.5471 8.06563C33.5549 8.07227 31.54 7.98062 29.5455 8.02263C27.258 8.07083 25.325 7.59488 23.6421 9.50312C21.659 11.7518 19.6706 14.0102 17.6924 16.2648C17.0115 17.0429 16.2737 17.799 15.6811 18.6383C15.645 14.7727 15.6332 10.9069 15.6458 7.0412C15.6431 5.56754 15.6342 4.09105 15.6486 2.61698C15.6618 1.26828 15.9284 0.715114 17.0764 0Z" fill="#9EA2A9"/>
<path d="M0 0H7.74007L7.76326 36.0455C6.22805 36.0193 2.06195 36.2738 0.866189 35.8343C0.525793 35.7092 0.256639 35.4232 0 35.1764V0Z" fill="#9EA2A9"/>
<path d="M142.451 49.0005C141.487 48.5631 140.732 48.097 140.348 47.0284C139.776 45.4356 140.247 43.1402 141.998 42.5084C143.536 41.9839 145.189 42.6793 145.684 44.274C145.999 45.2923 145.996 46.4012 145.53 47.3684C145.103 48.2542 144.422 48.6201 143.57 49.0005H142.451ZM143.406 48.1309C145.834 47.4389 145.666 42.8925 142.66 43.0974C140.31 43.5986 140.222 48.402 143.406 48.1309Z" fill="#9EA2A9"/>
<path d="M9.60818 42.4187C10.8746 42.4136 12.9617 42.2062 13.8796 43.1683C15.0844 44.4314 15.0935 46.8431 13.8448 48.1027C12.7174 49.2399 11.2708 48.6978 9.99048 49.0002H9.68057C9.50721 47.3183 9.65527 44.2677 9.60818 42.4187ZM10.5539 48.1235C11.6235 48.1131 12.5789 48.2401 13.3606 47.4503C13.3768 47.4338 13.3928 47.4171 13.4086 47.4003C14.1648 46.3911 14.1245 44.3118 13.072 43.4936C12.3763 42.9529 11.3388 43.1907 10.5429 43.1031L10.5539 48.1235Z" fill="#9EA2A9"/>
<path d="M150.334 42.4111C152.412 42.4292 154.415 41.8883 154.888 44.4451C154.627 45.361 154.536 45.7329 153.671 46.2136L153.643 46.2293C153.908 46.7791 155.02 48.5705 154.967 49H154.154C153.72 48.3095 153.147 47.1101 152.689 46.3224L151.203 46.3462C151.265 47.1917 151.224 48.1444 151.205 49H150.41C150.226 47.3867 150.364 44.1665 150.334 42.4111ZM151.211 45.6257C151.816 45.6236 152.519 45.6433 153.11 45.5512C153.437 45.4502 153.8 45.2772 153.895 44.9436C154.317 43.4508 153.173 43.1198 152.153 43.1127L151.234 43.1236C151.231 43.8063 151.264 44.9827 151.211 45.6257Z" fill="#9EA2A9"/>
<path d="M36.7734 42.4147C37.7378 42.4168 40.0502 42.199 40.7407 42.9882C41.609 43.9804 41.4282 45.6883 40.0466 46.206C40.3582 46.7783 41.425 48.4691 41.4192 48.9992H40.6726C40.3123 48.6081 39.4674 46.8871 39.1785 46.328L37.6407 46.3387C37.6657 47.0314 37.7224 48.3448 37.611 48.9992H36.8522C36.7174 46.8827 36.8767 44.5813 36.7734 42.4147ZM37.6514 45.6307C38.3012 45.6292 39.5529 45.6963 40.0923 45.3387C41.1612 43.0301 39.2603 43.1088 37.6453 43.1041C37.663 43.9624 37.6786 44.7703 37.6514 45.6307Z" fill="#9EA2A9"/>
<path d="M135.345 42.3888C135.598 42.3905 135.904 42.4022 136.151 42.3713C135.975 43.2387 134.633 48.6204 134.282 48.9996H133.632C133.143 48.3113 132.19 44.1863 132.06 43.1679C131.853 44.2994 131.012 48.1913 130.478 48.9996H129.738C129.521 48.5973 128.076 43.2125 128.008 42.5985C128.099 42.3952 128.058 42.4597 128.257 42.3276C129.159 42.5343 130.034 47.3125 130.076 48.2346C130.353 47.1705 131.225 42.7679 131.953 42.3223C132.146 42.3231 132.202 42.332 132.347 42.4747C132.919 43.0362 133.733 47.0838 134.001 48.085C134.159 46.5327 134.919 43.9707 135.345 42.3888Z" fill="#9EA2A9"/>
<path d="M74.7854 42.3652L75.8002 42.4216C76.7101 43.932 78.1558 46.3212 79.1257 47.762C78.9603 46.2542 79.0905 43.9616 79.0394 42.3844C79.3209 42.3921 79.6349 42.408 79.9132 42.4073C79.914 43.274 79.9925 48.5997 79.8202 48.9992H79.0778C78.4284 48.3355 75.991 44.1976 75.49 43.2777C75.6125 44.0033 75.6849 48.3124 75.5351 48.9992H74.8376C74.7352 48.2845 74.7569 46.773 74.7665 45.9943C74.7809 44.8294 74.7407 43.5184 74.7854 42.3652Z" fill="#9EA2A9"/>
<path d="M105.37 42.3994L106.264 42.3861C106.235 43.2602 106.311 48.6063 106.17 48.9995H105.402C104.897 48.5074 102.353 44.2917 101.85 43.4388C101.905 44.2785 102.045 48.3831 101.825 48.9995H101.159C101 46.9383 101.188 44.5197 101.078 42.3789L102.086 42.4333C103.269 44.1249 104.269 45.9677 105.4 47.665C105.373 45.9099 105.362 44.1547 105.37 42.3994Z" fill="#9EA2A9"/>
<path d="M0 48.0521C0.83648 46.3217 1.28771 44.3207 2.07304 42.5677C2.16398 42.3647 2.82236 42.4373 2.99853 42.4951C3.32204 42.8846 5.31844 48.3784 5.44862 49.0005H4.70176C4.28054 48.4552 4.16294 47.7711 3.99396 47.104L1.25144 47.0945C1.0683 47.7339 0.885312 48.4693 0.485419 49.0005H0V48.0521ZM2.54248 46.2853L3.64464 46.293C3.51127 45.9225 2.65904 43.2657 2.56394 43.2008C2.27162 44.2201 1.84623 45.3226 1.58887 46.2948L2.54248 46.2853Z" fill="#9EA2A9"/>
<path d="M86.702 49.0009C86.2472 48.7845 85.8396 48.6229 85.4808 48.2683C83.0929 45.906 84.8178 41.1335 88.5534 42.6042C89.0811 42.8123 89.9388 43.7363 89.8347 44.3299C89.3006 44.8101 88.8073 43.8652 88.4045 43.5507C85.2862 41.1159 83.6975 47.9847 87.3154 48.17C88.4733 48.2293 89.0443 47.3959 89.1892 46.3034C88.7328 46.3041 87.94 46.3697 87.5717 46.2074C87.4083 46.005 87.4459 46.0954 87.4451 45.815L87.5316 45.6754C88.2924 45.5269 89.182 45.6713 89.9524 45.5752C89.9308 47.5826 89.7898 48.1314 87.9072 49.0009H86.702Z" fill="#9EA2A9"/>
<path d="M110.922 42.4106C111.525 42.419 114.66 42.3382 114.938 42.5509C114.962 42.7098 114.995 42.8236 114.935 42.972C114.439 43.1873 112.522 43.1084 111.847 43.1338L111.852 45.2917C112.453 45.2867 114.448 45.188 114.834 45.5485L114.83 45.7166C114.295 46.0759 112.563 45.9913 111.825 45.9934C111.852 46.5968 111.883 47.5119 111.829 48.1143C112.462 48.11 114.34 48.0585 114.874 48.1467C114.997 48.3283 114.951 48.68 114.91 48.8914C114.903 48.9278 114.894 48.9638 114.884 48.9994H110.998C110.883 48.3311 110.919 47.1764 110.92 46.463L110.922 42.4106Z" fill="#9EA2A9"/>
<path d="M159.273 42.3691C159.53 42.3848 159.831 42.3853 160.091 42.392L160.085 45.8207C160.951 44.7032 162.11 43.4921 163.084 42.4404L164.004 42.4117V42.7185C163.138 43.4772 162.384 44.5243 161.605 45.1932C162.352 46.0962 163.331 47.535 164.004 48.5294V48.9282C163.636 48.9246 163.435 48.9834 163.17 48.6897C162.362 47.794 161.806 46.732 161.04 45.7814C160.669 46.1634 160.438 46.4162 160.103 46.838C160.101 47.3073 160.127 48.6162 160.018 48.9998H159.358C159.257 48.4184 159.289 47.0915 159.291 46.4381C159.299 45.0818 159.293 43.7254 159.273 42.3691Z" fill="#9EA2A9"/>
<path d="M28.2422 42.4132C28.8499 42.4191 31.9301 42.3539 32.2445 42.5316C32.2814 42.7144 32.2989 42.7555 32.2224 42.928C31.8104 43.212 29.7903 43.1204 29.155 43.1336L29.1548 45.2896C29.8649 45.2852 31.4142 45.2326 32.0221 45.354C32.147 45.5748 32.1079 45.5204 32.1005 45.8157C31.7634 46.0531 29.6728 46.0001 29.152 45.9871L29.154 48.1142C29.7785 48.1126 31.6912 48.0686 32.2134 48.1504C32.306 48.3763 32.272 48.7814 32.1713 48.9993H28.3091C28.2404 48.5079 28.253 48.0126 28.2486 47.5176C28.2335 45.8166 28.2782 44.114 28.2422 42.4132Z" fill="#9EA2A9"/>
<path d="M60.5523 45.2088C59.9527 44.069 60.0431 43.3936 61.1397 42.6053C62.2675 41.7945 65.4605 43.0127 64.4706 44.1218C63.8825 44.157 62.9524 42.6212 61.8849 43.0846C61.3909 43.2991 60.9864 43.4372 61.0249 44.1447C61.0357 44.3438 61.1102 44.5796 61.2633 44.699C62.3153 45.5515 64.512 45.1726 64.6779 46.9241C64.7932 48.1415 64.0489 48.4998 63.1185 48.9995H61.598C60.5053 48.4303 60.3606 48.3362 59.8672 47.2005C60.1881 47.1829 60.5475 47.1192 60.8083 47.2833C61.0056 47.511 61.0431 47.6154 61.1576 47.8833C61.9346 48.2368 62.6024 48.4423 63.35 47.9354C65.4663 46.5006 61.3719 45.7944 60.5523 45.2088Z" fill="#9EA2A9"/>
<path d="M23.2192 42.3711C23.5022 42.3768 23.7907 42.3869 24.073 42.3767C23.7061 43.4623 22.1226 48.3096 21.6141 48.9263C21.6066 48.9353 21.5995 48.9446 21.5921 48.9537C21.5794 48.9694 21.566 48.9846 21.5525 48.9996H20.9065C20.604 48.5966 18.6482 43.1904 18.5 42.5761L18.5569 42.4585C18.8362 42.4373 18.9769 42.4108 19.2451 42.5103C19.6559 43.0415 21.0697 47.4958 21.2512 48.3087C21.5289 47.1982 22.7686 43.3146 23.2192 42.3711Z" fill="#9EA2A9"/>
<path d="M47.4007 43.1554C46.915 43.1268 46.0564 43.0535 45.536 43.1285C45.487 43.0801 45.4446 43.0383 45.4088 43.0029C45.3578 42.7776 45.3588 42.75 45.4514 42.5388C45.7461 42.3641 49.8667 42.3627 50.2473 42.5163C50.3015 42.716 50.3108 42.7453 50.267 42.9462C49.9281 43.1998 48.7406 43.1262 48.2872 43.1097C48.2903 43.9328 48.3512 48.4556 48.2261 48.9999H47.4552C47.3123 48.1106 47.3949 44.27 47.4007 43.1554Z" fill="#9EA2A9"/>
<path d="M121.179 43.1446C120.788 43.1286 119.412 43.1568 119.203 43.0403C119.104 42.7748 119.11 42.8804 119.162 42.6053C119.606 42.2202 122.102 42.5022 122.843 42.4206C123.303 42.3699 123.986 42.283 124.118 42.8346C123.992 43.0784 123.967 43.1165 123.673 43.1179C123.129 43.1206 122.585 43.113 122.041 43.1049C122.047 43.9126 122.138 48.5262 121.964 49.0005H121.236C121.09 47.4756 121.179 44.7817 121.179 43.1446Z" fill="#9EA2A9"/>
<path d="M54.6172 42.4291L55.5731 42.3594C55.5636 43.8772 55.6524 47.6887 55.5027 49.0004H54.7243C54.6141 48.3409 54.6546 47.3651 54.6507 46.6693C54.643 45.2533 54.6946 43.8462 54.6172 42.4291Z" fill="#9EA2A9"/>
<path d="M69.2786 48.9998C69.1701 48.3442 69.1573 43.1896 69.2469 42.552C69.4355 42.3562 69.6737 42.3987 69.9324 42.4463C69.9443 42.4615 70.0208 42.5502 70.0208 42.561C70.0178 44.4268 70.0226 46.2925 70.0151 48.1582C70.014 48.4407 70.0164 48.7225 69.9525 48.9998H69.2786Z" fill="#9EA2A9"/>
</g>
<defs>
<clipPath id="clip0_8042_134092">
<rect width="164" height="49" fill="white"/>
</clipPath>
</defs>
</svg>
