<svg width="146" height="89" viewBox="0 0 146 89" fill="none" xmlns="http://www.w3.org/2000/svg">
<g clip-path="url(#clip0_8042_133990)">
<path d="M0 0H145.668V89H0V0Z" fill="#65676C"/>
<path d="M78.6293 12.4258C78.6488 12.4654 78.6683 12.505 78.6878 12.5445C78.4291 13.3029 77.7586 15.1077 77.6839 15.8412C77.5434 17.2222 77.5999 18.7908 77.6015 20.1447C77.617 22.8016 77.6153 25.4585 77.5966 28.1153C78.1119 27.5294 78.8002 26.8573 79.3662 26.3153C83.0263 22.8111 86.5166 18.9117 90.2414 15.5001C90.7377 17.1302 91.1149 18.8763 91.5208 20.5409L93.2695 27.6825L97.2606 22.0197C97.6969 21.4027 99.0719 19.5494 99.3231 18.9476C101.621 18.9259 103.915 18.9658 106.217 18.9204C105.29 19.4809 104.208 19.8151 103.343 20.4747C102.538 21.0886 99.5656 25.6571 98.7399 26.8407C96.2602 30.1011 93.9083 33.9708 91.4113 37.2362C90.8585 35.8078 90.125 31.8735 89.7321 30.2258L88.6761 25.9221C88.4771 25.1249 88.1468 23.9694 88.0625 23.2024C87.7192 23.6625 86.8281 24.4961 86.3871 24.9375L83.1006 28.2181L73.6016 37.7769C73.6996 31.113 73.619 24.1828 73.6037 17.5047C74.3396 16.5949 74.9586 16.0551 75.7764 15.2301C76.7369 14.2611 77.5853 13.3245 78.6293 12.4258Z" fill="white"/>
<path d="M66.9134 12.4062C67.529 12.6734 71.5162 16.8375 72.0635 17.5032C71.9199 24.0479 72.0541 31.1978 72.0488 37.7729C68.1847 33.7687 64.1415 29.8859 60.2493 25.9043C59.4002 25.0356 58.378 24.1488 57.6157 23.2189C57.549 23.8016 57.213 25.0077 57.0589 25.6285L55.9921 29.9863C55.5034 32.0228 54.9129 35.3568 54.2536 37.2406C51.9381 34.2677 49.3724 30.1958 47.0904 27.0721C45.7341 25.1328 43.9104 22.3281 42.375 20.5107C42.1333 20.2246 40.014 19.2217 39.4688 18.9447L46.3029 18.9438C46.5317 19.424 47.7745 21.1174 48.1661 21.6737L52.3913 27.689L54.123 20.6104C54.5284 18.9329 54.9274 17.1294 55.424 15.4924C59.6293 19.4997 63.9426 23.9693 68.0746 28.0924C67.9586 25.3973 68.0524 22.2985 68.0657 19.5862C68.0823 16.2175 68.1132 15.5767 66.9134 12.4062Z" fill="white"/>
<path d="M30.1866 51.2912C31.2649 51.3281 32.4926 51.3242 33.5694 51.3022C33.7118 52.1341 33.9365 52.9884 34.2235 53.781C35.2113 56.5097 35.9415 59.388 36.9933 62.0847C37.1976 61.1047 37.7364 59.7621 38.0268 58.7727C38.7383 56.3491 39.7778 53.6911 40.4697 51.2996C41.7758 51.3142 43.4968 51.3729 44.7635 51.2754C43.9759 52.1477 43.5874 52.4929 43.0895 53.5846C42.3926 55.3707 41.6507 57.9845 41.0468 59.8421C40.3715 61.9191 39.4218 64.4477 38.8923 66.5004L35.1047 66.4926C34.5556 65.188 34.0888 63.4073 33.6397 62.047C32.9975 60.1018 32.3711 58.1487 31.7774 56.188C31.6035 57.0266 30.8938 58.9114 30.5842 59.8091C29.8091 62.0246 29.0729 64.2534 28.3757 66.4946L24.6479 66.4979C23.0453 62.1848 21.7011 57.2178 20.0589 52.8785C19.9232 52.5199 18.8387 51.7681 18.75 51.3132C19.9594 51.3898 21.9832 51.3142 23.2472 51.2957C23.4248 52.1136 23.9197 53.2962 24.164 54.1431C24.9377 56.8265 25.9775 59.5159 26.6809 62.2042C27.3072 59.5701 28.5045 56.8143 29.283 54.1908C29.5791 53.193 29.9481 52.3455 30.1866 51.2912Z" fill="white"/>
<path d="M95.4704 51.2963C96.7306 51.3128 98.8035 51.3809 100.009 51.2773C99.0373 52.1518 98.6175 52.5565 98.09 53.778C96.6846 57.7059 95.4365 62.7183 93.8868 66.5024L90.1877 66.4937C89.5141 64.1145 88.5138 61.6486 87.8306 59.2416C87.5273 58.1733 87.1014 57.2789 86.9031 56.1384C85.6905 59.3937 84.5948 63.1312 83.3832 66.5078C82.1902 66.4732 80.8921 66.4975 79.6912 66.4979C78.1888 62.1935 76.8726 57.5121 75.2905 53.2154C75.1376 52.8003 74.2018 51.8164 73.875 51.3021C75.3125 51.3541 76.9744 51.3178 78.4332 51.3291C79.0658 53.6707 79.7972 55.9041 80.5705 58.2032C80.8271 58.9657 81.3666 61.0433 81.7296 61.6376L81.8462 61.6565C82.0634 61.2544 82.5224 59.7364 82.7243 59.1817C83.6031 56.7676 84.4002 53.5958 85.4136 51.2921C86.3887 51.3315 87.5716 51.3024 88.5624 51.3022C89.0474 53.2953 89.9896 55.5174 90.5389 57.5415C90.9821 59.1773 91.6383 60.6017 91.9842 62.3267C92.6326 60.0006 93.6052 57.4487 94.3257 55.1354C94.6942 53.953 95.2939 52.5053 95.4704 51.2963Z" fill="white"/>
<path d="M59.7448 51.3079C60.1154 52.0062 61.0893 53.1171 61.623 53.7666L64.9739 57.8389C65.633 58.6392 66.5768 59.7213 67.1135 60.5689C66.9904 57.7728 67.0951 54.1771 67.0942 51.3185C68.5545 51.342 70.3916 51.3504 71.8329 51.2832C71.42 51.8362 71.1655 52.2392 70.6474 52.6993L70.6464 65.1426L70.6345 66.4894L67.7543 66.5024C65.4908 63.7131 62.5837 59.9271 60.226 57.3378C60.1708 60.3668 60.2357 63.4473 60.2001 66.4887L56.8419 66.4852L56.842 52.7822C56.5536 52.5046 55.6665 51.6412 55.5781 51.3135C56.6642 51.3874 58.596 51.3147 59.7448 51.3079Z" fill="white"/>
<path d="M110.766 51.3128C111.933 51.3373 113.612 51.3507 114.75 51.2871C115.052 51.706 115.394 52.1428 115.729 52.535C117.967 55.15 120.056 57.9672 122.277 60.5848C122.349 57.561 122.297 54.3588 122.294 51.3219C123.838 51.3292 125.573 51.3627 127.102 51.297C126.655 51.6747 126.089 52.3221 125.682 52.768C125.609 56.7932 125.671 61.0157 125.67 65.0558L125.671 66.4883C124.737 66.4961 123.803 66.4928 122.868 66.4784C120.551 63.7893 117.574 60.1403 115.424 57.336C115.385 60.3738 115.407 63.4493 115.404 66.4899L111.869 66.4893C111.829 61.9264 111.962 57.1938 111.849 52.6522C111.555 52.3123 110.861 51.6902 110.766 51.3128Z" fill="white"/>
<path d="M101.883 51.3128C103.135 51.3895 106.477 51.3672 107.736 51.2871C107.291 51.8262 106.96 52.0806 106.531 52.6993C106.463 56.9288 106.518 61.3134 106.518 65.5547L106.527 66.4855L102.961 66.4864C102.855 63.2942 103.024 59.8804 102.957 56.6728C102.934 55.6259 103.04 53.499 102.885 52.5813C102.781 52.4852 102.677 52.3881 102.576 52.2901C102.334 52.0593 101.891 51.6463 101.883 51.3128Z" fill="white"/>
<path d="M46.6094 51.3114C47.7155 51.3749 51.7085 51.3607 52.7435 51.2832C52.2665 51.7571 51.7897 52.2872 51.3299 52.7821L51.3243 64.9751L51.338 66.4836L47.9098 66.4873L47.9097 52.6919C47.6171 52.4296 46.7866 51.6133 46.6094 51.3114Z" fill="white"/>
<path d="M72.8216 8.58398C73.0645 8.77497 73.8267 9.57484 74.0854 9.83523C74.9186 10.6779 75.7582 11.514 76.6042 12.3437C75.0153 13.5917 74.2698 14.577 72.8538 15.9265C71.6001 14.9522 70.7751 13.6004 69.0859 12.3816C70.033 11.2934 71.7372 9.69157 72.8216 8.58398Z" fill="white"/>
<path d="M87.9443 74.0523C89.6035 74.038 90.6048 73.933 92.1709 74.4859C93.4555 75.7891 93.1539 77.1115 91.5912 77.9312C91.8946 78.3243 92.8306 79.4302 92.8376 79.8323L92.5829 79.8928C92.4673 79.8964 92.031 79.9117 91.9545 79.8698C91.4443 79.5908 90.8681 78.6972 90.6925 78.1828L89.0525 78.2354L89.0898 79.8727L87.9408 79.8815C87.8739 78.0981 87.8948 75.8364 87.9443 74.0523Z" fill="white"/>
<path d="M89.0755 74.9167C90.1124 74.8967 91.7855 74.6663 91.742 76.1694C91.7325 76.5113 91.7029 76.6132 91.463 76.8615C90.5965 77.4435 90.0855 77.3659 89.0703 77.3493L89.0755 74.9167Z" fill="#65676C"/>
<path d="M60.7009 74.0522C63.249 74.0428 66.4639 73.6622 65.2809 77.3855L64.3648 77.8592C64.71 78.6669 65.4379 79.2896 65.4323 79.7396C65.2226 79.9613 65.1483 79.8863 64.7385 79.907C64.3314 79.7595 63.6407 78.6013 63.4075 78.2015L61.7136 78.2331C61.7321 78.7262 61.8401 79.4819 61.5682 79.8503C61.2244 79.8718 61.1487 79.8644 60.8087 79.8049C60.5727 79.5177 60.6951 74.7873 60.7009 74.0522Z" fill="white"/>
<path d="M61.727 74.9116C62.0826 74.9022 62.4382 74.8979 62.794 74.8985C63.7959 74.9089 64.6306 75.161 64.5146 76.3578C64.4848 76.6657 64.3475 76.7637 64.1251 76.9431C63.2138 77.4375 62.7376 77.3633 61.7188 77.3511L61.727 74.9116Z" fill="#65676C"/>
<path d="M46.4915 74.0522C47.6258 74.0441 49.7637 73.9196 50.6614 74.554C52.0057 75.5041 51.3025 77.793 49.6605 78.1067C48.8465 78.2096 48.3083 78.225 47.4833 78.2351C47.5413 78.9145 47.847 80.2983 46.5894 79.8251C46.3644 79.306 46.4841 74.9014 46.4915 74.0522Z" fill="white"/>
<path d="M47.5286 74.9115C48.374 74.8931 49.103 74.8186 49.8821 75.2355C50.493 75.5624 50.4431 76.3576 50.078 76.8455C49.1332 77.4228 48.6581 77.3012 47.5322 77.272C47.5153 76.4974 47.5279 75.6888 47.5286 74.9115Z" fill="#65676C"/>
<path d="M73.7222 73.918C73.9136 73.9568 74.3417 74.0446 74.4875 74.1566C75.4942 74.9295 77.1664 77.0676 77.8712 78.106C77.8725 77.4233 77.8312 74.6931 77.9479 74.1432C78.175 74.0091 78.6251 74.0349 78.9081 74.0304C78.9187 75.522 79.0172 78.5558 78.877 79.9061C78.6642 79.9056 78.2188 79.9196 78.0727 79.7861C76.8973 78.7111 75.7447 77.1116 74.7359 75.8796C74.7472 77.2011 74.7894 78.5465 74.8181 79.8697L73.6836 79.8824C73.604 78.1721 73.6187 75.6027 73.7222 73.918Z" fill="white"/>
<path d="M55.9788 73.959C56.7707 74.29 58.5152 78.8024 58.9972 79.9016L57.7904 79.8629C57.6943 79.3359 57.6091 79.1273 57.4173 78.6422C56.9315 78.5691 56.3998 78.5786 55.9057 78.5722C55.3507 78.5768 54.9046 78.5628 54.3505 78.5279C54.1416 78.9546 53.984 79.4412 53.8248 79.8916L52.5781 79.8683C53.465 78.0924 54.2653 76.0948 55.2086 74.3585C55.3921 74.0207 55.6629 74.0143 55.9788 73.959Z" fill="white"/>
<path d="M55.7723 75.2188C56.0053 75.33 56.6837 77.1338 57.0114 77.6782C56.6398 77.6316 56.237 77.6449 55.8603 77.6464C55.4677 77.6426 55.1189 77.6537 54.7266 77.6718C54.9621 77.0009 55.4683 76.0416 55.7723 75.2188Z" fill="#65676C"/>
<path d="M81.3497 74.0549C81.9733 74.0614 85.3633 73.9199 85.6552 74.189C85.6912 74.4258 85.7184 74.4968 85.6508 74.7321C85.2391 75.045 83.2043 74.9185 82.5523 74.911L82.512 76.5025C83.1308 76.5416 85.0621 76.3831 85.3826 76.6383C85.4285 76.9059 85.4389 76.9489 85.3814 77.2125C85.0342 77.5445 83.5431 77.3957 82.9848 77.3879C82.802 77.3752 82.793 77.3713 82.6255 77.437C82.4487 77.8249 82.529 78.5411 82.5425 79.0023C83.4801 78.9956 84.7518 78.9506 85.6619 79.0291C85.8021 79.1904 85.7467 79.4463 85.7483 79.7161C85.4401 80.0153 81.9809 79.8761 81.347 79.8729C81.3314 77.9336 81.3323 75.9942 81.3497 74.0549Z" fill="white"/>
<path d="M96.6201 73.8945C97.5545 73.851 98.2081 74.1841 99.0755 74.5134L98.6148 75.2362C98.1029 75.0521 97.5788 74.8441 97.0356 74.7764C96.4619 74.7049 95.698 75.0727 95.6606 75.7109C95.9926 76.7153 99.2858 76.5498 99.2884 77.9816C99.2901 79.5685 97.956 79.8509 96.6618 79.9129C96.043 79.8912 94.8488 79.8377 94.5994 79.1697C94.6394 78.8974 94.6385 78.8301 94.8236 78.6107C95.1921 78.5588 98.2133 79.9191 98.1924 78.2197C97.617 77.2878 95.0339 77.4382 94.6541 76.0469C94.2987 74.7452 95.585 74.1499 96.6201 73.8945Z" fill="white"/>
<path d="M66.9154 74.0472C67.7924 74.0639 71.3079 73.9614 71.8831 74.1288C72.0267 74.3435 72.0317 74.6588 71.8511 74.8501C71.4057 74.9701 70.4681 74.9224 69.965 74.9148L69.9651 77.8313L69.9666 79.8854C69.6533 79.8863 69.2313 79.9219 68.996 79.7405C68.8853 79.0664 68.9447 75.8227 68.9441 74.9072C68.2764 74.9051 67.615 75.0742 67.0697 74.8314C66.8417 74.5272 66.9205 74.5138 66.9154 74.0472Z" fill="white"/>
</g>
<defs>
<clipPath id="clip0_8042_133990">
<rect width="145.668" height="89" fill="white"/>
</clipPath>
</defs>
</svg>
