<svg width="18" height="15" viewBox="0 0 18 15" fill="none" xmlns="http://www.w3.org/2000/svg">
<path fill-rule="evenodd" clip-rule="evenodd" d="M15.8496 0.101862C16.067 0.0116687 16.3049 -0.0194385 16.5387 0.0117782C16.7724 0.0429949 16.9934 0.135395 17.1786 0.27936C17.3638 0.423325 17.5065 0.613592 17.5918 0.830358C17.677 1.04712 17.7018 1.28247 17.6636 1.51188L15.6684 13.4416C15.4748 14.5923 14.194 15.2522 13.1234 14.679C12.2278 14.1995 10.8977 13.4606 9.70133 12.6897C9.10312 12.3038 7.27069 11.0681 7.4959 10.1888C7.68943 9.43697 10.7684 6.61172 12.5278 4.93201C13.2184 4.27209 12.9035 3.8914 12.088 4.49842C10.062 6.00557 6.81148 8.2975 5.73648 8.94268C4.78815 9.51154 4.29376 9.60867 3.70259 9.51154C2.62407 9.33464 1.62384 9.06061 0.807474 8.72675C-0.295681 8.27582 -0.242018 6.78082 0.806594 6.3455L15.8496 0.101862Z" fill="white"/>
</svg>
